<?xml version="1.0" encoding="UTF-8" standalone="no"?>
<svg
   id="svg"
   version="1.1"
   width="300.33224"
   height="300.17871"
   viewBox="0 0 300.33224 300.17871"
   sodipodi:docname="clear-gray.svg"
   inkscape:version="1.2.1 (9c6d41e410, 2022-07-14)"
   xmlns:inkscape="http://www.inkscape.org/namespaces/inkscape"
   xmlns:sodipodi="http://sodipodi.sourceforge.net/DTD/sodipodi-0.dtd"
   xmlns="http://www.w3.org/2000/svg"
   xmlns:svg="http://www.w3.org/2000/svg">
  <defs
     id="defs265" />
  <sodipodi:namedview
     id="namedview263"
     pagecolor="#ffffff"
     bordercolor="#000000"
     borderopacity="0.25"
     inkscape:showpageshadow="2"
     inkscape:pageopacity="0.0"
     inkscape:pagecheckerboard="0"
     inkscape:deskcolor="#d1d1d1"
     showgrid="false"
     inkscape:zoom="2.0925"
     inkscape:cx="99.641577"
     inkscape:cy="150.53763"
     inkscape:window-width="1920"
     inkscape:window-height="1017"
     inkscape:window-x="-8"
     inkscape:window-y="-8"
     inkscape:window-maximized="1"
     inkscape:current-layer="svg" />
  <g
     id="svgg"
     transform="translate(-49.846,-49.799046)">
    <path
       id="path0"
       d="m 147.123,49.944 c -0.038,0.037 -9.778,0.112 -21.645,0.166 -32.065,0.145 -49.151,0.376 -50.178,0.677 -0.11,0.033 -0.29,0.08 -0.4,0.106 -0.11,0.025 -0.245,0.067 -0.3,0.093 -0.099,0.047 -0.866,0.188 -1.35,0.249 -0.138,0.018 -0.25,0.107 -0.25,0.198 0,0.092 -0.136,0.167 -0.303,0.167 -0.166,0 -0.504,0.104 -0.75,0.231 -1.11,0.574 -1.191,0.602 -1.044,0.364 0.099,-0.161 -0.005,-0.152 -0.329,0.028 -0.261,0.144 -0.544,0.242 -0.63,0.218 -0.085,-0.025 -0.207,0.091 -0.271,0.256 -0.063,0.165 -0.204,0.246 -0.313,0.178 -0.109,-0.067 -0.456,0.068 -0.771,0.301 -0.315,0.233 -0.714,0.424 -0.887,0.424 -0.173,0 -0.366,0.134 -0.429,0.299 -0.063,0.164 -0.195,0.249 -0.294,0.188 C 66.881,54.026 66.8,54.05 66.8,54.14 c 0,0.09 -0.189,0.282 -0.421,0.427 -0.231,0.144 -0.362,0.167 -0.29,0.05 0.081,-0.13 0.011,-0.166 -0.177,-0.094 -0.171,0.066 -0.26,0.199 -0.199,0.298 0.061,0.098 0.015,0.179 -0.101,0.179 -0.117,0 -0.279,0.011 -0.362,0.025 -0.304,0.05 -1.764,1.148 -2.199,1.654 -0.246,0.286 -0.568,0.521 -0.714,0.521 -0.146,0 -0.457,0.203 -0.691,0.45 -0.235,0.248 -0.517,0.54 -0.627,0.65 -0.11,0.11 -0.527,0.579 -0.925,1.041 -0.399,0.463 -0.905,0.899 -1.125,0.969 -0.219,0.069 -0.353,0.173 -0.296,0.23 0.057,0.056 0.015,0.206 -0.092,0.331 -0.107,0.126 -0.333,0.409 -0.503,0.629 -0.169,0.22 -0.242,0.274 -0.162,0.119 0.096,-0.185 0.067,-0.232 -0.085,-0.138 -0.127,0.078 -0.231,0.263 -0.231,0.409 0,0.147 -0.126,0.316 -0.281,0.375 -0.348,0.134 -1.544,1.843 -1.394,1.993 0.06,0.06 -0.078,0.21 -0.308,0.333 -0.229,0.123 -0.417,0.4 -0.417,0.616 0,0.216 -0.09,0.393 -0.2,0.393 -0.11,0 -0.2,0.124 -0.2,0.276 0,0.151 -0.135,0.387 -0.3,0.524 -0.165,0.137 -0.3,0.41 -0.3,0.608 0,0.197 -0.095,0.39 -0.211,0.429 -0.116,0.039 -0.232,0.217 -0.259,0.396 -0.026,0.18 -0.179,0.485 -0.339,0.678 -0.16,0.193 -0.271,0.359 -0.247,0.37 0.146,0.063 -0.228,0.919 -0.401,0.919 -0.115,0 -0.15,0.059 -0.078,0.132 0.072,0.072 0.031,0.252 -0.091,0.4 -0.123,0.147 -0.16,0.268 -0.082,0.268 0.077,0 -0.053,0.313 -0.29,0.696 -0.236,0.383 -0.373,0.788 -0.304,0.9 0.069,0.112 0.025,0.204 -0.098,0.204 -0.123,0 -0.172,0.084 -0.109,0.186 0.064,0.103 0.028,0.24 -0.079,0.307 -0.107,0.066 -0.144,0.252 -0.082,0.413 0.062,0.162 0.006,0.294 -0.125,0.294 -0.131,0 -0.199,0.113 -0.15,0.25 0.048,0.137 0,0.475 -0.108,0.75 -0.974,2.493 -1.184,24.491 -1.18,123.6 0.004,89.76 0.251,123.792 0.92,126.6 0.065,0.275 0.16,0.802 0.21,1.172 0.049,0.369 0.182,0.783 0.295,0.918 0.112,0.136 0.145,0.306 0.073,0.378 -0.072,0.073 -0.029,0.132 0.095,0.132 0.125,0 0.176,0.135 0.112,0.3 -0.063,0.165 -0.006,0.3 0.128,0.3 0.134,0 0.192,0.132 0.13,0.294 -0.062,0.162 0.014,0.421 0.169,0.576 0.155,0.155 0.227,0.338 0.159,0.405 -0.067,0.067 0.036,0.297 0.229,0.511 0.194,0.214 0.295,0.481 0.225,0.594 -0.069,0.113 0.057,0.389 0.281,0.613 0.224,0.224 0.407,0.534 0.407,0.69 0,0.156 0.095,0.315 0.211,0.354 0.116,0.039 0.239,0.204 0.273,0.367 0.147,0.705 0.568,1.588 0.714,1.497 0.088,-0.054 0.215,0.124 0.284,0.397 0.068,0.272 0.39,0.798 0.716,1.17 0.326,0.371 0.527,0.755 0.447,0.853 -0.08,0.099 -0.066,0.115 0.032,0.036 0.213,-0.174 0.923,0.683 0.923,1.114 0,0.17 0.315,0.549 0.7,0.843 0.385,0.293 0.7,0.619 0.7,0.724 0,0.272 0.526,0.762 0.819,0.762 0.136,0 0.188,0.06 0.115,0.133 -0.073,0.073 0.142,0.299 0.477,0.503 0.335,0.203 0.554,0.459 0.487,0.567 -0.067,0.108 0.024,0.197 0.202,0.197 0.178,0 0.268,0.09 0.2,0.2 -0.068,0.11 -0.045,0.2 0.05,0.2 0.096,0 0.392,0.203 0.658,0.45 0.267,0.248 0.554,0.428 0.638,0.4 0.085,-0.027 0.154,0.085 0.154,0.25 0,0.165 0.135,0.3 0.3,0.3 0.165,0 0.3,0.105 0.3,0.233 0,0.129 0.054,0.179 0.121,0.113 0.067,-0.067 0.314,0.087 0.55,0.342 0.236,0.254 0.474,0.454 0.529,0.444 0.055,-0.01 0.4,0.204 0.767,0.475 0.366,0.271 0.716,0.463 0.777,0.426 0.061,-0.037 0.166,0.012 0.234,0.11 0.187,0.271 2.022,1.294 2.022,1.127 0,-0.08 0.142,0.028 0.315,0.242 0.173,0.213 0.258,0.276 0.188,0.138 -0.187,-0.369 -0.032,-0.308 0.603,0.239 0.313,0.268 0.636,0.447 0.718,0.396 0.081,-0.05 0.206,10e-4 0.276,0.115 0.07,0.114 0.211,0.155 0.314,0.091 0.102,-0.063 0.186,-0.01 0.186,0.119 0,0.128 0.135,0.181 0.3,0.118 0.165,-0.064 0.3,-0.038 0.3,0.057 0,0.095 0.14,0.226 0.31,0.291 0.194,0.075 0.26,0.038 0.176,-0.099 -0.074,-0.12 0.09,-0.071 0.364,0.109 0.454,0.297 0.895,0.449 1.75,0.604 0.165,0.03 0.435,0.104 0.6,0.166 0.165,0.061 0.57,0.177 0.9,0.259 0.33,0.081 0.735,0.185 0.9,0.231 0.165,0.045 0.458,0.082 0.65,0.081 0.193,-0.001 0.35,0.086 0.35,0.194 0,0.108 0.113,0.178 0.25,0.156 0.138,-0.022 0.399,0.025 0.58,0.105 0.381,0.168 236.647,0.003 240.87,-0.168 2.389,-0.097 4.705,-0.241 5.65,-0.351 0.138,-0.017 0.25,-0.097 0.25,-0.179 0,-0.082 0.157,-0.126 0.35,-0.097 0.192,0.028 0.642,-0.071 1,-0.221 0.357,-0.149 0.65,-0.222 0.65,-0.162 0,0.061 0.203,-0.002 0.45,-0.139 0.248,-0.138 0.526,-0.228 0.618,-0.202 0.092,0.027 0.745,-0.224 1.45,-0.557 0.706,-0.333 1.373,-0.606 1.483,-0.606 0.109,0 0.199,-0.087 0.199,-0.194 0,-0.106 0.128,-0.144 0.285,-0.084 0.156,0.06 0.471,-0.078 0.7,-0.307 0.228,-0.228 0.46,-0.415 0.515,-0.415 0.055,0 0.24,0 0.412,0 0.171,0 0.256,-0.09 0.188,-0.2 -0.068,-0.11 0.065,-0.2 0.294,-0.2 0.23,0 0.47,-0.134 0.533,-0.299 0.063,-0.164 0.182,-0.257 0.264,-0.207 0.081,0.051 0.342,-0.088 0.579,-0.309 0.236,-0.22 0.43,-0.348 0.43,-0.285 0,0.064 0.247,-0.112 0.548,-0.392 0.301,-0.279 0.664,-0.508 0.806,-0.508 0.142,0 0.31,-0.134 0.373,-0.299 0.063,-0.164 0.176,-0.261 0.251,-0.215 0.074,0.046 0.345,-0.179 0.601,-0.501 0.256,-0.322 0.555,-0.585 0.665,-0.585 0.246,0 1.256,-0.836 1.299,-1.075 0.018,-0.097 0.238,-0.278 0.49,-0.404 0.253,-0.126 0.561,-0.433 0.685,-0.682 0.124,-0.249 0.509,-0.706 0.854,-1.014 0.345,-0.308 0.628,-0.665 0.628,-0.793 0,-0.128 0.081,-0.209 0.18,-0.182 0.099,0.028 0.183,-0.024 0.187,-0.115 0.004,-0.091 0.206,-0.338 0.45,-0.55 0.245,-0.212 0.385,-0.385 0.314,-0.385 -0.118,0 0.024,-0.177 0.978,-1.217 0.16,-0.174 0.291,-0.462 0.291,-0.64 0,-0.178 0.143,-0.403 0.318,-0.501 0.175,-0.098 0.31,-0.237 0.3,-0.31 -0.055,-0.403 0.004,-0.542 0.182,-0.432 0.11,0.068 0.2,-0.006 0.2,-0.164 0,-0.158 0.135,-0.399 0.3,-0.536 0.165,-0.137 0.3,-0.418 0.3,-0.624 0,-0.207 0.087,-0.376 0.194,-0.376 0.106,0 0.136,-0.15 0.066,-0.333 -0.08,-0.207 -0.048,-0.283 0.084,-0.202 0.126,0.078 0.348,-0.288 0.551,-0.908 0.187,-0.572 0.46,-1.211 0.607,-1.421 0.148,-0.21 0.214,-0.521 0.149,-0.692 -0.085,-0.222 -0.043,-0.263 0.149,-0.144 0.196,0.121 0.234,0.076 0.14,-0.167 -0.07,-0.183 -0.043,-0.333 0.06,-0.333 0.103,0 0.136,-0.135 0.072,-0.3 -0.063,-0.165 -0.018,-0.3 0.1,-0.3 0.119,0 0.164,-0.135 0.1,-0.3 -0.063,-0.165 -0.01,-0.3 0.118,-0.3 0.129,0 0.18,-0.087 0.114,-0.194 -0.066,-0.107 0.019,-0.464 0.19,-0.794 0.17,-0.33 0.298,-0.67 0.284,-0.756 -0.014,-0.086 -0.005,-0.201 0.02,-0.256 1.234,-2.692 1.04,-249.532 -0.197,-250.75 -0.028,-0.027 -0.062,-0.132 -0.076,-0.233 -0.014,-0.101 -0.086,-0.245 -0.161,-0.32 -0.075,-0.075 -0.088,-0.262 -0.029,-0.417 0.059,-0.154 0.008,-0.28 -0.114,-0.28 -0.121,0 -0.201,-0.067 -0.177,-0.15 0.023,-0.083 -0.079,-0.465 -0.229,-0.85 -0.15,-0.385 -0.259,-0.767 -0.244,-0.85 0.016,-0.083 -0.042,-0.15 -0.128,-0.15 -0.087,0 -0.173,-0.194 -0.19,-0.432 -0.018,-0.238 -0.105,-0.485 -0.193,-0.55 -0.233,-0.172 -1.169,-2.079 -1.11,-2.262 0.028,-0.086 -0.045,-0.156 -0.162,-0.156 -0.116,0 -0.162,-0.08 -0.102,-0.177 0.06,-0.098 -0.024,-0.289 -0.188,-0.425 -0.164,-0.136 -0.298,-0.362 -0.298,-0.501 0,-0.14 -0.223,-0.467 -0.497,-0.726 -0.273,-0.259 -0.498,-0.621 -0.5,-0.804 -0.001,-0.184 -0.25,-0.528 -0.553,-0.765 -0.302,-0.237 -0.422,-0.365 -0.266,-0.284 0.181,0.094 0.145,-0.039 -0.1,-0.365 -0.211,-0.283 -0.423,-0.476 -0.471,-0.43 -0.047,0.046 -0.203,-0.194 -0.346,-0.534 -0.143,-0.339 -0.335,-0.571 -0.427,-0.514 -0.091,0.057 -0.323,-0.161 -0.514,-0.484 -0.191,-0.324 -0.522,-0.682 -0.736,-0.797 -0.215,-0.114 -0.39,-0.334 -0.39,-0.487 0,-0.154 -0.277,-0.477 -0.616,-0.718 -0.595,-0.424 -0.803,-0.602 -2.209,-1.889 -0.36,-0.33 -0.727,-0.577 -0.815,-0.55 -0.088,0.028 -0.16,-0.085 -0.16,-0.25 0,-0.271 -0.237,-0.389 -0.65,-0.324 -0.082,0.013 -0.15,-0.06 -0.15,-0.163 0,-0.102 -0.181,-0.244 -0.403,-0.314 -0.222,-0.07 -0.351,-0.211 -0.288,-0.313 0.063,-0.102 -0.076,-0.186 -0.309,-0.186 -0.233,0 -0.38,-0.07 -0.328,-0.155 0.053,-0.086 -0.171,-0.309 -0.497,-0.496 -0.348,-0.2 -0.534,-0.239 -0.45,-0.095 0.079,0.135 -0.098,0.009 -0.393,-0.28 -0.296,-0.289 -0.796,-0.577 -1.111,-0.64 -0.315,-0.063 -0.7,-0.242 -0.856,-0.398 -0.269,-0.269 -0.828,-0.511 -1.265,-0.548 -0.11,-0.01 -0.492,-0.198 -0.85,-0.419 -0.357,-0.221 -0.65,-0.338 -0.65,-0.261 0,0.078 -0.135,0.029 -0.3,-0.108 -0.165,-0.137 -0.3,-0.183 -0.3,-0.101 0,0.081 -0.223,10e-4 -0.496,-0.178 -0.273,-0.179 -0.723,-0.344 -1,-0.367 -0.277,-0.022 -0.504,-0.121 -0.504,-0.219 0,-0.098 -0.126,-0.129 -0.28,-0.07 -0.155,0.059 -0.339,0.049 -0.41,-0.022 -0.071,-0.071 -0.372,-0.153 -0.67,-0.183 -0.297,-0.03 -1.08,-0.106 -1.74,-0.17 -4.947,-0.479 -175.521,-1.202 -175.977,-0.746 m -11.264,58.215 c 3.386,3.387 6.093,6.222 6.015,6.3 -0.077,0.078 -0.013,0.14 0.143,0.138 0.272,-0.002 26.044,25.749 26.07,26.05 0.007,0.08 1.196,1.25 2.643,2.6 1.446,1.349 3.752,3.623 5.123,5.053 1.371,1.43 2.969,3.095 3.549,3.7 0.581,0.605 0.931,0.923 0.777,0.706 -0.153,-0.216 2.194,2.079 5.216,5.1 3.023,3.022 5.543,5.494 5.6,5.494 0.058,0 0.083,0.067 0.055,0.15 -0.027,0.082 0.018,0.127 0.1,0.1 0.083,-0.028 0.169,0.021 0.193,0.107 0.056,0.205 0.474,0.584 0.965,0.874 0.216,0.128 0.373,0.319 0.35,0.427 -0.023,0.107 0.15,0.363 0.384,0.568 0.28,0.245 0.369,0.27 0.26,0.074 -0.092,-0.165 0.052,-0.075 0.32,0.2 0.268,0.275 0.8,0.81 1.182,1.189 0.383,0.38 0.561,0.624 0.396,0.543 -0.165,-0.081 -0.132,-0.031 0.074,0.111 0.378,0.259 1.036,0.913 1.677,1.666 0.192,0.226 0.263,0.271 0.158,0.1 -0.105,-0.17 0.346,0.254 1.001,0.941 0.656,0.687 1.309,1.25 1.453,1.25 0.143,0 0.211,0.081 0.15,0.179 -0.194,0.314 0.448,0.409 0.701,0.104 0.134,-0.161 0.289,-0.246 0.346,-0.19 0.057,0.057 0.567,-0.391 1.133,-0.995 0.567,-0.604 1.133,-1.098 1.257,-1.098 0.125,0 0.377,-0.253 0.56,-0.562 0.182,-0.31 0.588,-0.735 0.9,-0.945 0.312,-0.21 0.535,-0.414 0.495,-0.454 -0.099,-0.1 0.73,-1.039 0.916,-1.039 0.245,0 2.706,-2.471 2.843,-2.855 0.07,-0.195 0.284,-0.414 0.476,-0.488 0.192,-0.074 2.898,-2.682 6.014,-5.795 3.116,-3.114 5.737,-5.662 5.825,-5.662 0.186,0 0.786,-0.632 0.807,-0.85 0.008,-0.082 0.075,-0.172 0.149,-0.2 0.074,-0.028 0.772,-0.725 1.55,-1.55 0.778,-0.825 2.863,-2.895 4.633,-4.6 1.77,-1.705 3.197,-3.145 3.17,-3.2 -0.026,-0.055 5.411,-5.547 12.082,-12.205 l 12.13,-12.104 -10.4,10.504 -10.4,10.505 10.55,-10.499 c 5.803,-5.775 10.55,-10.597 10.55,-10.715 0,-0.119 0.248,-0.434 0.55,-0.701 l 0.55,-0.485 -0.5,0.6 -0.5,0.6 0.55,-0.485 c 0.303,-0.267 0.55,-0.588 0.55,-0.715 0,-0.127 0.247,-0.448 0.55,-0.715 l 0.55,-0.485 -0.5,0.6 -0.5,0.6 0.55,-0.485 c 0.303,-0.267 0.55,-0.582 0.55,-0.701 0,-0.119 2.788,-3.004 6.196,-6.41 l 6.197,-6.194 0.953,0.891 c 2.843,2.657 15.818,15.696 15.742,15.819 -0.049,0.079 2.351,2.529 5.334,5.443 2.983,2.914 5.391,5.388 5.351,5.498 -0.116,0.316 -42.65,43.012 -42.811,42.974 -0.079,-0.019 -1.341,1.236 -2.803,2.789 -1.463,1.553 -3.109,3.23 -3.659,3.726 -0.55,0.496 -1.428,1.284 -1.95,1.751 -0.522,0.468 -0.95,0.928 -0.95,1.023 0,0.096 -2.047,2.238 -4.55,4.761 -2.503,2.524 -4.713,4.821 -4.912,5.106 -0.2,0.284 -0.438,0.471 -0.531,0.413 -0.092,-0.057 -0.36,0.223 -0.596,0.622 -0.235,0.398 -0.484,0.668 -0.553,0.599 -0.19,-0.19 -0.868,0.498 -0.722,0.733 0.069,0.112 0.041,0.152 -0.062,0.088 -0.103,-0.064 -0.396,0.189 -0.652,0.562 -0.255,0.373 -0.625,0.73 -0.822,0.792 -0.197,0.062 -0.57,0.425 -0.829,0.805 -0.259,0.381 -0.516,0.695 -0.571,0.698 -0.055,0.003 -0.325,0.192 -0.6,0.419 -0.275,0.227 -0.365,0.345 -0.2,0.262 0.165,-0.083 -0.3,0.427 -1.034,1.133 -1.054,1.014 -1.284,1.338 -1.1,1.546 0.129,0.144 0.819,0.86 1.534,1.59 0.715,0.73 1.165,1.257 1,1.172 -0.325,-0.168 -0.193,-0.043 0.819,0.775 0.273,0.22 0.65,0.623 0.838,0.895 0.189,0.271 0.343,0.425 0.343,0.341 0,-0.223 0.868,0.663 1.377,1.407 0.243,0.354 0.684,0.765 0.982,0.914 0.297,0.148 0.518,0.376 0.491,0.506 -0.028,0.131 0.1,0.237 0.283,0.237 0.184,0 0.274,0.059 0.202,0.132 -0.073,0.073 0.061,0.23 0.297,0.35 0.236,0.12 0.528,0.394 0.648,0.61 0.121,0.216 2.492,2.662 5.27,5.437 2.778,2.774 5.05,5.123 5.05,5.218 0,0.311 1.321,1.465 1.495,1.307 0.093,-0.085 0.11,-0.051 0.039,0.074 -0.072,0.126 0.071,0.361 0.318,0.523 0.585,0.384 5.633,5.392 8.517,8.449 1.246,1.32 2.325,2.405 2.398,2.411 0.159,0.013 37.806,37.724 38.053,38.117 0.188,0.301 -12.296,12.972 -12.781,12.972 -0.144,0 -0.207,0.09 -0.139,0.2 0.068,0.111 -0.112,0.29 -0.4,0.4 -0.288,0.11 -0.479,0.273 -0.423,0.362 0.088,0.143 -5.039,5.318 -11.428,11.537 l -2.052,1.996 -6.748,-6.721 c -3.712,-3.697 -6.912,-6.778 -7.112,-6.846 -0.199,-0.069 -0.306,-0.217 -0.237,-0.328 0.069,-0.112 -0.083,-0.287 -0.337,-0.389 -0.255,-0.102 -0.374,-0.191 -0.264,-0.198 0.305,-0.02 -12.557,-12.813 -12.881,-12.813 -0.157,0 -0.222,-0.063 -0.145,-0.14 0.175,-0.175 -4.472,-4.86 -4.82,-4.86 -0.139,0 -0.231,-0.105 -0.203,-0.234 0.027,-0.128 -0.175,-0.352 -0.45,-0.497 -0.275,-0.145 -0.414,-0.264 -0.308,-0.266 0.105,-0.002 -0.206,-0.408 -0.692,-0.903 -0.486,-0.495 -1.015,-0.9 -1.175,-0.9 -0.16,0 -0.228,-0.064 -0.15,-0.141 0.185,-0.185 -17.287,-17.659 -17.657,-17.659 -0.157,0 -0.224,-0.06 -0.151,-0.134 0.187,-0.187 -0.465,-0.866 -0.831,-0.866 -0.167,0 -0.239,-0.063 -0.162,-0.141 0.185,-0.185 -8.085,-8.459 -8.456,-8.459 -0.156,0 -0.221,-0.063 -0.144,-0.141 0.155,-0.155 -7.448,-7.853 -7.772,-7.869 -0.111,-0.006 -16.049,15.892 -35.418,35.327 l -35.216,35.338 -2.484,-2.371 c -4.416,-4.215 -11.363,-11.146 -11.323,-11.297 0.021,-0.081 -0.015,-0.133 -0.08,-0.117 -0.255,0.064 -0.77,-0.527 -0.647,-0.743 0.072,-0.125 0.052,-0.156 -0.043,-0.069 C 114.906,284.026 102,271.245 102,270.893 c 0,-0.114 8.933,-9.114 19.85,-19.998 10.918,-10.884 19.535,-19.426 19.15,-18.984 -0.385,0.443 -0.212,0.307 0.384,-0.303 3.102,-3.172 9.529,-9.635 9.616,-9.669 0.055,-0.021 0.075,-0.113 0.045,-0.204 -0.03,-0.091 0.033,-0.11 0.141,-0.043 0.108,0.066 0.349,-0.112 0.536,-0.397 0.187,-0.285 2.792,-2.982 5.789,-5.993 2.997,-3.011 5.398,-5.526 5.336,-5.589 -0.063,-0.062 0.036,-0.113 0.22,-0.113 0.183,0 0.333,-0.14 0.333,-0.312 0,-0.171 0.077,-0.264 0.171,-0.206 0.094,0.058 0.386,-0.131 0.65,-0.42 0.263,-0.29 0.344,-0.45 0.179,-0.356 -0.26,0.148 -0.263,0.125 -0.021,-0.172 0.153,-0.189 0.321,-0.3 0.374,-0.248 0.133,0.133 1.74,-1.504 1.904,-1.939 0.073,-0.194 0.36,-0.439 0.638,-0.545 0.278,-0.106 0.505,-0.245 0.505,-0.309 0,-0.064 -0.106,-0.051 -0.236,0.029 -0.129,0.08 0.901,-0.987 2.29,-2.372 l 2.524,-2.517 -1.139,-1.184 c -0.626,-0.651 -1.277,-1.356 -1.445,-1.567 -0.169,-0.212 -0.619,-0.641 -1,-0.954 -0.382,-0.313 -0.581,-0.509 -0.444,-0.437 0.138,0.073 0.25,0.08 0.25,0.016 0,-0.064 -0.227,-0.203 -0.505,-0.309 -0.278,-0.106 -0.564,-0.351 -0.635,-0.545 -0.163,-0.442 -1.104,-1.36 -1.325,-1.293 -0.091,0.027 -0.115,-0.03 -0.055,-0.128 0.117,-0.19 -0.633,-0.967 -0.851,-0.882 -0.071,0.028 -0.129,-0.06 -0.129,-0.194 0,-0.134 -0.225,-0.359 -0.5,-0.5 -0.275,-0.14 -0.478,-0.345 -0.45,-0.456 0.027,-0.11 -0.085,-0.2 -0.25,-0.2 -0.165,0 -0.3,-0.09 -0.3,-0.201 0,-0.11 -2.373,-2.582 -5.273,-5.493 -2.901,-2.911 -5.239,-5.328 -5.196,-5.371 0.043,-0.043 -0.076,-0.203 -0.265,-0.356 -0.297,-0.242 -0.32,-0.239 -0.172,0.021 0.093,0.165 0.13,0.255 0.082,0.2 -0.795,-0.898 -6.617,-6.787 -6.699,-6.776 -0.224,0.029 -1.277,-1.104 -1.277,-1.373 0,-0.151 -0.084,-0.223 -0.186,-0.16 -0.102,0.063 -0.241,-0.044 -0.308,-0.238 -0.068,-0.194 -0.615,-0.754 -1.215,-1.244 -0.6,-0.49 -1.091,-0.991 -1.091,-1.113 0,-0.122 -0.292,-0.486 -0.65,-0.809 l -0.65,-0.587 0.597,0.7 c 0.328,0.385 -0.015,0.115 -0.761,-0.6 -0.746,-0.715 -1.723,-1.772 -2.171,-2.35 -0.447,-0.577 -0.953,-1.05 -1.123,-1.05 -0.17,0 -0.246,-0.063 -0.17,-0.139 0.185,-0.185 -2.28,-2.661 -2.65,-2.661 -0.159,0 -0.226,-0.063 -0.148,-0.14 0.185,-0.186 -5.285,-5.66 -5.655,-5.66 -0.157,0 -0.223,-0.062 -0.147,-0.138 0.185,-0.185 -1.679,-2.062 -2.048,-2.062 -0.16,0 -0.228,-0.063 -0.151,-0.139 0.185,-0.185 -2.682,-3.061 -3.051,-3.061 -0.159,0 -0.225,-0.064 -0.148,-0.141 0.186,-0.185 -13.086,-13.459 -13.456,-13.459 -0.157,0 -0.223,-0.062 -0.148,-0.137 0.186,-0.185 -1.074,-1.463 -1.443,-1.463 -0.161,0 -0.243,-0.051 -0.18,-0.113 0.062,-0.063 -0.44,-0.625 -1.117,-1.25 -0.676,-0.626 -2.009,-1.947 -2.961,-2.937 l -1.731,-1.8 6.831,-6.895 c 3.757,-3.792 6.606,-6.627 6.331,-6.3 l -0.5,0.595 0.55,-0.485 c 0.303,-0.267 0.55,-0.588 0.55,-0.715 0,-0.127 0.247,-0.448 0.55,-0.715 l 0.55,-0.485 -0.5,0.6 -0.5,0.6 0.55,-0.485 c 0.303,-0.267 0.55,-0.582 0.55,-0.701 0,-0.287 10.686,-10.961 10.83,-10.818 0.061,0.061 0.462,-0.287 0.89,-0.773 0.429,-0.487 0.826,-0.894 0.881,-0.904 0.056,-0.011 2.872,2.753 6.258,6.14 m -13.46,0.991 -5.299,5.35 5.35,-5.299 c 4.972,-4.923 5.44,-5.401 5.299,-5.401 -0.029,0 -2.436,2.408 -5.35,5.35 m 139.299,2.1 -3.198,3.25 3.25,-3.198 c 3.019,-2.97 3.34,-3.302 3.198,-3.302 -0.029,0 -1.492,1.463 -3.25,3.25 m 19.502,1.25 c 1.041,1.045 1.937,1.9 1.992,1.9 0.055,0 -0.751,-0.855 -1.792,-1.9 -1.041,-1.045 -1.937,-1.9 -1.992,-1.9 -0.055,0 0.751,0.855 1.792,1.9 m 4.1,4.1 c 1.096,1.1 2.037,2 2.092,2 0.055,0 -0.796,-0.9 -1.892,-2 -1.096,-1.1 -2.037,-2 -2.092,-2 -0.055,0 0.796,0.9 1.892,2 m -53.213,24.25 -0.587,0.65 0.65,-0.587 c 0.606,-0.548 0.742,-0.713 0.587,-0.713 -0.034,0 -0.327,0.293 -0.65,0.65 M 120,252.95 102.1,270.9 120.05,253 c 9.872,-9.844 17.95,-17.922 17.95,-17.95 0,-0.14 -1.36,1.213 -18,17.9 M 106.1,275 c 2.198,2.2 4.041,4 4.096,4 0.055,0 -1.698,-1.8 -3.896,-4 -2.198,-2.2 -4.041,-4 -4.096,-4 -0.055,0 1.698,1.8 3.896,4"
       stroke="none"
       fill="#445454"
       fill-rule="evenodd" />
    <path
       id="path1"
       d="m 144.15,49.947 c 0.578,0.041 1.522,0.041 2.1,0 0.578,-0.04 0.105,-0.073 -1.05,-0.073 -1.155,0 -1.628,0.033 -1.05,0.073 m 13.3,0.002 c 1.403,0.035 3.698,0.035 5.1,0 1.403,-0.034 0.255,-0.062 -2.55,-0.062 -2.805,0 -3.952,0.028 -2.55,0.062 m 20.4,0 c 1.403,0.035 3.698,0.035 5.1,0 1.403,-0.034 0.255,-0.062 -2.55,-0.062 -2.805,0 -3.953,0.028 -2.55,0.062 m 20.1,0 c 1.238,0.035 3.263,0.035 4.5,0 1.238,-0.035 0.225,-0.063 -2.25,-0.063 -2.475,0 -3.487,0.028 -2.25,0.063 m 21.212,0.001 c 1.685,0.033 4.385,0.033 6,0 1.616,-0.034 0.238,-0.061 -3.062,-0.061 -3.3,0 -4.622,0.027 -2.938,0.061 m 22.088,-0.001 c 1.072,0.036 2.828,0.036 3.9,0 1.072,-0.036 0.195,-0.065 -1.95,-0.065 -2.145,0 -3.022,0.029 -1.95,0.065 m 14.9,-0.002 c 0.578,0.041 1.523,0.041 2.1,0 0.578,-0.04 0.105,-0.073 -1.05,-0.073 -1.155,0 -1.628,0.033 -1.05,0.073 m -148.8,0.194 c 0.247,0.048 0.653,0.048 0.9,0 0.248,-0.048 0.045,-0.087 -0.45,-0.087 -0.495,0 -0.697,0.039 -0.45,0.087 m 5.202,0 c 0.249,0.048 0.609,0.046 0.8,-0.004 0.192,-0.05 -0.012,-0.089 -0.452,-0.087 -0.44,0.003 -0.596,0.044 -0.348,0.091 m 3.602,0.004 c 0.359,0.044 0.899,0.044 1.2,-0.002 0.3,-0.046 0.006,-0.082 -0.654,-0.081 -0.66,0.001 -0.906,0.038 -0.546,0.083 m 4.696,10e-4 c 0.413,0.043 1.088,0.043 1.5,0 0.413,-0.043 0.075,-0.079 -0.75,-0.079 -0.825,0 -1.162,0.036 -0.75,0.079 m 7.5,-10e-4 c 0.358,0.044 0.942,0.044 1.3,0 0.358,-0.045 0.065,-0.081 -0.65,-0.081 -0.715,0 -1.007,0.036 -0.65,0.081 m 5.205,0.002 c 0.471,0.042 1.191,0.041 1.6,-0.002 0.41,-0.043 0.025,-0.077 -0.855,-0.076 -0.88,0 -1.215,0.035 -0.745,0.078 m 133.799,-0.002 c 0.359,0.044 0.899,0.044 1.2,-0.002 0.3,-0.046 0.006,-0.082 -0.654,-0.081 -0.66,0.001 -0.906,0.038 -0.546,0.083 m 4.792,-0.001 c 0.355,0.045 0.985,0.045 1.4,0.002 0.414,-0.043 0.124,-0.079 -0.646,-0.08 -0.77,-0.001 -1.11,0.034 -0.754,0.078 m 7.6,0 c 0.355,0.045 0.985,0.045 1.4,0.002 0.414,-0.043 0.124,-0.079 -0.646,-0.08 -0.77,-0.001 -1.11,0.034 -0.754,0.078 m 5.006,-0.003 c 0.249,0.048 0.609,0.046 0.8,-0.004 0.192,-0.05 -0.012,-0.089 -0.452,-0.087 -0.44,0.003 -0.596,0.044 -0.348,0.091 m 3.301,0.003 c 0.304,0.045 0.754,0.044 1,-0.003 0.246,-0.048 -0.003,-0.085 -0.553,-0.084 -0.55,0.002 -0.751,0.041 -0.447,0.087 m 5.297,-0.003 c 0.248,0.048 0.652,0.048 0.9,0 0.248,-0.048 0.045,-0.087 -0.45,-0.087 -0.495,0 -0.697,0.039 -0.45,0.087 m -190.798,0.2 c 0.249,0.048 0.609,0.046 0.8,-0.004 0.192,-0.05 -0.012,-0.089 -0.452,-0.087 -0.44,0.003 -0.596,0.044 -0.348,0.091 m 195.698,0.002 c 0.303,0.046 0.798,0.046 1.1,0 0.303,-0.046 0.055,-0.083 -0.55,-0.083 -0.605,0 -0.853,0.037 -0.55,0.083 m 10.4,-0.005 c 0.193,0.05 0.508,0.05 0.7,0 0.193,-0.05 0.035,-0.092 -0.35,-0.092 -0.385,0 -0.543,0.042 -0.35,0.092 M 331.8,53.5 c 0.275,0.157 0.59,0.286 0.7,0.286 0.11,0 -0.025,-0.129 -0.3,-0.286 -0.275,-0.157 -0.59,-0.286 -0.7,-0.286 -0.11,0 0.025,0.129 0.3,0.286 m 6,3.877 c 0,0.097 0.248,0.335 0.55,0.529 l 0.55,0.352 -0.485,-0.529 C 337.891,57.157 337.8,57.105 337.8,57.377 M 59.701,59.406 c -1.111,1.105 -1.111,1.342 0,0.367 0.593,-0.522 1.265,-1.39 1.056,-1.367 -0.031,0.004 -0.507,0.454 -1.056,1 M 339.31,58.654 c 0.054,0.14 0.298,0.377 0.544,0.527 0.425,0.259 0.424,0.247 -0.039,-0.255 -0.541,-0.587 -0.648,-0.645 -0.505,-0.272 m 1.49,1.539 c 0,0.106 0.203,0.299 0.45,0.429 0.448,0.235 0.448,0.234 0.069,-0.193 -0.423,-0.477 -0.519,-0.52 -0.519,-0.236 M 50.046,102.4 c 0,0.385 0.042,0.542 0.092,0.35 0.05,-0.192 0.05,-0.507 0,-0.7 -0.05,-0.192 -0.092,-0.035 -0.092,0.35 m 85.454,5.8 c 3.409,3.41 6.288,6.2 6.398,6.2 0.11,0 -2.589,-2.79 -5.998,-6.2 -3.409,-3.41 -6.288,-6.2 -6.398,-6.2 -0.11,0 2.589,2.79 5.998,6.2 m 129.049,-0.049 c -3.382,3.383 -6.149,6.225 -6.149,6.316 0,0.09 0.215,-0.092 0.478,-0.405 0.263,-0.312 3.076,-3.097 6.25,-6.187 l 5.772,-5.62 6.3,6.179 c 3.465,3.398 7.204,7.053 8.309,8.122 1.106,1.069 -1.7,-1.768 -6.235,-6.306 -4.535,-4.537 -8.32,-8.25 -8.411,-8.25 -0.091,0 -2.932,2.768 -6.314,6.151 m -142.241,0.841 c -2.965,2.966 -5.349,5.419 -5.299,5.45 0.05,0.032 2.519,-2.395 5.487,-5.392 2.968,-2.997 5.352,-5.45 5.299,-5.45 -0.054,0 -2.523,2.427 -5.487,5.392 M 50.06,105.6 c 0,0.605 0.037,0.853 0.083,0.55 0.046,-0.303 0.046,-0.797 0,-1.1 -0.046,-0.302 -0.083,-0.055 -0.083,0.55 m 66.141,9.499 c -0.258,0.275 -0.431,0.533 -0.385,0.574 0.046,0.041 0.293,-0.184 0.549,-0.499 0.573,-0.706 0.472,-0.752 -0.164,-0.075 m 37.9,11.714 c 6.709,6.717 12.604,12.558 13.099,12.981 0.495,0.422 -4.905,-5.075 -12,-12.216 -7.095,-7.14 -12.99,-12.982 -13.099,-12.98 -0.11,0.001 5.29,5.498 12,12.215 m 103.5,-11.714 c -0.258,0.275 -0.431,0.533 -0.385,0.574 0.046,0.041 0.293,-0.184 0.549,-0.499 0.573,-0.706 0.472,-0.752 -0.164,-0.075 m -148.832,7.56 -6.731,6.841 1.731,1.8 c 0.952,0.99 2.271,2.291 2.931,2.892 0.66,0.601 -0.082,-0.21 -1.649,-1.802 l -2.85,-2.894 5.913,-5.898 c 5.077,-5.065 7.719,-7.825 7.455,-7.789 -0.038,0.006 -3.098,3.088 -6.8,6.85 m 147.632,-6.36 c -0.258,0.275 -0.431,0.533 -0.385,0.574 0.046,0.041 0.293,-0.184 0.549,-0.499 0.573,-0.706 0.472,-0.752 -0.164,-0.075 m -12.911,12.948 c -6.704,6.736 -11.83,11.928 -11.39,11.54 1.034,-0.914 23.799,-23.787 23.675,-23.787 -0.052,0 -5.58,5.511 -12.285,12.247 M 296.5,127.8 c 0.875,0.88 1.636,1.6 1.691,1.6 0.055,0 -0.616,-0.72 -1.491,-1.6 -0.875,-0.88 -1.636,-1.6 -1.691,-1.6 -0.055,0 0.616,0.72 1.491,1.6 m -19.754,23.158 c -11.74,11.746 -21.346,21.423 -21.346,21.504 0,0.081 3.181,-3.027 7.069,-6.907 11.346,-11.324 35.811,-35.955 35.713,-35.955 -0.049,0 -9.696,9.611 -21.436,21.358 m -102.948,-4.501 c 2.585,2.609 4.736,4.743 4.781,4.743 0.194,0 -5.393,-5.672 -7.779,-7.9 -0.935,-0.872 0.414,0.548 2.998,3.157 m 52.857,-0.207 c -4.627,4.637 -4.348,4.35 -4.237,4.35 0.047,0 1.974,-1.89 4.282,-4.2 2.308,-2.31 4.151,-4.2 4.097,-4.2 -0.055,0 -1.919,1.823 -4.142,4.05 M 49.854,146.6 c 0,0.495 0.039,0.697 0.087,0.45 0.048,-0.247 0.048,-0.652 0,-0.9 -0.048,-0.247 -0.087,-0.045 -0.087,0.45 m 299.996,11.7 c 0.003,0.44 0.044,0.596 0.091,0.348 0.048,-0.249 0.046,-0.609 -0.004,-0.8 -0.05,-0.192 -0.089,0.012 -0.087,0.452 m 0.014,4.7 c 0,0.715 0.036,1.008 0.081,0.65 0.044,-0.357 0.044,-0.942 0,-1.3 -0.045,-0.357 -0.081,-0.065 -0.081,0.65 M 190.8,163.083 c 0,0.211 0.602,0.781 0.711,0.673 0.05,-0.051 -0.089,-0.255 -0.31,-0.455 -0.22,-0.2 -0.401,-0.298 -0.401,-0.218 m 18.196,0.422 c -0.139,0.167 -0.213,0.345 -0.164,0.394 0.049,0.049 0.241,-0.088 0.427,-0.305 0.185,-0.217 0.259,-0.394 0.164,-0.394 -0.096,0 -0.288,0.137 -0.427,0.305 M 49.87,167 c 0,0.935 0.034,1.317 0.076,0.85 0.043,-0.467 0.043,-1.232 0,-1.7 -0.042,-0.467 -0.076,-0.085 -0.076,0.85 m 88.877,-0.7 c 0.452,0.55 1.34,1.495 1.974,2.1 l 1.153,1.1 -1.02,-1.2 c -0.562,-0.66 -1.45,-1.605 -1.974,-2.1 l -0.954,-0.9 0.821,1 m 54.453,-0.83 c 0,0.223 1.447,1.741 1.881,1.973 0.238,0.128 0.119,-0.069 -0.278,-0.46 -0.382,-0.376 -0.899,-0.899 -1.149,-1.162 -0.25,-0.264 -0.454,-0.422 -0.454,-0.351 m 12.237,1.63 c -0.239,0.275 -0.367,0.498 -0.286,0.497 0.221,-0.006 1.122,-0.997 0.906,-0.997 -0.102,0 -0.381,0.225 -0.62,0.5 m 144.413,1 c 0.003,0.44 0.044,0.596 0.091,0.348 0.048,-0.249 0.046,-0.609 -0.004,-0.8 -0.05,-0.192 -0.089,0.012 -0.087,0.452 M 196,168.5 c 0.661,0.682 0.8,0.789 0.8,0.615 0,-0.133 -1.217,-1.315 -1.355,-1.315 -0.068,0 0.182,0.315 0.555,0.7 m 8.5,-0.341 c -0.22,0.191 -0.531,0.525 -0.691,0.744 -0.161,0.218 0.042,0.087 0.45,-0.292 0.666,-0.62 0.842,-0.824 0.691,-0.804 -0.027,0.003 -0.23,0.162 -0.45,0.352 m 145.35,1.741 c 0.003,0.44 0.044,0.596 0.091,0.348 0.048,-0.249 0.046,-0.609 -0.004,-0.8 -0.05,-0.192 -0.089,0.012 -0.087,0.452 M 142,169.55 c 0,0.083 0.473,0.547 1.05,1.033 l 1.05,0.882 -0.992,-1.032 C 142.079,169.362 142,169.299 142,169.55 m -92.146,2.05 c 0,0.495 0.039,0.698 0.087,0.45 0.048,-0.247 0.048,-0.652 0,-0.9 -0.048,-0.247 -0.087,-0.045 -0.087,0.45 m 150.552,0.293 c -0.138,0.166 -0.354,0.245 -0.479,0.175 -0.131,-0.073 -0.121,-0.012 0.024,0.144 0.211,0.227 0.307,0.216 0.589,-0.066 0.185,-0.185 0.287,-0.386 0.227,-0.446 -0.061,-0.06 -0.223,0.027 -0.361,0.193 m -55.606,0.436 c 0,0.108 0.293,0.461 0.65,0.784 l 0.65,0.587 -0.6,-0.699 c -0.33,-0.384 -0.622,-0.737 -0.65,-0.783 -0.028,-0.047 -0.05,0.003 -0.05,0.111 m 105.898,4.708 c -3.137,3.175 -3.784,3.934 -1.387,1.628 1.541,-1.483 4.789,-4.865 4.673,-4.865 -0.049,0 -1.528,1.457 -3.286,3.237 M 149.703,177.2 c 1.648,1.704 3.032,3.144 3.074,3.2 0.042,0.055 -0.019,-0.08 -0.137,-0.3 -0.118,-0.22 -1.501,-1.66 -3.074,-3.2 l -2.86,-2.8 2.997,3.1 m 200.359,4.1 c 10e-4,0.66 0.038,0.906 0.083,0.546 0.044,-0.359 0.044,-0.899 -0.002,-1.2 -0.046,-0.3 -0.082,-0.006 -0.081,0.654 m -300.208,0.9 c 0,0.495 0.039,0.698 0.087,0.45 0.048,-0.247 0.048,-0.652 0,-0.9 -0.048,-0.247 -0.087,-0.045 -0.087,0.45 m -0.004,2.3 c 0.003,0.44 0.044,0.596 0.091,0.348 0.048,-0.249 0.046,-0.609 -0.004,-0.8 -0.05,-0.192 -0.089,0.012 -0.087,0.452 m 300.2,0 c 0.003,0.44 0.044,0.596 0.091,0.348 0.048,-0.249 0.046,-0.609 -0.004,-0.8 -0.05,-0.192 -0.089,0.012 -0.087,0.452 m 0.014,2.3 c 0,0.715 0.036,1.008 0.081,0.65 0.044,-0.357 0.044,-0.942 0,-1.3 -0.045,-0.357 -0.081,-0.065 -0.081,0.65 m -300.202,2.7 c 10e-4,0.66 0.038,0.906 0.083,0.546 0.044,-0.359 0.044,-0.899 -0.002,-1.2 -0.046,-0.3 -0.082,-0.006 -0.081,0.654 m 188.825,-0.25 -0.587,0.65 0.65,-0.587 c 0.606,-0.548 0.742,-0.713 0.587,-0.713 -0.034,0 -0.327,0.293 -0.65,0.65 m -76.487,0.613 c 0,0.034 0.293,0.327 0.65,0.65 l 0.65,0.587 -0.587,-0.65 c -0.548,-0.606 -0.713,-0.742 -0.713,-0.587 m 74.25,1.619 c -0.511,0.539 -0.61,0.899 -0.139,0.509 0.284,-0.235 0.781,-0.996 0.646,-0.988 -0.031,0.002 -0.26,0.218 -0.507,0.479 M 49.854,192.2 c 0,0.495 0.039,0.698 0.087,0.45 0.048,-0.247 0.048,-0.652 0,-0.9 -0.048,-0.247 -0.087,-0.045 -0.087,0.45 m 185.29,0.602 c -0.381,0.446 -0.452,0.688 -0.145,0.499 0.196,-0.122 0.674,-0.901 0.552,-0.901 -0.034,0 -0.217,0.181 -0.407,0.402 m -2.155,2.11 c -0.379,0.392 -0.545,0.658 -0.369,0.591 0.275,-0.106 1.31,-1.303 1.125,-1.303 -0.036,0 -0.377,0.321 -0.756,0.712 m -65.589,0.229 c 0,0.23 0.568,0.764 0.679,0.638 0.038,-0.044 -0.099,-0.252 -0.305,-0.464 -0.206,-0.212 -0.374,-0.29 -0.374,-0.174 m 0.9,0.988 c 1.018,0.903 1.393,1.167 1.001,0.702 -0.218,-0.257 -0.578,-0.561 -0.799,-0.674 -0.221,-0.113 -0.312,-0.126 -0.202,-0.028 m 62.889,0.595 c -0.379,0.398 -0.509,0.615 -0.289,0.481 0.361,-0.22 1.219,-1.205 1.049,-1.205 -0.039,0 -0.381,0.326 -0.76,0.724 m 118.857,4.876 c 0,0.385 0.042,0.543 0.092,0.35 0.05,-0.192 0.05,-0.508 0,-0.7 -0.05,-0.192 -0.092,-0.035 -0.092,0.35 m -181.572,2.508 c -0.565,0.594 -0.88,1.001 -0.7,0.904 0.318,-0.173 1.078,-0.957 1.61,-1.662 0.473,-0.625 0.138,-0.346 -0.91,0.758 m 63.217,0.057 c 0.434,0.459 0.818,0.835 0.851,0.835 0.181,0 -0.476,-0.766 -1.017,-1.185 -0.524,-0.407 -0.497,-0.351 0.166,0.35 m 1.109,0.988 c 0,0.093 0.334,0.479 0.741,0.858 0.408,0.379 0.615,0.509 0.461,0.289 -0.415,-0.591 -1.202,-1.342 -1.202,-1.147 m 117.246,0.647 c 0,0.385 0.042,0.543 0.092,0.35 0.05,-0.193 0.05,-0.507 0,-0.7 -0.05,-0.193 -0.092,-0.035 -0.092,0.35 m -183.25,-0.095 c -0.139,0.167 -0.213,0.345 -0.164,0.394 0.049,0.049 0.241,-0.088 0.427,-0.305 0.185,-0.217 0.259,-0.394 0.164,-0.394 -0.096,0 -0.288,0.137 -0.427,0.305 M 49.854,208.8 c 0,0.495 0.039,0.698 0.087,0.45 0.048,-0.247 0.048,-0.653 0,-0.9 -0.048,-0.247 -0.087,-0.045 -0.087,0.45 m 186.782,0.299 c 0.239,0.274 0.477,0.454 0.531,0.401 0.121,-0.122 -0.568,-0.9 -0.797,-0.9 -0.092,0 0.028,0.224 0.266,0.499 m -75.149,2.151 -0.587,0.65 0.65,-0.587 c 0.606,-0.548 0.742,-0.713 0.587,-0.713 -0.034,0 -0.327,0.293 -0.65,0.65 M 49.846,212.4 c 0,0.385 0.042,0.543 0.092,0.35 0.05,-0.192 0.05,-0.507 0,-0.7 -0.05,-0.193 -0.092,-0.035 -0.092,0.35 m 204.152,14.259 c 2.695,2.718 4.938,4.941 4.987,4.941 0.187,0 -8.409,-8.672 -9.408,-9.491 -0.263,-0.215 1.727,1.833 4.421,4.55 M 147.8,225.048 c -1.595,1.622 -3.507,3.579 -4.25,4.351 -0.742,0.771 0.604,-0.53 2.992,-2.891 2.387,-2.36 4.3,-4.318 4.249,-4.35 -0.05,-0.032 -1.396,1.269 -2.991,2.89 M 49.862,224.9 c 10e-4,0.66 0.038,0.906 0.083,0.546 0.044,-0.359 0.044,-0.899 -0.002,-1.2 -0.046,-0.3 -0.082,-0.006 -0.081,0.654 m 300.216,1.9 c 0,1.485 0.032,2.093 0.07,1.35 0.039,-0.743 0.039,-1.957 0,-2.7 -0.038,-0.743 -0.07,-0.135 -0.07,1.35 M 164.7,263 c -19.47,19.47 -35.31,35.402 -35.2,35.404 0.11,10e-4 16.085,-15.933 35.5,-35.41 19.415,-19.477 35.255,-35.409 35.2,-35.404 -0.055,0.006 -16.03,15.94 -35.5,35.41 m 185.37,-31 c 0,0.935 0.034,1.318 0.076,0.85 0.043,-0.468 0.043,-1.232 0,-1.7 -0.042,-0.467 -0.076,-0.085 -0.076,0.85 m -228.322,18.955 c -10.864,10.86 -19.752,19.835 -19.75,19.946 0.002,0.208 20.96,21.151 24.518,24.501 1.109,1.044 -3.908,-3.999 -11.15,-11.207 -7.241,-7.208 -13.166,-13.198 -13.166,-13.311 0,-0.113 8.528,-8.721 18.95,-19.129 19.996,-19.967 20.584,-20.558 20.441,-20.55 -0.05,0.003 -8.98,8.891 -19.843,19.75 M 261.009,233.6 c 0.678,0.798 37.412,37.509 37.183,37.16 -0.051,-0.076 -8.61,-8.671 -19.021,-19.1 -10.411,-10.428 -18.584,-18.555 -18.162,-18.06 m 89.037,1.6 c 0,0.385 0.042,0.543 0.092,0.35 0.05,-0.193 0.05,-0.507 0,-0.7 -0.05,-0.193 -0.092,-0.035 -0.092,0.35 m 0.032,4.2 c 0,1.485 0.032,2.093 0.07,1.35 0.039,-0.743 0.039,-1.957 0,-2.7 -0.038,-0.742 -0.07,-0.135 -0.07,1.35 M 49.846,238.6 c 0,0.385 0.042,0.543 0.092,0.35 0.05,-0.193 0.05,-0.507 0,-0.7 -0.05,-0.192 -0.092,-0.035 -0.092,0.35 m 0,2.8 c 0,0.385 0.042,0.543 0.092,0.35 0.05,-0.192 0.05,-0.507 0,-0.7 -0.05,-0.193 -0.092,-0.035 -0.092,0.35 m 0,7.4 c 0,0.385 0.042,0.543 0.092,0.35 0.05,-0.193 0.05,-0.507 0,-0.7 -0.05,-0.193 -0.092,-0.035 -0.092,0.35 m 300.004,5.1 c 0.003,0.44 0.044,0.596 0.091,0.348 0.048,-0.249 0.046,-0.609 -0.004,-0.8 -0.05,-0.192 -0.089,0.012 -0.087,0.452 m -0.004,7.7 c 0,0.385 0.042,0.543 0.092,0.35 0.05,-0.193 0.05,-0.507 0,-0.7 -0.05,-0.192 -0.092,-0.035 -0.092,0.35 m -300,0.4 c 0,0.385 0.042,0.543 0.092,0.35 0.05,-0.193 0.05,-0.507 0,-0.7 -0.05,-0.193 -0.092,-0.035 -0.092,0.35 M 291.7,277.4 c -3.519,3.52 -6.308,6.4 -6.198,6.4 0.11,0 3.079,-2.88 6.598,-6.4 3.519,-3.52 6.308,-6.4 6.198,-6.4 -0.11,0 -3.079,2.88 -6.598,6.4 m -14.101,14.137 c -5.181,5.211 -5.793,5.871 -2.699,2.914 5.133,-4.907 9.851,-9.651 9.596,-9.651 -0.109,0 -3.213,3.032 -6.897,6.737 M 50.057,291.1 c 0.002,0.55 0.041,0.751 0.087,0.447 0.045,-0.304 0.044,-0.754 -0.003,-1 -0.048,-0.246 -0.085,0.003 -0.084,0.553 m 299.789,-0.3 c 0,0.385 0.042,0.543 0.092,0.35 0.05,-0.193 0.05,-0.507 0,-0.7 -0.05,-0.193 -0.092,-0.035 -0.092,0.35 M 55.628,335.697 c 0.683,0.999 1.372,1.794 1.371,1.584 0,-0.1 -0.37,-0.586 -0.822,-1.081 -0.451,-0.495 -0.699,-0.721 -0.549,-0.503 m 4.114,4.878 c 0.461,0.444 0.77,0.569 0.559,0.226 -0.068,-0.109 -0.321,-0.3 -0.562,-0.425 l -0.439,-0.225 0.442,0.424 m 275.886,3.632 c -0.62,0.516 -0.34,0.51 0.317,-0.007 0.28,-0.22 0.429,-0.397 0.332,-0.393 -0.097,0.003 -0.389,0.183 -0.649,0.4 m -15.378,5.531 c 0.193,0.05 0.507,0.05 0.7,0 0.193,-0.05 0.035,-0.092 -0.35,-0.092 -0.385,0 -0.542,0.042 -0.35,0.092 m -47,0.211 c 1.293,0.035 3.407,0.035 4.7,0 1.293,-0.034 0.235,-0.063 -2.35,-0.063 -2.585,0 -3.643,0.029 -2.35,0.063 m 17.4,-0.001 c 0.632,0.039 1.668,0.039 2.3,0 0.632,-0.04 0.115,-0.072 -1.15,-0.072 -1.265,0 -1.782,0.032 -1.15,0.072 m 11,-10e-4 c 0.523,0.041 1.378,0.041 1.9,0 0.522,-0.041 0.095,-0.075 -0.95,-0.075 -1.045,0 -1.473,0.034 -0.95,0.075 m 5.302,-0.006 c 0.249,0.048 0.609,0.046 0.8,-0.004 0.192,-0.05 -0.012,-0.089 -0.452,-0.087 -0.44,0.003 -0.596,0.044 -0.348,0.091 m 2.598,0 c 0.248,0.048 0.653,0.048 0.9,0 0.247,-0.048 0.045,-0.087 -0.45,-0.087 -0.495,0 -0.697,0.039 -0.45,0.087 m 4.1,-0.003 c 0.193,0.05 0.508,0.05 0.7,0 0.193,-0.05 0.035,-0.092 -0.35,-0.092 -0.385,0 -0.543,0.042 -0.35,0.092"
       stroke="none"
       fill="#444c54"
       fill-rule="evenodd" />
  </g>
</svg>
