<?xml version="1.0" encoding="UTF-8" standalone="no"?>
<svg
   viewBox="0 0 48 44.996094"
   version="1.1"
   id="svg12"
   sodipodi:docname="Close All Tabs.svg"
   width="48"
   height="44.996094"
   inkscape:version="1.2.1 (9c6d41e410, 2022-07-14)"
   xmlns:inkscape="http://www.inkscape.org/namespaces/inkscape"
   xmlns:sodipodi="http://sodipodi.sourceforge.net/DTD/sodipodi-0.dtd"
   xmlns="http://www.w3.org/2000/svg"
   xmlns:svg="http://www.w3.org/2000/svg">
  <defs
     id="defs16" />
  <sodipodi:namedview
     id="namedview14"
     pagecolor="#ffffff"
     bordercolor="#000000"
     borderopacity="0.25"
     inkscape:showpageshadow="2"
     inkscape:pageopacity="0.0"
     inkscape:pagecheckerboard="0"
     inkscape:deskcolor="#d1d1d1"
     showgrid="false"
     inkscape:zoom="16.74"
     inkscape:cx="23.9546"
     inkscape:cy="22.461171"
     inkscape:window-width="1920"
     inkscape:window-height="1017"
     inkscape:window-x="-8"
     inkscape:window-y="-8"
     inkscape:window-maximized="1"
     inkscape:current-layer="svg12" />
  <path
     d="m 3.5,0.5 c -1.654,0 -3,1.3460001 -3,3 V 9.4960938 H 0.511719 V 35.496094 c 0,1.103 0.8969999,2 2,2 h 25.453125 c 1.282338,4.045551 5.07966,7 9.535156,7 5.5,0 10,-4.5 10,-10 0,-2.780173 -1.152414,-5.302059 -3,-7.119141 V 9.4960938 c 0,-1.103 -0.897,-2 -2,-2 h -31 V 3.5 c 0,-1.6539999 -1.346,-3 -3,-3 z m 13,0 c -1.654,0 -3,1.3460001 -3,3 v 1.9960938 h 11 V 3.5 c 0,-1.6539999 -1.346,-3 -3,-3 z m 13,0 c -1.654,0 -3,1.3460001 -3,3 v 1.9960938 h 11 V 3.5 c 0,-1.6539999 -1.346,-3 -3,-3 z m 8,25.996094 c 4.4,0 8,3.6 8,8 0,4.4 -3.6,8 -8,8 -4.4,0 -8,-3.6 -8,-8 0,-4.4 3.6,-8 8,-8 z m -3.5,3.5 c -0.25,0 -0.499219,0.100781 -0.699219,0.300781 -0.4,0.4 -0.4,0.998438 0,1.398438 l 2.798828,2.800781 -2.798828,2.800781 c -0.4,0.4 -0.4,0.998438 0,1.398438 0.2,0.2 0.499219,0.300781 0.699219,0.300781 0.2,0 0.499219,-0.100781 0.699219,-0.300781 L 37.5,35.896485 l 2.800781,2.798828 c 0.2,0.2 0.499219,0.300781 0.699219,0.300781 0.2,0 0.499219,-0.100781 0.699219,-0.300781 0.4,-0.4 0.4,-0.998438 0,-1.398438 l -2.798828,-2.800781 2.798828,-2.800781 c 0.4,-0.4 0.4,-0.998438 0,-1.398438 -0.4,-0.4 -0.998438,-0.4 -1.398438,0 L 37.5,33.095703 34.699219,30.296875 C 34.499219,30.096875 34.25,29.996094 34,29.996094 Z"
     id="path10"
     style="fill:#2e3436;fill-opacity:1;stroke:#2e3436;stroke-opacity:1" />
</svg>
