<?xml version="1.0" encoding="UTF-8" standalone="no"?>
<svg
   viewBox="0 0 40 40"
   width="40"
   height="40"
   version="1.1"
   id="svg42"
   sodipodi:docname="close.svg"
   inkscape:version="1.2.1 (9c6d41e410, 2022-07-14)"
   xmlns:inkscape="http://www.inkscape.org/namespaces/inkscape"
   xmlns:sodipodi="http://sodipodi.sourceforge.net/DTD/sodipodi-0.dtd"
   xmlns="http://www.w3.org/2000/svg"
   xmlns:svg="http://www.w3.org/2000/svg">
  <defs
     id="defs46" />
  <sodipodi:namedview
     id="namedview44"
     pagecolor="#ffffff"
     bordercolor="#000000"
     borderopacity="0.25"
     inkscape:showpageshadow="2"
     inkscape:pageopacity="0.0"
     inkscape:pagecheckerboard="0"
     inkscape:deskcolor="#d1d1d1"
     showgrid="false"
     inkscape:zoom="17.4375"
     inkscape:cx="13.90681"
     inkscape:cy="20.014337"
     inkscape:window-width="1920"
     inkscape:window-height="1017"
     inkscape:window-x="-8"
     inkscape:window-y="-8"
     inkscape:window-maximized="1"
     inkscape:current-layer="svg42" />
  <linearGradient
     id="wRKXFJsqHCxLE9yyOYHkza"
     x1="9.8579998"
     x2="38.141998"
     y1="9.8579998"
     y2="38.141998"
     gradientUnits="userSpaceOnUse"
     gradientTransform="translate(-4,-4)">
    <stop
       offset="0"
       stop-color="#f44f5a"
       id="stop25" />
    <stop
       offset=".443"
       stop-color="#ee3d4a"
       id="stop27" />
    <stop
       offset="1"
       stop-color="#e52030"
       id="stop29" />
  </linearGradient>
  <path
     fill="url(#wRKXFJsqHCxLE9yyOYHkza)"
     d="M 40,20 C 40,31.045 31.045,40 20,40 8.955,40 0,31.045 0,20 0,8.955 8.955,0 20,0 31.045,0 40,8.955 40,20 Z"
     id="path32"
     style="fill:url(#wRKXFJsqHCxLE9yyOYHkza)" />
  <path
     d="M 29.192,24.95 24.243,20 l 4.95,-4.95 c 0.781,-0.781 0.781,-2.047 0,-2.828 l -1.414,-1.414 c -0.781,-0.781 -2.047,-0.781 -2.828,0 L 20,15.757 15.05,10.807 c -0.781,-0.781 -2.047,-0.781 -2.828,0 l -1.414,1.414 c -0.781,0.781 -0.781,2.047 0,2.828 l 4.95,4.95 -4.95,4.95 c -0.781,0.781 -0.781,2.047 0,2.828 l 1.414,1.414 c 0.781,0.781 2.047,0.781 2.828,0 l 4.95,-4.95 4.95,4.95 c 0.781,0.781 2.047,0.781 2.828,0 l 1.414,-1.414 c 0.781,-0.78 0.781,-2.046 0,-2.827 z"
     opacity="0.05"
     id="path34" />
  <path
     d="M 28.839,25.303 23.536,20 28.839,14.697 c 0.586,-0.586 0.586,-1.536 0,-2.121 l -1.414,-1.414 c -0.586,-0.586 -1.536,-0.586 -2.121,0 L 20,16.464 14.697,11.161 c -0.586,-0.586 -1.536,-0.586 -2.121,0 l -1.414,1.414 c -0.586,0.586 -0.586,1.536 0,2.121 L 16.464,20 11.161,25.303 c -0.586,0.586 -0.586,1.536 0,2.121 l 1.414,1.414 c 0.586,0.586 1.536,0.586 2.121,0 L 20,23.536 l 5.303,5.303 c 0.586,0.586 1.536,0.586 2.121,0 l 1.414,-1.414 c 0.587,-0.586 0.587,-1.536 10e-4,-2.122 z"
     opacity="0.07"
     id="path36" />
  <path
     fill="#ffffff"
     d="m 27.071,11.515 1.414,1.414 c 0.391,0.391 0.391,1.024 0,1.414 L 14.343,28.485 c -0.391,0.391 -1.024,0.391 -1.414,0 l -1.414,-1.414 c -0.391,-0.391 -0.391,-1.024 0,-1.414 L 25.657,11.515 c 0.39,-0.391 1.024,-0.391 1.414,0 z"
     id="path38" />
  <path
     fill="#ffffff"
     d="m 28.485,27.071 -1.414,1.414 c -0.391,0.391 -1.024,0.391 -1.414,0 L 11.515,14.343 c -0.391,-0.391 -0.391,-1.024 0,-1.414 l 1.414,-1.414 c 0.391,-0.391 1.024,-0.391 1.414,0 l 14.142,14.142 c 0.391,0.39 0.391,1.024 0,1.414 z"
     id="path40" />
</svg>
