<?xml version="1.0" encoding="UTF-8" standalone="no"?>
<svg
   viewBox="0 0 40 40"
   width="40"
   height="40"
   version="1.1"
   id="svg42"
   sodipodi:docname="database-detach.svg"
   inkscape:version="1.2.1 (9c6d41e410, 2022-07-14)"
   xmlns:inkscape="http://www.inkscape.org/namespaces/inkscape"
   xmlns:sodipodi="http://sodipodi.sourceforge.net/DTD/sodipodi-0.dtd"
   xmlns="http://www.w3.org/2000/svg"
   xmlns:svg="http://www.w3.org/2000/svg">
  <defs
     id="defs46">
    <marker
       style="overflow:visible"
       id="Arrow4"
       refX="0"
       refY="0"
       orient="0.00"
       inkscape:stockid="Arrow4"
       markerWidth="5"
       markerHeight="6"
       viewBox="0 0 5 6"
       inkscape:isstock="true"
       inkscape:collect="always"
       preserveAspectRatio="xMidYMid">
      <path
         style="fill:context-stroke;fill-rule:evenodd;stroke:none"
         d="m 1,0 -3,3 h -2 l 3,-3 -3,-3 h 2 z"
         id="path1741" />
    </marker>
  </defs>
  <sodipodi:namedview
     id="namedview44"
     pagecolor="#ffffff"
     bordercolor="#000000"
     borderopacity="0.25"
     inkscape:showpageshadow="2"
     inkscape:pageopacity="0.0"
     inkscape:pagecheckerboard="0"
     inkscape:deskcolor="#d1d1d1"
     showgrid="false"
     inkscape:zoom="7.9999996"
     inkscape:cx="30.937501"
     inkscape:cy="42.062502"
     inkscape:window-width="1350"
     inkscape:window-height="1040"
     inkscape:window-x="539"
     inkscape:window-y="185"
     inkscape:window-maximized="0"
     inkscape:current-layer="svg42" />
  <linearGradient
     id="wRKXFJsqHCxLE9yyOYHkza"
     x1="9.8579998"
     x2="38.141998"
     y1="9.8579998"
     y2="38.141998"
     gradientUnits="userSpaceOnUse"
     gradientTransform="translate(-4,-4)">
    <stop
       offset="0"
       stop-color="#f44f5a"
       id="stop25" />
    <stop
       offset=".443"
       stop-color="#ee3d4a"
       id="stop27" />
    <stop
       offset="1"
       stop-color="#e52030"
       id="stop29" />
  </linearGradient>
  <path
     style="fill:none;fill-opacity:0.53;stroke-width:1;stroke-linejoin:round;stroke-dasharray:8, 1;stroke:#2e3436;stroke-opacity:1;stroke-dashoffset:0"
     d="M 0,21.333333 H 40"
     id="path348" />
  <path
     style="fill:none;fill-opacity:0.53;stroke:#2e3436;stroke-width:1;stroke-linejoin:round;stroke-dasharray:none;stroke-opacity:1"
     d="M 3.75e-8,25.375 H 40"
     id="path348-2" />
  <path
     style="fill:none;fill-opacity:0.53;stroke:#2e3436;stroke-width:1;stroke-linejoin:round;stroke-dasharray:none;stroke-opacity:1"
     d="M 1.8749999e-8,29.416667 H 40"
     id="path348-4" />
  <path
     style="fill:none;fill-opacity:0.53;stroke:#2e3436;stroke-width:1;stroke-linejoin:round;stroke-dasharray:none;stroke-opacity:1"
     d="M 0,39.5 H 40"
     id="path348-42" />
  <path
     style="fill:none;fill-opacity:0.53;stroke:#2e3436;stroke-width:3;stroke-linejoin:round;stroke-dasharray:none;stroke-opacity:1"
     d="M 0,34.458333 H 40"
     id="path348-42-1" />
  <path
     style="fill:#ff8080;fill-opacity:0.53;stroke:#2e3436;stroke-width:1.32437;stroke-linejoin:round;stroke-dasharray:none;stroke-dashoffset:0;stroke-opacity:1"
     d="m 22.408117,1.4339004 c 0,0 -4.480535,-3.2540688 -6.249165,3.6027189 -1.768632,6.8567877 3.655172,11.1568077 5.541712,10.3432887 1.886541,-0.813516 4.480534,2.55677 8.843159,4.067588 4.362624,1.510817 6.956618,1.278382 8.607341,-6.973004 C 40.801887,4.2231021 31.133366,-0.19313404 29.482643,3.4095849 27.831921,7.0123039 22.761844,2.3636342 22.408117,1.4339004 Z"
     id="path1104" />
  <path
     style="fill:none;fill-opacity:0.53;stroke:#2e3436;stroke-width:1;stroke-linejoin:round;stroke-dasharray:none;stroke-dashoffset:0;stroke-opacity:1;marker-end:url(#Arrow4)"
     d="M 5.1265242,34.458333 V 9.9878833 H 13.700194 V 9.8111066"
     id="path2002" />
  <g
     style="font-style:normal;font-variant:normal;font-weight:400;font-size:3.89819px;line-height:125%;font-family:'Segoe UI Symbol';text-align:start;letter-spacing:0px;word-spacing:0px;text-anchor:start;fill:#ff0000;fill-opacity:1;stroke:none"
     id="text3450"
     transform="matrix(2.7150975,0,0,2.6764446,-217.2078,-2748.9937)">
    <path
       d="m 83.683109,1032.3794 q 0,0.013 -0.0552,0.046 -0.0533,0.032 -0.154177,0.095 -0.09898,0.063 -0.241734,0.1637 -0.142756,0.1009 -0.321677,0.2513 -0.177017,0.1484 -0.386393,0.354 -0.207472,0.2037 -0.439689,0.4739 0.01142,0.015 0.03617,0.048 0.02665,0.031 0.0552,0.067 0.03045,0.034 0.0571,0.067 0.02665,0.03 0.03807,0.046 0.186534,0.2399 0.333097,0.474 0.146563,0.2341 0.255058,0.4492 0.110398,0.2151 0.186535,0.4054 0.07614,0.1885 0.121818,0.3388 0.04759,0.1504 0.06852,0.2551 0.02094,0.1066 0.02094,0.1523 0,0.03 -0.0076,0.032 h -0.0019 q -0.01332,0 -0.05139,-0.067 -0.03807,-0.067 -0.110398,-0.1903 -0.07043,-0.1218 -0.182728,-0.2932 -0.110398,-0.1732 -0.270285,-0.3844 -0.159887,-0.2132 -0.37307,-0.4569 -0.213182,-0.2455 -0.491081,-0.512 l -0.01523,0.017 q -0.01523,0.017 -0.03807,0.046 -0.02284,0.029 -0.05139,0.065 -0.02855,0.034 -0.05329,0.071 -0.197956,0.2779 -0.336905,0.5101 -0.137046,0.2303 -0.226506,0.4035 -0.08756,0.1732 -0.133239,0.2817 -0.04568,0.1066 -0.06281,0.1371 -0.01903,0.034 -0.05901,0.034 -0.01903,0 -0.03807,-0.01 -0.0095,-0.01 -0.03807,-0.025 -0.02855,-0.019 -0.06852,-0.046 -0.03997,-0.029 -0.08756,-0.059 -0.04568,-0.032 -0.09136,-0.061 -0.04378,-0.031 -0.08185,-0.055 -0.03807,-0.025 -0.06091,-0.038 -0.01713,-0.01 -0.02855,-0.023 -0.01142,-0.015 -0.01142,-0.032 0,-0.01 0.0076,-0.029 0.03616,-0.08 0.119915,-0.2246 0.08565,-0.1446 0.220797,-0.3407 0.135142,-0.196 0.325484,-0.4359 0.190341,-0.2417 0.439689,-0.512 -0.255058,-0.2189 -0.475854,-0.3864 -0.218893,-0.1675 -0.394007,-0.2893 -0.173211,-0.1237 -0.298836,-0.2017 -0.123722,-0.08 -0.192245,-0.1219 -0.01713,-0.01 -0.02855,-0.019 Q 80,1032.84 80,1032.8248 q 0,-0.017 0.01713,-0.038 0.0076,-0.013 0.04187,-0.059 0.03616,-0.046 0.08375,-0.1047 0.04949,-0.059 0.102785,-0.1218 0.0552,-0.063 0.104688,-0.1085 0.01523,-0.011 0.02665,-0.021 0.01142,-0.01 0.03236,-0.01 0.01713,0 0.03045,0.01 0.04188,0.023 0.169404,0.1085 0.127529,0.084 0.308353,0.2227 0.182728,0.139 0.399718,0.3293 0.218892,0.1904 0.441592,0.4226 0.180824,-0.1808 0.38449,-0.3312 0.203665,-0.1523 0.405427,-0.2722 0.201762,-0.1199 0.388297,-0.2094 0.188438,-0.089 0.340711,-0.1484 0.152274,-0.059 0.255058,-0.088 0.104688,-0.03 0.137046,-0.03 0.01142,0 0.01332,0 v 0 z"
       style="font-style:normal;font-variant:normal;font-weight:400;font-size:3.89819px;font-family:'Segoe UI Symbol';fill:#ff0000"
       id="path3468"
       inkscape:connector-curvature="0" />
  </g>
</svg>
