<?xml version="1.0" encoding="UTF-8" standalone="no"?>
<!-- Svg Vector Icons : http://www.onlinewebfonts.com/icon -->

<svg
   version="1.1"
   x="0px"
   y="0px"
   viewBox="0 0 124.20152 123.90492"
   enable-background="new 0 0 256 256"
   xml:space="preserve"
   id="svg36"
   sodipodi:docname="deselect-all.svg"
   width="124.20152"
   height="123.90492"
   inkscape:version="1.2.1 (9c6d41e410, 2022-07-14)"
   xmlns:inkscape="http://www.inkscape.org/namespaces/inkscape"
   xmlns:sodipodi="http://sodipodi.sourceforge.net/DTD/sodipodi-0.dtd"
   xmlns="http://www.w3.org/2000/svg"
   xmlns:svg="http://www.w3.org/2000/svg"><defs
   id="defs40" /><sodipodi:namedview
   id="namedview38"
   pagecolor="#ffffff"
   bordercolor="#000000"
   borderopacity="0.25"
   inkscape:showpageshadow="2"
   inkscape:pageopacity="0.0"
   inkscape:pagecheckerboard="0"
   inkscape:deskcolor="#d1d1d1"
   showgrid="false"
   inkscape:zoom="0.81738281"
   inkscape:cx="161.49104"
   inkscape:cy="188.40621"
   inkscape:window-width="1920"
   inkscape:window-height="1017"
   inkscape:window-x="-8"
   inkscape:window-y="-8"
   inkscape:window-maximized="1"
   inkscape:current-layer="g30" />
<metadata
   id="metadata22"> Svg Vector Icons : http://www.onlinewebfonts.com/icon </metadata>
<g
   id="g30"
   transform="translate(-64.799243,-66.097796)"><path
     fill="#000000"
     d="m 65.6,67.3 c -0.6,0.9 -0.8,2.8 -0.8,10.7 0,12.1 -0.2,11.8 5.9,11.8 h 4.4 v 4.9 4.9 h -4.4 c -6.1,0 -5.9,-0.4 -5.9,11.8 0,12.1 -0.2,11.8 5.9,11.8 h 4.4 v 4.9 4.9 h -4.4 c -6.1,0 -5.9,-0.4 -5.9,11.8 0,12.2 -0.2,11.8 5.9,11.8 h 4.4 v 4.9 4.9 h -4.4 c -6.1,0 -5.9,-0.4 -5.9,11.8 0,7.9 0.1,9.7 0.8,10.7 0.7,1.1 1,1.1 10.9,1.1 12.2,0 11.8,0.2 11.8,-5.5 v -3.8 h 5.1 5.1 v 3.9 c 0,5.7 -0.5,5.4 11.6,5.4 12.2,0 11.9,0.1 11.9,-5.6 v -3.7 h 4.9 4.9 v 3.7 c 0,5.7 -0.2,5.6 11.9,5.6 12,0 11.6,0.2 11.6,-5.5 v -3.8 h 5.1 5.1 v 3.8 c 0,5.7 -0.4,5.5 11.9,5.5 9.8,0 10.1,0 10.8,-1.1 0.6,-0.9 0.8,-2.8 0.8,-10.7 0,-12.1 0.2,-11.8 -5.9,-11.8 h -4.4 v -4.9 -4.9 h 4.4 c 6.1,0 5.9,0.4 5.9,-11.8 0,-12.2 0.2,-11.8 -5.9,-11.8 h -4.4 v -5 -4.9 h 4.4 c 6.1,0 5.9,0.4 5.9,-11.8 0,-12.1 0.2,-11.8 -5.9,-11.8 h -4.4 v -4.9 -4.9 h 4.4 c 6.1,0 5.9,0.4 5.9,-11.8 0,-7.9 -0.1,-9.7 -0.8,-10.7 -0.7,-1.1 -1,-1.1 -10.9,-1.1 -12.3,0 -11.8,-0.3 -11.8,6.1 v 4.3 l -5,-0.1 -5,-0.1 -0.2,-4.6 c -0.2,-3.3 -0.4,-4.7 -1,-5 -0.4,-0.2 -5.2,-0.5 -10.6,-0.5 -12.2,0 -11.9,-0.2 -11.9,6.1 v 4.2 h -4.8 -4.9 v -4.2 c 0,-6.3 0.3,-6.1 -11.9,-6.1 -5.5,0 -10.3,0.2 -10.7,0.5 -0.5,0.3 -0.8,1.7 -1,5 l -0.2,4.6 -5,0.1 -5,0.1 v -4.4 c 0,-6.2 0.5,-6 -11.9,-6 -9.8,0.2 -10.1,0.2 -10.8,1.2 z M 84.9,78 v 8.3 H 76.6 68.3 V 78 69.7 h 8.3 8.3 z m 33.8,0 v 8.3 H 110.4 102 V 78 69.7 h 8.3 8.3 V 78 Z m 33.3,0 v 8.3 h -8.3 -8.3 V 78 69.7 h 8.3 8.3 z m 33.8,0 v 8.3 h -8.3 -8.3 V 78 69.7 h 8.3 8.3 z m -87.3,5.9 c 0.2,6.1 -0.3,5.9 11.7,5.9 12.2,0 11.9,0.2 11.9,-6.1 v -4.2 h 4.9 4.9 v 4.2 c 0,6.3 -0.3,6.1 11.9,6.1 12,0 11.5,0.2 11.7,-5.9 l 0.1,-4.2 5,-0.1 5,-0.1 v 4.3 c 0,5.7 0.3,6.1 5.7,6.1 h 4.1 v 4.9 4.9 h -4 c -6,0 -5.8,-0.4 -5.8,11.7 0,12.3 -0.2,11.9 5.7,11.9 h 4.1 v 4.9 4.9 h -4 c -6,0 -5.8,-0.4 -5.8,11.7 0,12.3 -0.2,11.9 5.7,11.9 h 4.1 v 4.9 4.9 h -4 c -5.5,0 -5.8,0.3 -5.8,6.2 v 4.6 h -5.1 -5.1 v -4.5 c 0,-6.6 0.5,-6.3 -11.6,-6.3 -12.3,0 -11.9,-0.2 -11.9,6.4 v 4.4 h -4.9 -4.9 v -4.4 c 0,-6.6 0.4,-6.4 -11.9,-6.4 -8.5,0 -10.1,0.1 -10.8,0.8 -0.6,0.6 -0.8,1.8 -0.8,5.4 v 4.6 h -5.1 -5.1 v -4.5 c 0,-6 -0.2,-6.3 -5.7,-6.3 h -4.1 v -4.9 -4.9 h 4 c 6,0 5.8,0.4 5.8,-11.7 0,-12.3 0.2,-11.9 -5.7,-11.9 h -4.1 v -5.1 -4.9 h 4 c 6,0 5.8,0.4 5.8,-11.7 0,-12.3 0.2,-11.9 -5.7,-11.9 h -4.1 v -4.9 -4.9 h 4 c 5.5,0 5.8,-0.3 5.8,-6 v -4.4 l 5,0.1 5,0.1 z m -13.6,27.4 v 8.3 h -8.3 -8.3 v -8.3 -8.3 h 8.3 8.3 z m 100.9,0 v 8.3 h -8.3 -8.3 v -8.3 -8.3 h 8.3 8.3 z M 84.9,144.6 v 8.3 h -8.3 -8.3 v -8.3 -8.3 h 8.3 8.3 z m 100.9,0 v 8.3 h -8.3 -8.3 v -8.3 -8.3 h 8.3 8.3 z M 84.9,177.9 v 8.3 h -8.3 -8.3 v -8.3 -8.3 h 8.3 8.3 z m 33.8,0 v 8.3 h -8.3 -8.4 v -8.3 -8.3 h 8.3 8.3 v 8.3 z m 33.3,0 v 8.3 h -8.3 -8.3 v -8.3 -8.3 h 8.3 8.3 z m 33.8,0 v 8.3 h -8.3 -8.3 v -8.3 -8.3 h 8.3 8.3 z"
     id="path26" /><g
     id="g293"
     transform="matrix(1.32,0,0,1.32,-40.310429,-40.479021)"><path
       style="fill:#f44336;fill-opacity:1;stroke-width:0.185605"
       d="m 125.97102,100.08259 c 14.58854,0 26.41342,11.82488 26.41342,26.41528 0,14.58854 -11.82488,26.41342 -26.41342,26.41342 -14.58854,0 -26.415279,-11.82488 -26.415279,-26.41342 0,-14.5904 11.826739,-26.41528 26.415279,-26.41528 z"
       id="path1593" /><path
       style="fill:#ffffff;stroke:#000000;stroke-width:0.185605;stroke-opacity:1"
       d="m 113.78583,121.01705 c -1.01341,-0.99855 -1.8245,-1.62219 -0.55868,-2.85275 l 4.08888,-3.98864 c 1.29552,-1.31037 2.05279,-1.24356 3.25922,-0.007 l 5.50875,5.50875 5.47534,-5.47535 c 0.99856,-1.0134 1.62219,-1.82264 2.85275,-0.55867 l 3.98864,4.08702 c 1.31038,1.29552 1.24356,2.0565 0.007,3.26107 l -5.50318,5.5069 5.50318,5.50319 c 1.23613,1.20643 1.30295,1.96741 -0.007,3.26292 l -3.98864,4.08517 c -1.23056,1.26583 -1.85419,0.45473 -2.85275,-0.55867 l -5.47534,-5.47534 -5.50875,5.50875 c -1.20643,1.23798 -1.9637,1.30295 -3.25922,-0.007 l -4.08888,-3.98865 c -1.26582,-1.23055 -0.45473,-1.85605 0.55868,-2.85274 l 5.47905,-5.4772 z"
       id="path6256" /></g></g>
</svg>
