<svg id="Layer_1" data-name="Layer 1" xmlns="http://www.w3.org/2000/svg" viewBox="0 0 512 512"><title>globe-curved-arrow-down-glyph</title><path id="_36" data-name="36" d="M327.38,452.84a296.2,296.2,0,0,1-37.52,36.4c-6,.55-12.4.89-19.34.89-1.75,0-3.56-.05-5.39-.11a283.41,283.41,0,0,0,66.69-65.18ZM264,353.29a256.23,256.23,0,0,1,76.63,15.85l-2.33,14.67a240.52,240.52,0,0,0-74.4-16.49L263.38,490c-4.55-.15-9.35-.49-14.28-1l.32-121.73c-33,.84-62.94,7.36-90.69,20.27a269.77,269.77,0,0,0,85.88,101,218.56,218.56,0,0,1-30.48-5.89,300.61,300.61,0,0,1-68.62-88.94c-13.43,7.47-27.29,16-39.87,26.51-2.56-2.4-5.16-4.76-7.73-7.35-.8-.8-1.47-1.69-2.25-2.51C109.38,399,123.88,388.69,140,380.6c-13.47-32-21.71-66.44-22.32-103.4l-8-.27-69,.16c-.2-4.69-.3-9.36-.2-14.05l77-.11C118,228.2,126.32,188.1,141,155c-17.18-8.53-33.25-19.8-48.25-32.75,1.86-2.25,3.56-4.6,5.52-6.78l3.68-3.87A206.29,206.29,0,0,0,147.2,142c15.86-32.35,42-64.69,71.85-90.22a191.87,191.87,0,0,1,23.4-1.56c.5,0,1,.05,1.46.05-35,25.75-65.4,60.64-83.92,98.22,28.67,11.95,55.67,19,89.77,19.75l.5-117.65c4.78.2,9.5.45,14.2,1l-.2,116.16c32.33-1,61-9,88-22.16C334.57,111,304.07,76,270.76,52.46a189.34,189.34,0,0,1,32.8,7.8c25.16,22.87,47.49,50.89,61.4,79a212,212,0,0,0,26.94-17.11c3,3.73,5.82,7.53,8.47,11.42a224.31,224.31,0,0,1-28.75,18.24c14.9,34.71,23.9,70.8,25.2,111.09l35.7-.09c-.5,4.71-1.2,9.4-2.07,14.05l-33.73.07a249.08,249.08,0,0,1-5.55,47.42l-5.65-5.65a25.8,25.8,0,0,0-6.72-4.84,222.81,222.81,0,0,0,3.52-36.78l-3.22-.25-114.78.29Zm.2-170.13.18,79.64.23.25,117.77-.27c-1-37.6-9.18-72.27-24-104.18a239.26,239.26,0,0,1-94.18,23.47ZM249.82,277l-25.46-.09-92.3.15-.24,5.53c1.31,30.53,9,63.05,20.84,91.65a259,259,0,0,1,92.81-21,23.7,23.7,0,0,0,4.25-.55Zm.21-94.44c-33.41-.26-66.55-8.6-96.21-21.11-13.76,31.45-21.2,65-22.15,101.53l118,0ZM457.87,415.13C536.42,314.59,529.5,169,437,76.44,336.88-23.65,174.6-23.65,74.52,76.44c-99.36,99.36-99.36,260.45,0,359.8,5.54,5.55,11.31,10.65,17.2,15.56a254.36,254.36,0,0,0,235.15,48.33c-28.92,7.67-103.45,19.66-184.3-30A302.42,302.42,0,0,1,93.1,431.93c-2.43-2.29-4.84-4.58-7.27-7-1.11-1.11-2-2.33-3.07-3.47-37.95-39.67-57-91.36-58.84-144.33-.15-4.69-.26-9.38-.15-14.07a251.84,251.84,0,0,1,16.54-83.64c11.78-30.91,29.5-59.76,53.25-83.93l.05.05c.45-.45.85-.89,1.29-1.35C152.59,36.53,235.58,19.88,308,43.86A207.46,207.46,0,0,1,390,94.21a205.39,205.39,0,0,1,15.14,17.09c3,3.76,6,7.56,8.7,11.49a208.22,208.22,0,0,1,36.1,140c-.47,4.71-1.22,9.38-2,14.05a207.53,207.53,0,0,1-38.47,89.93l-22.95-23-11.68-11.65-1.35-1.38c-4.5-4.49-9-2.69-10.1,4l-6.5,41-7.7,48.49-7.9,49.87a9.16,9.16,0,0,0,1,5.93c1.6,3.11,4.85,5,9.17,4.29l20.28-3.22L490.9,462.22c6.64-1.05,8.42-5.6,3.95-10.09ZM327.36,500a2.54,2.54,0,0,0-.25.07l.25-.05c3.56-1,6.36-1.84,8.42-2.53,2.47-.84,3.87-1.36,3.87-1.36-1.33.47-2.67.84-4,1.27C332.85,498.27,330.1,499.18,327.36,500Z" fill="#231f20"/></svg>