<?xml version="1.0" encoding="UTF-8" standalone="no"?>
<svg
   id="Layer_1"
   data-name="Layer 1"
   viewBox="0 0 512 512"
   version="1.1"
   sodipodi:docname="earth3.svg"
   inkscape:version="1.2.1 (9c6d41e410, 2022-07-14)"
   xmlns:inkscape="http://www.inkscape.org/namespaces/inkscape"
   xmlns:sodipodi="http://sodipodi.sourceforge.net/DTD/sodipodi-0.dtd"
   xmlns="http://www.w3.org/2000/svg"
   xmlns:svg="http://www.w3.org/2000/svg">
  <defs
     id="defs7099" />
  <sodipodi:namedview
     id="namedview7097"
     pagecolor="#ffffff"
     bordercolor="#000000"
     borderopacity="0.25"
     inkscape:showpageshadow="2"
     inkscape:pageopacity="0.0"
     inkscape:pagecheckerboard="0"
     inkscape:deskcolor="#d1d1d1"
     showgrid="false"
     inkscape:zoom="1.6347656"
     inkscape:cx="190.85305"
     inkscape:cy="256.30585"
     inkscape:window-width="1920"
     inkscape:window-height="1017"
     inkscape:window-x="-8"
     inkscape:window-y="-8"
     inkscape:window-maximized="1"
     inkscape:current-layer="Layer_1" />
  <title
     id="title7093">filled-globe-wireframe-glyph</title>
  <path
     id="_8"
     data-name="8"
     d="M214.35,45.86c3.42-.33,5.46-.8,8.91-1.13-15.86,28.42-23.4,60.89-29.23,93l-38.71.15C166.48,103.73,183.26,69.63,214.35,45.86Zm-29.69,204-48.11-.58c.93-34.18,5.17-67.42,14.6-98.95l41.06.6C187.35,183.86,185.77,216.79,184.66,249.86Zm6.57,109.83-41.06.15a368.62,368.62,0,0,1-13.57-97.4l48.57.13C185.64,298.57,186.68,325.68,191.24,359.68Zm-67.4-110.36-45.13.2C78.26,216,86,186.32,96.66,157l3.74-6.9,36.82.29C129.2,181.93,124.17,215.63,123.84,249.32Zm12.38,109.8c-11.58.83-24.6.26-38.22.47a258.94,258.94,0,0,1-19.69-97.7l45.6.6C124.68,296.17,127.62,327.35,136.22,359.12ZM180.06,54.61l7.2-2.2c-2.18,3.62-6.71,8.48-10.14,12.72a257.92,257.92,0,0,0-35.75,72.39L106,137.37C121.66,104.86,147.86,73.72,180.06,54.61Zm-48.8,22.78A260.94,260.94,0,0,0,91.4,137l-24.14.09C82.22,113.5,107.82,92.22,131.26,77.39ZM53.88,157.17l4.35-7.52,27.12.49a288.56,288.56,0,0,0-19.8,99.12L29,249.41C29.37,215.88,38.8,185.12,53.88,157.17ZM28.62,261.8l36.51.15c0,33.68,7.83,66.39,18.45,97.39L57,359.46A200,200,0,0,1,28.62,261.8Zm36.2,110.77c7.54-1.11,16.46.4,24.94-.11a230.77,230.77,0,0,0,37.37,59.25C104.35,418.32,80.6,395.08,64.82,372.58Zm85.38,64.65A221.38,221.38,0,0,1,104,372.74l35.73-.16C149.08,397.28,158,423,174.66,445L186,459.36C171.44,458.31,161.51,446.15,150.2,437.23ZM190,444.3A232,232,0,0,1,154,373l39.15-.15c5.48,33,12.36,65.43,27.82,94.2C207,467.88,198.84,453.34,190,444.3Zm7.85-181.81,52.34-.22.11,97.45-45.6.2C200.2,328.92,197.4,295.23,197.86,262.49ZM250,469.58l-11.76-.4C219,440.72,212,406.9,206.33,372.77l44,.43L250,468.48Zm.46-220.47-1.11.78-51.54-.09c.34-33.06,2.85-68.64,7.58-99.39l45.11.31Zm.29-111.55-43.25.18c5.69-31.85,12.75-64.47,30.49-92,2.64-5,8.28-2.85,12.82-3.51Zm203.93,14.16a204.22,204.22,0,0,1,28.65,98.75l-36.82-.31c-.94-33.85-7.51-68.62-19.71-98.79Zm-77.77,98.44L323.8,250c-1.25-34.46-1.85-65.33-7.16-99l46.69.26C371.77,182.61,376.93,216.28,376.91,250.15Zm-.09-98.9,36.2.18a254.47,254.47,0,0,1,20.31,98.79l-43.25-.13C390.11,216.7,384.62,182.7,376.82,151.25Zm-53,111.49L377,263c.91,32.9-5.51,66.45-14.31,97.37l-46.23-.12C321.62,328.86,322.6,297.06,323.86,262.73Zm66.29.2,43.25.11c-1.12,34.79-7.4,67.1-20.29,97.56l-36.49-.31C385.08,328.43,389,297.7,390.15,262.93ZM446,138.9l-24.91-.22C411,116.79,397.88,95.38,380.73,77.1,406.64,93.13,429.31,113.75,446,138.9ZM355,70.48a196.57,196.57,0,0,1,51.53,68.27L373,138.43c-10.18-30.53-23.29-59.78-45.8-85.22C337.84,55.37,346,64,355,70.48ZM301.62,46.59c29.89,24.47,46.15,57.62,57.45,91.89-15.06-.09-29.31.75-43.89-.6-6.11-33.33-12.65-65-29.37-93.89Zm-33.25-4.42C289.51,70.46,294.82,104,302,137.95l-38.4-.16-.09-95.6ZM263.2,150.65l40.76.13c3.42,30.68,8.11,66.25,6.37,99.32L263,249.53Zm-.14,112,.6-.49,46.71.27c1.74.78,0,2,0,3,0,31.63-1.6,64.41-6.8,94.83L262.68,360Zm-.69,206.83.38-96.67,39,.13c-6.58,33.73-12.55,68.4-33.43,96.84C266.6,469.19,264.4,469.66,262.37,469.52Zm39.46-4.4c-5,2.05-10.8,2.25-16.11,3.2,16-29.22,23.69-61.69,28.89-95.38l44.34.26C347.35,406.79,331.66,440.86,301.84,465.12Zm34.58-8.76c-3.42.33-6.09,2.38-9.38,2.71,21.83-25.64,36-55,45.56-85.91l34.46.18C392.77,404.74,366.91,437.58,336.42,456.36Zm46.44-22.76a255.18,255.18,0,0,0,38.94-60.35l24.44.38C430.68,397.2,406.31,419.23,382.86,433.6Zm71.94-72.85-27.43.11c10.85-30.28,18.4-63.87,19.18-97.86l36.82.62C481.64,299.19,472.55,331.21,454.8,360.75ZM256,5.69C114.84,5.69,0,118,0,256s114.84,250.3,256,250.3S512,394,512,256,397.17,5.69,256,5.69Zm0,488.86c-134.67,0-244.23-107-244.23-238.54S121.33,17.46,256,17.46,500.24,124.48,500.24,256,390.66,494.55,256,494.55Z"
     fill="#231f20"
     style="fill:#2e3436;fill-opacity:1" />
</svg>
