<?xml version="1.0" encoding="UTF-8" standalone="no"?>
<!-- Svg Vector Icons : http://www.onlinewebfonts.com/icon -->

<svg
   version="1.1"
   x="0px"
   y="0px"
   viewBox="0 0 260 260"
   enable-background="new 0 0 256 256"
   xml:space="preserve"
   id="svg152"
   sodipodi:docname="edge-remove.svg"
   inkscape:version="1.2.1 (9c6d41e410, 2022-07-14)"
   width="260"
   height="260"
   xmlns:inkscape="http://www.inkscape.org/namespaces/inkscape"
   xmlns:sodipodi="http://sodipodi.sourceforge.net/DTD/sodipodi-0.dtd"
   xmlns="http://www.w3.org/2000/svg"
   xmlns:svg="http://www.w3.org/2000/svg"><defs
   id="defs156"><linearGradient
     id="linearGradient2313"
     inkscape:swatch="solid"><stop
       style="stop-color:#2e3436;stop-opacity:1;"
       offset="0"
       id="stop2311" /></linearGradient></defs><sodipodi:namedview
   id="namedview154"
   pagecolor="#ffffff"
   bordercolor="#000000"
   borderopacity="0.25"
   inkscape:showpageshadow="2"
   inkscape:pageopacity="0.0"
   inkscape:pagecheckerboard="0"
   inkscape:deskcolor="#d1d1d1"
   showgrid="false"
   inkscape:zoom="1.6347656"
   inkscape:cx="167.91398"
   inkscape:cy="115.6129"
   inkscape:window-width="1920"
   inkscape:window-height="1017"
   inkscape:window-x="-8"
   inkscape:window-y="-8"
   inkscape:window-maximized="1"
   inkscape:current-layer="svg152" />
<metadata
   id="metadata144"> Svg Vector Icons : http://www.onlinewebfonts.com/icon </metadata>

<path
   style="fill:none;fill-opacity:1;stroke:#2e3436;stroke-width:5;stroke-linejoin:round;stroke-dasharray:none;stroke-opacity:1;paint-order:normal"
   d="M 213.93636,208.5 H 260"
   id="path13311" /><path
   style="fill:none;fill-opacity:1;stroke:#2e3436;stroke-width:5;stroke-linejoin:round;stroke-dasharray:none;stroke-opacity:1;paint-order:normal"
   d="M 0,208.06963 H 46.06364"
   id="path13311-5" /><path
   style="fill:none;fill-opacity:1;stroke:#2e3436;stroke-width:15;stroke-linejoin:round;stroke-dasharray:none;stroke-opacity:1;paint-order:normal"
   d="m 21.597156,208.06963 214.581264,0.30586"
   id="path13300"
   sodipodi:nodetypes="cc" /><path
   style="fill:none;fill-opacity:1;stroke:#2e3436;stroke-width:5;stroke-linejoin:round;stroke-dasharray:none;stroke-opacity:1;paint-order:normal"
   d="m 236.012,115.58224 -30.27282,52.76702 19.31821,51.14726"
   id="path5278"
   sodipodi:nodetypes="ccc" /><path
   style="fill:none;fill-opacity:1;stroke:#2e3436;stroke-width:5;stroke-linejoin:round;stroke-dasharray:none;stroke-opacity:1;paint-order:normal"
   d="M 105.45199,72.052106 34.653894,88.980103 15.690932,20.620465"
   id="path4382"
   sodipodi:nodetypes="ccc" /><path
   style="fill:none;stroke:#2e3436;stroke-width:5;stroke-linejoin:round;stroke-dasharray:none;stroke-opacity:1"
   d="M 93.989617,21.127372 104.33458,71.08763 v 0"
   id="path2178" /><path
   style="fill:none;fill-opacity:1;stroke:#2e3436;stroke-width:5;stroke-linejoin:round;stroke-dasharray:none;stroke-opacity:1"
   d="M 105.45199,72.052106 64.521598,115.58224 23.03182,208.06963"
   id="path2234"
   sodipodi:nodetypes="ccc" /><path
   style="fill:none;fill-opacity:1;stroke:#2e3436;stroke-width:5;stroke-linejoin:round;stroke-dasharray:none;stroke-opacity:1"
   d="m 179.73482,14.584642 67.79363,46.828834"
   id="path2236" /><path
   style="fill:#f9f9f9;fill-opacity:1;stroke:#2e3436;stroke-width:5;stroke-linejoin:round;stroke-dasharray:none;stroke-opacity:1"
   d="m 159.28232,72.569986 20.4525,-57.985344"
   id="path2238" /><path
   style="fill:none;fill-opacity:1;stroke:#2e3436;stroke-width:5;stroke-linejoin:round;stroke-dasharray:none;stroke-opacity:1"
   d="M 92.872217,20.162896 179.73482,14.584642"
   id="path2240" /><path
   style="fill:none;fill-opacity:1;stroke:#2e3436;stroke-width:5;stroke-linejoin:round;stroke-dasharray:none;stroke-opacity:1"
   d="M 236.012,115.58224 246.41105,62.377952"
   id="path2242" /><path
   style="fill:none;fill-opacity:1;stroke:#2e3436;stroke-width:5;stroke-linejoin:round;stroke-dasharray:none;stroke-opacity:1"
   d="M 160.39973,73.534461 236.012,115.58224"
   id="path2244" /><path
   style="fill:none;fill-opacity:1;stroke:#2e3436;stroke-width:5;stroke-linejoin:round;stroke-dasharray:none;stroke-opacity:1"
   d="m 105.45199,72.052106 52.71293,1.482355"
   id="path2246" /><ellipse
   style="fill:#f9f9f9;fill-opacity:1;stroke:#2e3436;stroke-width:7.75794;stroke-linejoin:round;stroke-dasharray:none;stroke-opacity:1;paint-order:normal"
   id="path4380-9"
   cx="95.381714"
   cy="20.620464"
   rx="11.12103"
   ry="11.121031" /><ellipse
   style="fill:#f9f9f9;fill-opacity:1;stroke:#2e3436;stroke-width:7.75794;stroke-linejoin:round;stroke-dasharray:none;stroke-opacity:1;paint-order:normal"
   id="path4380-9-1"
   cx="103.46102"
   cy="71.594536"
   rx="11.12103"
   ry="11.121031" /><ellipse
   style="fill:#f9f9f9;fill-opacity:1;stroke:#2e3436;stroke-width:7.75794;stroke-linejoin:round;stroke-dasharray:none;stroke-opacity:1;paint-order:normal"
   id="path4380-9-1-8"
   cx="158.2352"
   cy="73.401566"
   rx="11.12103"
   ry="11.121031" /><ellipse
   style="fill:#f9f9f9;fill-opacity:1;stroke:#2e3436;stroke-width:7.75794;stroke-linejoin:round;stroke-dasharray:none;stroke-opacity:1;paint-order:normal"
   id="path4380-9-1-0"
   cx="245.14674"
   cy="63.470451"
   rx="11.12103"
   ry="11.121031" /><ellipse
   style="fill:#f9f9f9;fill-opacity:1;stroke:#2e3436;stroke-width:7.75794;stroke-linejoin:round;stroke-dasharray:none;stroke-opacity:1;paint-order:normal"
   id="path4380-9-1-6"
   cx="235.59705"
   cy="116.06181"
   rx="11.12103"
   ry="11.121031" /><ellipse
   style="fill:#f9f9f9;fill-opacity:1;stroke:#2e3436;stroke-width:7.75794;stroke-linejoin:round;stroke-dasharray:none;stroke-opacity:1;paint-order:normal"
   id="path4380-9-1-83"
   cx="225.05739"
   cy="208.37549"
   rx="11.12103"
   ry="11.121031" /><ellipse
   style="fill:#f9f9f9;fill-opacity:1;stroke:#2e3436;stroke-width:7.75794;stroke-linejoin:round;stroke-dasharray:none;stroke-opacity:1;paint-order:normal"
   id="path4380-9-1-2"
   cx="25.762066"
   cy="208.37549"
   rx="11.12103"
   ry="11.121031" /><ellipse
   style="fill:#f9f9f9;fill-opacity:1;stroke:#2e3436;stroke-width:7.75794;stroke-linejoin:round;stroke-dasharray:none;stroke-opacity:1;paint-order:normal"
   id="path4380-9-7"
   cx="179.89505"
   cy="15.000001"
   rx="11.12103"
   ry="11.121031" /><ellipse
   style="fill:#f9f9f9;fill-opacity:1;stroke:#2e3436;stroke-width:7.75794;stroke-linejoin:round;stroke-dasharray:none;stroke-opacity:1;paint-order:normal"
   id="path4380-9-1-1"
   cx="15"
   cy="22.657757"
   rx="11.12103"
   ry="11.121031" /><flowRoot
   xml:space="preserve"
   id="flowRoot3338"
   style="font-style:normal;font-weight:normal;line-height:0.01%;font-family:sans-serif;letter-spacing:0px;word-spacing:0px;fill:#000000;fill-opacity:1;stroke:none;stroke-width:1px;stroke-linecap:butt;stroke-linejoin:miter;stroke-opacity:1"
   transform="matrix(0.22321428,0,0,0.0957927,206.30585,254.62302)">

<flowRegion
   id="flowRegion3340">

<rect
   id="rect3342"
   width="360"
   height="360"
   x="0"
   y="-5.669281" />

</flowRegion>

<flowPara
   id="flowPara3344"
   style="font-size:40px;line-height:1.25" />

</flowRoot><flowRoot
   xml:space="preserve"
   id="flowRoot3371"
   style="font-style:normal;font-weight:normal;line-height:0.01%;font-family:sans-serif;letter-spacing:0px;word-spacing:0px;fill:#000000;fill-opacity:1;stroke:none;stroke-width:1px;stroke-linecap:butt;stroke-linejoin:miter;stroke-opacity:1"
   transform="matrix(0.22321428,0,0,0.0957927,206.30585,187.7567)">

<flowRegion
   id="flowRegion3373">

<rect
   id="rect3375"
   width="85"
   height="85"
   x="5"
   y="5" />

</flowRegion>

<flowPara
   id="flowPara3377"
   style="font-size:40px;line-height:1.25" />

</flowRoot><flowRoot
   xml:space="preserve"
   id="flowRoot3404"
   style="font-style:normal;font-weight:normal;line-height:0.01%;font-family:sans-serif;letter-spacing:0px;word-spacing:0px;fill:#000000;fill-opacity:1;stroke:none;stroke-width:1px;stroke-linecap:butt;stroke-linejoin:miter;stroke-opacity:1"
   transform="matrix(0.22321428,0,0,0.0957927,206.30585,187.7567)">

<flowRegion
   id="flowRegion3406">

<rect
   id="rect3408"
   width="65"
   height="50"
   x="15"
   y="20" />

</flowRegion>

<flowPara
   id="flowPara3410"
   style="font-size:40px;line-height:1.25" />

</flowRoot><flowRoot
   xml:space="preserve"
   id="flowRoot3437"
   style="font-style:normal;font-weight:normal;line-height:0.01%;font-family:sans-serif;letter-spacing:0px;word-spacing:0px;fill:#000000;fill-opacity:1;stroke:none;stroke-width:1px;stroke-linecap:butt;stroke-linejoin:miter;stroke-opacity:1"
   transform="matrix(0.22321428,0,0,0.0957927,206.30585,187.7567)">

<flowRegion
   id="flowRegion3439">

<rect
   id="rect3441"
   width="80"
   height="75"
   x="5"
   y="5" />

</flowRegion>

<flowPara
   id="flowPara3443"
   style="font-size:40px;line-height:1.25" />

</flowRoot><g
   style="font-style:normal;font-variant:normal;font-weight:400;font-size:3.89819px;line-height:125%;font-family:'Segoe UI Symbol';text-align:start;letter-spacing:0px;word-spacing:0px;text-anchor:start;fill:#ff0000;fill-opacity:1;stroke:none"
   id="text3450"
   transform="matrix(27.150975,0,0,26.764446,-2091.2011,-27469.415)"><path
     d="m 83.683109,1032.3794 q 0,0.013 -0.0552,0.046 -0.0533,0.032 -0.154177,0.095 -0.09898,0.063 -0.241734,0.1637 -0.142756,0.1009 -0.321677,0.2513 -0.177017,0.1484 -0.386393,0.354 -0.207472,0.2037 -0.439689,0.4739 0.01142,0.015 0.03617,0.048 0.02665,0.031 0.0552,0.067 0.03045,0.034 0.0571,0.067 0.02665,0.03 0.03807,0.046 0.186534,0.2399 0.333097,0.474 0.146563,0.2341 0.255058,0.4492 0.110398,0.2151 0.186535,0.4054 0.07614,0.1885 0.121818,0.3388 0.04759,0.1504 0.06852,0.2551 0.02094,0.1066 0.02094,0.1523 0,0.03 -0.0076,0.032 h -0.0019 q -0.01332,0 -0.05139,-0.067 -0.03807,-0.067 -0.110398,-0.1903 -0.07043,-0.1218 -0.182728,-0.2932 -0.110398,-0.1732 -0.270285,-0.3844 -0.159887,-0.2132 -0.37307,-0.4569 -0.213182,-0.2455 -0.491081,-0.512 l -0.01523,0.017 q -0.01523,0.017 -0.03807,0.046 -0.02284,0.029 -0.05139,0.065 -0.02855,0.034 -0.05329,0.071 -0.197956,0.2779 -0.336905,0.5101 -0.137046,0.2303 -0.226506,0.4035 -0.08756,0.1732 -0.133239,0.2817 -0.04568,0.1066 -0.06281,0.1371 -0.01903,0.034 -0.05901,0.034 -0.01903,0 -0.03807,-0.01 -0.0095,-0.01 -0.03807,-0.025 -0.02855,-0.019 -0.06852,-0.046 -0.03997,-0.029 -0.08756,-0.059 -0.04568,-0.032 -0.09136,-0.061 -0.04378,-0.031 -0.08185,-0.055 -0.03807,-0.025 -0.06091,-0.038 -0.01713,-0.01 -0.02855,-0.023 -0.01142,-0.015 -0.01142,-0.032 0,-0.01 0.0076,-0.029 0.03616,-0.08 0.119915,-0.2246 0.08565,-0.1446 0.220797,-0.3407 0.135142,-0.196 0.325484,-0.4359 0.190341,-0.2417 0.439689,-0.512 -0.255058,-0.2189 -0.475854,-0.3864 -0.218893,-0.1675 -0.394007,-0.2893 -0.173211,-0.1237 -0.298836,-0.2017 -0.123722,-0.08 -0.192245,-0.1219 -0.01713,-0.01 -0.02855,-0.019 Q 80,1032.84 80,1032.8248 q 0,-0.017 0.01713,-0.038 0.0076,-0.013 0.04187,-0.059 0.03616,-0.046 0.08375,-0.1047 0.04949,-0.059 0.102785,-0.1218 0.0552,-0.063 0.104688,-0.1085 0.01523,-0.011 0.02665,-0.021 0.01142,-0.01 0.03236,-0.01 0.01713,0 0.03045,0.01 0.04188,0.023 0.169404,0.1085 0.127529,0.084 0.308353,0.2227 0.182728,0.139 0.399718,0.3293 0.218892,0.1904 0.441592,0.4226 0.180824,-0.1808 0.38449,-0.3312 0.203665,-0.1523 0.405427,-0.2722 0.201762,-0.1199 0.388297,-0.2094 0.188438,-0.089 0.340711,-0.1484 0.152274,-0.059 0.255058,-0.088 0.104688,-0.03 0.137046,-0.03 0.01142,0 0.01332,0 v 0 z"
     style="font-style:normal;font-variant:normal;font-weight:400;font-size:3.89819px;font-family:'Segoe UI Symbol';fill:#ff0000"
     id="path3468"
     inkscape:connector-curvature="0" /></g></svg>
