<?xml version="1.0" encoding="UTF-8" standalone="no"?>
<!-- Svg Vector Icons : http://www.onlinewebfonts.com/icon -->

<svg
   version="1.1"
   x="0px"
   y="0px"
   viewBox="0 0 236 239.2"
   enable-background="new 0 0 256 256"
   xml:space="preserve"
   id="svg24"
   sodipodi:docname="gear.svg"
   width="236"
   height="239.2"
   inkscape:version="1.2.1 (9c6d41e410, 2022-07-14)"
   xmlns:inkscape="http://www.inkscape.org/namespaces/inkscape"
   xmlns:sodipodi="http://sodipodi.sourceforge.net/DTD/sodipodi-0.dtd"
   xmlns="http://www.w3.org/2000/svg"
   xmlns:svg="http://www.w3.org/2000/svg"><defs
   id="defs28" /><sodipodi:namedview
   id="namedview26"
   pagecolor="#ffffff"
   bordercolor="#000000"
   borderopacity="0.25"
   inkscape:showpageshadow="2"
   inkscape:pageopacity="0.0"
   inkscape:pagecheckerboard="0"
   inkscape:deskcolor="#d1d1d1"
   showgrid="false"
   inkscape:zoom="3.2695312"
   inkscape:cx="85.333333"
   inkscape:cy="119.89486"
   inkscape:window-width="1920"
   inkscape:window-height="1017"
   inkscape:window-x="-8"
   inkscape:window-y="-8"
   inkscape:window-maximized="1"
   inkscape:current-layer="svg24" />
<metadata
   id="metadata16"> Svg Vector Icons : http://www.onlinewebfonts.com/icon </metadata>
<g
   id="g22"
   transform="translate(-10,-8.4)"
   style="fill:#2e3436;fill-opacity:1"><g
     id="g20"
     style="fill:#2e3436;fill-opacity:1"><path
       fill="#000000"
       d="m 213.4,168.5 c -1.6,5 -3.4,9.5 -5.6,13.5 l 23.3,22.8 -28.4,27.9 -22.3,-23.3 c -4,2.2 -8.5,4 -13.5,5.6 v 32.6 H 127.4 V 215 c -5,-1.5 -9.3,-3.4 -13,-5.6 L 91,232.7 63.5,204.3 86.3,182 c -2.2,-4 -4,-8.5 -5.6,-13.5 H 48.2 V 129 h 32.6 c 0.6,-2.5 1.3,-4.7 2.1,-6.7 0.8,-2 1.8,-4.1 3,-6.3 L 70,95.4 V 107 H 50 V 90.7 C 48.7,90.4 47.7,90.1 46.7,89.8 45.8,89.5 44.7,89 43.4,88.4 L 32.7,100.1 17.9,85.6 29.6,74 C 28,71.5 27.1,69.5 26.8,68 H 10 V 48 H 26.8 L 29.6,41.5 17.9,30.2 32.3,14.8 43.5,27.4 50,24.6 V 8.4 h 20 v 16.3 c 1.9,0.3 4,1.3 6.5,2.8 L 88.1,15.9 102.5,29.9 91,41.4 c 0.6,1.3 1.1,2.3 1.4,3.3 0.3,0.9 0.6,2 0.9,3.3 h 16.3 V 68 H 98 l 16.3,19.6 c 2.2,-1.2 4.3,-2.2 6.5,-3 2.2,-0.8 4.3,-1.5 6.5,-2.1 V 49.8 h 39.6 v 32.6 c 2.5,0.6 4.8,1.3 7,2.1 2.2,0.8 4.3,1.8 6.5,3 l 22.8,-22.3 27.9,27.5 -23.3,23.3 c 2.2,3.7 4,8.1 5.6,13 H 246 v 39.6 z M 44.9,59.6 c 0,3.1 1.5,6 4.6,8.8 3.1,2.8 6.5,4.2 10.2,4.2 4,0 7.6,-1.5 10.7,-4.6 3.1,-3.1 4.6,-6.5 4.6,-10.2 0,-3.4 -1.5,-6.7 -4.4,-9.8 -3,-3.1 -6.1,-4.6 -9.5,-4.6 -4,0 -7.8,1.6 -11.2,4.9 -3.3,3.1 -5,6.9 -5,11.3 z m 102.4,120.5 c 8.4,0 15.5,-2.9 21.4,-8.8 5.9,-5.9 8.8,-12.9 8.8,-21 0,-8.4 -3,-15.4 -8.8,-21.2 -5.9,-5.7 -13,-8.6 -21.4,-8.6 -8.1,0 -15,2.9 -20.7,8.6 -5.8,5.8 -8.6,12.8 -8.6,21.2 0,8.1 2.9,15.1 8.6,21 5.8,5.9 12.6,8.8 20.7,8.8 z"
       id="path18"
       style="fill:#2e3436;fill-opacity:1" /></g></g>
</svg>
