<?xml version="1.0" encoding="UTF-8" standalone="no"?>
<svg
   class="svg-icon"
   style="overflow:hidden;fill:currentColor"
   viewBox="0 0 752 752"
   version="1.1"
   id="svg315"
   sodipodi:docname="hint-style.svg"
   width="752"
   height="752"
   inkscape:version="1.2.1 (9c6d41e410, 2022-07-14)"
   xmlns:inkscape="http://www.inkscape.org/namespaces/inkscape"
   xmlns:sodipodi="http://sodipodi.sourceforge.net/DTD/sodipodi-0.dtd"
   xmlns="http://www.w3.org/2000/svg"
   xmlns:svg="http://www.w3.org/2000/svg">
  <defs
     id="defs319" />
  <sodipodi:namedview
     id="namedview317"
     pagecolor="#ffffff"
     bordercolor="#000000"
     borderopacity="0.25"
     inkscape:showpageshadow="2"
     inkscape:pageopacity="0.0"
     inkscape:pagecheckerboard="0"
     inkscape:deskcolor="#d1d1d1"
     showgrid="false"
     inkscape:zoom="0.81738281"
     inkscape:cx="226.94385"
     inkscape:cy="376.81243"
     inkscape:window-width="1920"
     inkscape:window-height="1017"
     inkscape:window-x="-8"
     inkscape:window-y="-8"
     inkscape:window-maximized="1"
     inkscape:current-layer="svg315"
     inkscape:lockguides="true" />
  <path
     d="m 184,752 c -2.4,0 -5.6,-0.8 -8,-1.6 -9.6,-3.2 -16,-12 -16,-22.4 L 157.6,560 H 88 C 39.2,560 0,520.8 0,472 V 88 C 0,39.2 39.2,0 88,0 h 576 c 48.8,0 88,39.2 88,88 v 384 c 0,48.8 -39.2,88 -88,88 H 355.2 L 202.4,743.2 c -4.8,5.6 -11.2,8.8 -18.4,8.8 z M 88,48 C 65.6,48 48,65.6 48,88 v 384 c 0,22.4 17.6,40 40,40 h 93.6 c 12.8,0 24,10.4 24,24 l 1.6,127.2 118.4,-142.4 c 4.8,-5.6 11.2,-8.8 18.4,-8.8 h 320 c 22.4,0 40,-17.6 40,-40 V 88 C 704,65.6 686.4,48 664,48 Z"
     fill="#999999"
     id="path311"
     style="fill:#2e3436;fill-opacity:1" />
  <text
     xml:space="preserve"
     style="font-style:normal;font-variant:normal;font-weight:bold;font-stretch:normal;font-size:466.667px;font-family:sans-serif;-inkscape-font-specification:'sans-serif, Bold';font-variant-ligatures:normal;font-variant-caps:normal;font-variant-numeric:normal;font-variant-east-asian:normal;fill:#ffffff;fill-opacity:1;stroke:#2e3436;stroke-width:30;stroke-linejoin:round;stroke-dasharray:none;stroke-opacity:1"
     x="216.95041"
     y="447.7706"
     id="text2599"><tspan
       sodipodi:role="line"
       id="tspan2597"
       x="216.95041"
       y="447.7706">T</tspan></text>
</svg>
