<?xml version="1.0" encoding="UTF-8" standalone="no"?>
<!-- Uploaded to: SVG Repo, www.svgrepo.com, Generator: SVG Repo Mixer Tools -->

<svg
   fill="#000000"
   version="1.1"
   id="Capa_1"
   width="800px"
   height="800px"
   viewBox="0 0 420.238 420.238"
   xml:space="preserve"
   sodipodi:docname="importinto.svg"
   inkscape:version="1.2.1 (9c6d41e410, 2022-07-14)"
   xmlns:inkscape="http://www.inkscape.org/namespaces/inkscape"
   xmlns:sodipodi="http://sodipodi.sourceforge.net/DTD/sodipodi-0.dtd"
   xmlns="http://www.w3.org/2000/svg"
   xmlns:svg="http://www.w3.org/2000/svg"><defs
   id="defs18" /><sodipodi:namedview
   id="namedview16"
   pagecolor="#ffffff"
   bordercolor="#000000"
   borderopacity="0.25"
   inkscape:showpageshadow="2"
   inkscape:pageopacity="0.0"
   inkscape:pagecheckerboard="0"
   inkscape:deskcolor="#d1d1d1"
   showgrid="false"
   inkscape:zoom="1.04625"
   inkscape:cx="299.16368"
   inkscape:cy="400.4779"
   inkscape:window-width="1920"
   inkscape:window-height="1017"
   inkscape:window-x="-8"
   inkscape:window-y="-8"
   inkscape:window-maximized="1"
   inkscape:current-layer="Capa_1" />
<g
   id="g13">
	<path
   d="M412.739,18.188C412.739,8.159,404.581,0,394.553,0H234.409c-10.027,0-18.186,8.159-18.186,18.188V85.75H25.042   c-9.689,0-17.543,7.854-17.543,17.543v299.402c0,9.688,7.854,17.543,17.543,17.543h299.402c9.688,0,17.543-7.854,17.543-17.543   v-81.037h52.565c10.027,0,18.187-8.159,18.187-18.188V113.583c0-0.073,0-0.146-0.004-0.22L412.739,18.188z M306.901,385.152H42.585   V120.836h173.639v65.655h-38.141c-2.385,0-4.627,1.134-6.039,3.054l-43.908,59.651l-21.49-15.816   c-2.156-1.588-4.998-1.903-7.455-0.829c-2.453,1.073-4.148,3.377-4.445,6.039l-10.658,95.764c-0.297,2.664,0.85,5.283,3.008,6.871   c1.311,0.965,2.873,1.459,4.447,1.459c1.018,0,2.041-0.207,3.006-0.629l88.268-38.64c2.455-1.073,4.15-3.377,4.447-6.04   s-0.85-5.281-3.008-6.87l-21.488-15.817l33.266-45.195h20.191v73.979c0,10.028,8.158,18.188,18.186,18.188h72.492v63.493H306.901z"
   id="path11" />
</g>
</svg>
