<?xml version="1.0" encoding="UTF-8" standalone="no"?>
<svg
   id="Icons"
   version="1.1"
   viewBox="0 0 29 29"
   xml:space="preserve"
   sodipodi:docname="into db.svg"
   width="29"
   height="29"
   inkscape:version="1.2.1 (9c6d41e410, 2022-07-14)"
   xmlns:inkscape="http://www.inkscape.org/namespaces/inkscape"
   xmlns:sodipodi="http://sodipodi.sourceforge.net/DTD/sodipodi-0.dtd"
   xmlns="http://www.w3.org/2000/svg"
   xmlns:svg="http://www.w3.org/2000/svg"><defs
     id="defs559" /><sodipodi:namedview
     id="namedview557"
     pagecolor="#ffffff"
     bordercolor="#000000"
     borderopacity="0.25"
     inkscape:showpageshadow="2"
     inkscape:pageopacity="0.0"
     inkscape:pagecheckerboard="0"
     inkscape:deskcolor="#d1d1d1"
     showgrid="false"
     inkscape:zoom="26.15625"
     inkscape:cx="9.0035842"
     inkscape:cy="14.031063"
     inkscape:window-width="1920"
     inkscape:window-height="1017"
     inkscape:window-x="-8"
     inkscape:window-y="-8"
     inkscape:window-maximized="1"
     inkscape:current-layer="Icons" /><style
     type="text/css"
     id="style544">
	.st0{fill:none;stroke:#000000;stroke-width:2;stroke-linecap:round;stroke-linejoin:round;stroke-miterlimit:10;}
</style><g
     id="g552"
     transform="translate(-3,-2)"><ellipse
       cx="14"
       cy="8"
       rx="11"
       ry="6"
       id="ellipse546" /><path
       d="M 14,24 C 9.2,24 5.2,22.6 3,20.4 V 24 c 0,3.4 4.8,6 11,6 0.9,0 1.8,-0.1 2.7,-0.2 -1.5,-1.5 -2.4,-3.6 -2.7,-5.8 0,0 0,0 0,0 z"
       id="path548" /><path
       d="M 3,12.4 V 16 c 0,3.4 4.8,6 11,6 0,0 0,0 0.1,0 0.2,-2.4 1.4,-4.6 3,-6.2 -1,0.1 -2,0.2 -3.1,0.2 C 9.2,16 5.2,14.6 3,12.4 Z"
       id="path550" /></g><path
     d="m 20,29 v -8.5 l -1.3,1.3 c -0.4,0.4 -1,0.4 -1.4,0 -0.4,-0.4 -0.4,-1 0,-1.4 l 3,-3 c 0.1,-0.1 0.2,-0.2 0.3,-0.2 0.1,-0.1 0.3,-0.1 0.4,-0.1 0.1,0 0.3,0 0.4,0.1 0.1,0.1 0.2,0.1 0.3,0.2 l 3,3 c 0.4,0.4 0.4,1 0,1.4 -0.4,0.4 -1,0.4 -1.4,0 L 22,20.5 V 29 c 3.9,-0.5 7,-3.9 7,-7.9 0,-4.4 -3.6,-8 -8,-8 -4.4,0 -8,3.6 -8,8 0,4.1 3.1,7.4 7,7.9 z"
     id="path554" /></svg>
