<?xml version="1.0" encoding="UTF-8" standalone="no"?>
<!-- Uploaded to: SVG Repo, www.svgrepo.com, Generator: SVG Repo Mixer Tools -->

<svg
   height="438.5"
   width="455"
   version="1.1"
   id="Layer_1"
   viewBox="0 0 291.2 280.64"
   xml:space="preserve"
   sodipodi:docname="layout-reset.svg"
   inkscape:version="1.2.1 (9c6d41e410, 2022-07-14)"
   xmlns:inkscape="http://www.inkscape.org/namespaces/inkscape"
   xmlns:sodipodi="http://sodipodi.sourceforge.net/DTD/sodipodi-0.dtd"
   xmlns="http://www.w3.org/2000/svg"
   xmlns:svg="http://www.w3.org/2000/svg"><defs
   id="defs454" /><sodipodi:namedview
   id="namedview452"
   pagecolor="#ffffff"
   bordercolor="#000000"
   borderopacity="0.25"
   inkscape:showpageshadow="2"
   inkscape:pageopacity="0.0"
   inkscape:pagecheckerboard="0"
   inkscape:deskcolor="#d1d1d1"
   showgrid="false"
   inkscape:zoom="1.04625"
   inkscape:cx="178.73357"
   inkscape:cy="315.41219"
   inkscape:window-width="1920"
   inkscape:window-height="1017"
   inkscape:window-x="-8"
   inkscape:window-y="-8"
   inkscape:window-maximized="1"
   inkscape:current-layer="g449" />


<g
   id="g449"
   transform="translate(-87.735,-85.867)"
   style="fill:#2e3436;fill-opacity:1">
	<path
   style="fill:#2e3436;fill-opacity:1"
   d="m 363.258,227.839 c -3.829,0 -6.933,3.101 -6.933,6.933 v 14.981 c -13.406,-17.397 -35.732,-28.848 -58.938,-28.848 -29.351,0 -55.66,18.626 -65.467,46.353 -1.277,3.609 0.617,7.57 4.225,8.843 0.765,0.271 1.543,0.4 2.313,0.4 2.854,0 5.529,-1.774 6.538,-4.624 7.851,-22.195 28.905,-37.104 52.393,-37.104 20.865,0 40.731,11.258 50.879,27.733 h -19.676 c -3.829,0 -6.933,3.101 -6.933,6.933 0,3.832 3.104,6.933 6.933,6.933 h 34.667 c 3.829,0 6.933,-3.101 6.933,-6.933 v -34.668 c -0.001,-3.831 -3.106,-6.932 -6.934,-6.932 z"
   id="path443" />
	<path
   style="fill:#2e3436;fill-opacity:1"
   d="m 365.566,311.29 c -3.612,-1.26 -7.57,0.623 -8.846,4.231 -7.844,22.202 -28.898,37.118 -52.393,37.118 -20.864,0 -40.723,-11.259 -50.874,-27.733 h 19.669 c 3.829,0 6.933,-3.101 6.933,-6.933 0,-3.832 -3.104,-6.933 -6.933,-6.933 h -34.667 c -3.829,0 -6.933,3.101 -6.933,6.933 v 34.667 c 0,3.833 3.104,6.933 6.933,6.933 3.829,0 6.933,-3.101 6.933,-6.933 v -14.99 c 13.405,17.402 35.729,28.857 58.937,28.857 29.358,0 55.669,-18.634 65.467,-46.367 1.279,-3.609 -0.613,-7.57 -4.226,-8.85 z"
   id="path445" />
	<path
   style="fill:#2e3436;fill-opacity:1"
   d="m 219.468,335.467 h -68.669 c 2.755,-3.602 4.897,-7.73 6.063,-12.39 0.135,-0.548 0.207,-1.11 0.207,-1.679 V 169.067 h 208 V 217.6 c 0,3.833 3.104,6.933 6.933,6.933 3.829,0 6.933,-3.101 6.933,-6.933 v -55.467 c 0,-3.833 -3.104,-6.933 -6.933,-6.933 h -20.8 v -27.733 c 0,-3.833 -3.104,-6.933 -6.933,-6.933 H 197.255 l -19.97,-31.451 c -1.273,-2.004 -3.481,-3.216 -5.854,-3.216 H 94.668 c -3.829,0 -6.933,3.101 -6.933,6.933 v 228.597 c 0,0.569 0.071,1.131 0.207,1.679 3.765,15.062 16.852,25.25 32.813,25.925 0.542,0.135 1.063,0.332 1.647,0.332 h 97.067 c 3.829,0 6.933,-3.101 6.933,-6.933 0,-3.832 -3.106,-6.933 -6.934,-6.933 z M 101.601,320.49 V 99.733 h 66.022 l 19.97,31.451 c 1.273,2.004 3.481,3.216 5.854,3.216 h 143.887 v 20.8 h -187.2 c -3.829,0 -6.933,3.101 -6.933,6.933 V 320.49 c -3.129,10.887 -13.082,14.774 -20.8,14.774 -7.718,0 -17.672,-3.887 -20.8,-14.774 z"
   id="path447" />
</g>
</svg>
