<?xml version="1.0" encoding="utf-8"?>
<!-- Svg Vector Icons : http://www.onlinewebfonts.com/icon -->
<!DOCTYPE svg PUBLIC "-//W3C//DTD SVG 1.1//EN" "http://www.w3.org/Graphics/SVG/1.1/DTD/svg11.dtd">
<svg version="1.1" xmlns="http://www.w3.org/2000/svg" xmlns:xlink="http://www.w3.org/1999/xlink" x="0px" y="0px" viewBox="0 0 256 256" enable-background="new 0 0 256 256" xml:space="preserve">
<metadata> Svg Vector Icons : http://www.onlinewebfonts.com/icon </metadata>
<g><g><g><path fill="#000000" d="M120.8,10.4c-27.2,2.9-50.1,20.8-59.4,46.6c-0.7,1.9-1.8,5.6-2.4,8.3c-1.2,4.7-1.2,5.5-1.4,22l-0.2,17.2H45.4H33.5v70.8V246H128h94.5v-70.8v-70.8h-12h-12V89.3c0-13.1-0.1-15.9-0.9-20.6c-2.5-14.5-9.2-27.4-19.6-37.8c-6-6-10.8-9.5-18-13.2C147.8,11.5,134.1,9,120.8,10.4z M138.6,39.6c14.7,3.7,25.9,14.8,30.5,29.9c0.9,3.1,1,4.5,1.2,19.1l0.1,15.8H128H85.5l0.1-15.8c0.2-15.6,0.2-15.8,1.4-19.8c5-16.3,18.2-27.6,35.2-30.3C126.5,37.9,133.7,38.3,138.6,39.6z M135.9,143.8c8.7,4.1,13,14.1,10.1,22.8c-1.2,3.7-3,6.4-6,8.9l-2.3,2v10.9c0,12.3-0.4,14.5-2.9,16.9c-2.2,2.1-4.1,2.9-6.8,2.9c-2.6,0-4.6-0.8-6.6-2.7c-2.8-2.5-2.9-2.9-3-16l-0.2-12l-2.4-2.2c-4.8-4.3-7-9.4-6.6-15.6c0.5-7.6,5.3-14,12.5-16.6C125.4,141.7,132.4,142.1,135.9,143.8z"/></g></g></g>
</svg>