<?xml version="1.0" encoding="UTF-8" standalone="no"?>
<!-- Created with Inkscape (http://www.inkscape.org/) -->

<svg
   version="1.1"
   id="svg2"
   xml:space="preserve"
   width="259.37332"
   height="187.39999"
   viewBox="0 0 259.37332 187.39999"
   sodipodi:docname="Logo.eps"
   xmlns:inkscape="http://www.inkscape.org/namespaces/inkscape"
   xmlns:sodipodi="http://sodipodi.sourceforge.net/DTD/sodipodi-0.dtd"
   xmlns="http://www.w3.org/2000/svg"
   xmlns:svg="http://www.w3.org/2000/svg"><defs
     id="defs6" /><sodipodi:namedview
     id="namedview4"
     pagecolor="#ffffff"
     bordercolor="#666666"
     borderopacity="1.0"
     inkscape:pageshadow="2"
     inkscape:pageopacity="0.0"
     inkscape:pagecheckerboard="0" /><g
     id="g8"
     inkscape:groupmode="layer"
     inkscape:label="ink_ext_XXXXXX"
     transform="matrix(1.3333333,0,0,-1.3333333,0,187.4)"><g
       id="g10"
       transform="scale(0.1)"><path
         d="M 1254.15,645.215 V 525.09 c -17,-1.137 -40.54,-3.801 -70.59,-8.02 -30.04,-4.211 -53.84,-10.547 -71.4,-18.996 -19.15,-8.445 -31.78,-21.804 -37.89,-40.086 -6.12,-18.281 -9.17,-39.23 -9.17,-62.851 v -65.821 c 0,-20.808 0.13,13.868 0.39,-15.957 0.27,-29.812 2.52,-59.355 6.77,-88.593 15.88,-16.875 43.03,-32.911 81.45,-48.106 38.41,-15.187 80.92,-22.781 127.54,-22.781 62.51,0 118.4,14.273 167.67,42.84 49.26,28.554 90.32,67.754 123.17,117.597 32.85,48.711 57.88,106.524 75.1,173.438 17.21,66.902 25.82,138.164 25.82,213.777 0,85.664 -8.74,163.215 -26.22,232.649 -17.47,69.43 -42.38,127.4 -74.7,173.89 -32.83,48.16 -71.5,84.41 -116,108.77 -44.51,24.36 -95.11,36.54 -151.77,36.54 -51.92,0 -96.55,-10.45 -133.9,-31.35 -13.34,-7.46 -26.08,-15.82 -37.98,-25.1 l 0.33,104.38 c 47.14,16.15 102.5,24.22 166.05,24.22 79.45,0 154.01,-15.54 223.66,-46.61 69.66,-31.08 129.65,-74.62 179.97,-130.61 51.92,-57.11 92.04,-124.43 120.37,-201.982 28.33,-77.551 42.5,-161.683 42.5,-252.394 0,-94.063 -14.83,-179.161 -44.5,-255.309 C 1791.15,362.48 1751.16,297.813 1700.85,244.609 1651.04,191.973 1592.75,151.387 1526,122.832 1459.25,94.2773 1389.85,80 1317.82,80 c -67.3,0 -135.92,8.9844 -205.84,26.941 -46.26,11.875 -92.88,77.2 -139.363,95.95 C 926.133,184.141 879.602,118.816 833.34,106.941 763.418,88.9844 694.805,80 627.512,80 555.469,80 486.086,94.2773 419.324,122.832 352.566,151.387 294.285,191.973 244.48,244.609 194.16,297.813 154.172,362.48 124.504,438.625 94.8359,514.773 80,599.871 80,693.934 c 0,90.711 14.1719,174.843 42.5,252.394 28.328,77.552 68.457,144.872 120.371,201.982 50.32,55.99 110.313,99.53 179.973,130.61 69.656,31.07 144.207,46.61 223.66,46.61 63.562,0 118.906,-8.07 166.047,-24.22 l 0.332,-104.38 c -11.887,9.28 -24.641,17.64 -37.981,25.1 -37.351,20.9 -81.98,31.35 -133.894,31.35 -56.672,0 -107.258,-12.18 -151.762,-36.54 -44.512,-24.36 -83.183,-60.61 -116.016,-108.77 -32.324,-46.49 -57.222,-104.46 -74.695,-173.89 -17.48,-69.434 -26.222,-146.985 -26.222,-232.649 0,-75.613 8.605,-146.875 25.824,-213.777 17.215,-66.914 42.246,-124.727 75.093,-173.438 32.856,-49.843 73.911,-89.043 123.176,-117.597 49.278,-28.567 105.157,-42.84 167.664,-42.84 46.621,0 89.145,7.594 127.551,22.781 38.406,15.195 65.559,31.231 81.445,48.106 4.247,29.238 6.504,58.781 6.77,88.593 0.262,29.825 0.391,-4.851 0.391,15.957 v 65.821 c 0,23.621 -3.059,44.57 -9.172,62.851 -6.106,18.282 -18.742,31.641 -37.891,40.086 -17.551,8.449 -41.355,14.785 -71.406,18.996 -30.047,4.219 -53.574,6.883 -70.586,8.02 v 120.125 h 562.978 v 0"
         style="fill:#3555ae;fill-opacity:1;fill-rule:nonzero;stroke:none"
         id="path12" /><path
         d="M 1254.15,645.215 V 525.09 c -17,-1.137 -40.54,-3.801 -70.59,-8.02 -30.04,-4.211 -53.84,-10.547 -71.4,-18.996 -19.15,-8.445 -31.78,-21.804 -37.89,-40.086 -6.12,-18.281 -9.17,-39.23 -9.17,-62.851 v -65.821 c 0,-20.808 0.13,13.868 0.39,-15.957 0.27,-29.812 2.52,-59.355 6.77,-88.593 15.88,-16.875 43.03,-32.911 81.45,-48.106 38.41,-15.187 80.92,-22.781 127.54,-22.781 62.51,0 118.4,14.273 167.67,42.84 49.26,28.554 90.32,67.754 123.17,117.597 32.85,48.711 57.88,106.524 75.1,173.438 17.21,66.902 25.82,138.164 25.82,213.777 0,85.664 -8.74,163.215 -26.22,232.649 -17.47,69.43 -42.38,127.4 -74.7,173.89 -32.83,48.16 -71.5,84.41 -116,108.77 -44.51,24.36 -95.11,36.54 -151.77,36.54 -51.92,0 -96.55,-10.45 -133.9,-31.35 -13.34,-7.46 -26.08,-15.82 -37.98,-25.1 l 0.33,104.38 c 47.14,16.15 102.5,24.22 166.05,24.22 79.45,0 154.01,-15.54 223.66,-46.61 69.66,-31.08 129.65,-74.62 179.97,-130.61 51.92,-57.11 92.04,-124.43 120.37,-201.982 28.33,-77.551 42.5,-161.683 42.5,-252.394 0,-94.063 -14.83,-179.161 -44.5,-255.309 C 1791.15,362.48 1751.16,297.813 1700.85,244.609 1651.04,191.973 1592.75,151.387 1526,122.832 1459.25,94.2773 1389.85,80 1317.82,80 c -67.3,0 -135.92,8.9844 -205.84,26.941 -46.26,11.875 -92.88,77.2 -139.363,95.95 C 926.133,184.141 879.602,118.816 833.34,106.941 763.418,88.9844 694.805,80 627.512,80 555.469,80 486.086,94.2773 419.324,122.832 352.566,151.387 294.285,191.973 244.48,244.609 194.16,297.813 154.172,362.48 124.504,438.625 94.8359,514.773 80,599.871 80,693.934 c 0,90.711 14.1719,174.843 42.5,252.394 28.328,77.552 68.457,144.872 120.371,201.982 50.32,55.99 110.313,99.53 179.973,130.61 69.656,31.07 144.207,46.61 223.66,46.61 63.562,0 118.906,-8.07 166.047,-24.22 l 0.332,-104.38 c -11.887,9.28 -24.641,17.64 -37.981,25.1 -37.351,20.9 -81.98,31.35 -133.894,31.35 -56.672,0 -107.258,-12.18 -151.762,-36.54 -44.512,-24.36 -83.183,-60.61 -116.016,-108.77 -32.324,-46.49 -57.222,-104.46 -74.695,-173.89 -17.48,-69.434 -26.222,-146.985 -26.222,-232.649 0,-75.613 8.605,-146.875 25.824,-213.777 17.215,-66.914 42.246,-124.727 75.093,-173.438 32.856,-49.843 73.911,-89.043 123.176,-117.597 49.278,-28.567 105.157,-42.84 167.664,-42.84 46.621,0 89.145,7.594 127.551,22.781 38.406,15.195 65.559,31.231 81.445,48.106 4.247,29.238 6.504,58.781 6.77,88.593 0.262,29.825 0.391,-4.851 0.391,15.957 v 65.821 c 0,23.621 -3.059,44.57 -9.172,62.851 -6.106,18.282 -18.742,31.641 -37.891,40.086 -17.551,8.449 -41.355,14.785 -71.406,18.996 -30.047,4.219 -53.574,6.883 -70.586,8.02 v 120.125 h 562.978 z"
         style="fill:none;stroke:#3555ae;stroke-width:160;stroke-linecap:butt;stroke-linejoin:miter;stroke-miterlimit:10;stroke-dasharray:none;stroke-opacity:1"
         id="path14" /><path
         d="m 853.203,880.855 c 0,66.18 53.633,119.825 119.824,119.825 66.173,0 119.823,-53.645 119.823,-119.825 0,-66.179 -53.65,-119.824 -119.823,-119.824 -66.191,0 -119.824,53.645 -119.824,119.824 v 0"
         style="fill:#e4ec2a;fill-opacity:1;fill-rule:nonzero;stroke:none"
         id="path16" /><path
         d="m 853.203,880.855 c 0,66.18 53.633,119.825 119.824,119.825 66.173,0 119.823,-53.645 119.823,-119.825 0,-66.179 -53.65,-119.824 -119.823,-119.824 -66.191,0 -119.824,53.645 -119.824,119.824 z"
         style="fill:none;stroke:#3549a5;stroke-width:60;stroke-linecap:butt;stroke-linejoin:miter;stroke-miterlimit:10;stroke-dasharray:none;stroke-opacity:1"
         id="path18" /></g></g></svg>
