<?xml version="1.0" encoding="UTF-8" standalone="no"?>
<!-- Uploaded to: SVG Repo, www.svgrepo.com, Generator: SVG Repo Mixer Tools -->

<svg
   fill="#000000"
   height="799.83673"
   width="800"
   version="1.1"
   id="Capa_1"
   viewBox="0 0 489.9 489.80002"
   xml:space="preserve"
   sodipodi:docname="move.svg"
   inkscape:version="1.2.1 (9c6d41e410, 2022-07-14)"
   xmlns:inkscape="http://www.inkscape.org/namespaces/inkscape"
   xmlns:sodipodi="http://sodipodi.sourceforge.net/DTD/sodipodi-0.dtd"
   xmlns="http://www.w3.org/2000/svg"
   xmlns:svg="http://www.w3.org/2000/svg"><defs
   id="defs22" /><sodipodi:namedview
   id="namedview20"
   pagecolor="#ffffff"
   bordercolor="#000000"
   borderopacity="0.25"
   inkscape:showpageshadow="2"
   inkscape:pageopacity="0.0"
   inkscape:pagecheckerboard="0"
   inkscape:deskcolor="#d1d1d1"
   showgrid="false"
   inkscape:zoom="1.04625"
   inkscape:cx="297.25209"
   inkscape:cy="400.4779"
   inkscape:window-width="1920"
   inkscape:window-height="1017"
   inkscape:window-x="-8"
   inkscape:window-y="-8"
   inkscape:window-maximized="1"
   inkscape:current-layer="Capa_1" />
<g
   id="g17"
   transform="translate(0,-0.05)"
   style="fill:#2e3436;fill-opacity:1">
	<g
   id="g15"
   style="fill:#2e3436;fill-opacity:1">
		<path
   d="m 406.2,173.55 c -4.8,4.8 -4.8,12.5 0,17.3 l 41.8,41.8 H 333.3 v -63.9 c 0,-6.8 -5.5,-12.3 -12.3,-12.3 H 257.1 V 41.85 l 41.8,41.8 c 2.4,2.4 5.5,3.6 8.7,3.6 3.2,0 6.3,-1.2 8.7,-3.6 4.8,-4.8 4.8,-12.5 0,-17.3 L 253.6,3.65 c -2.3,-2.3 -5.4,-3.6 -8.7,-3.6 -3.3,0 -6.4,1.3 -8.7,3.6 l -62.7,62.7 c -4.8,4.8 -4.8,12.5 0,17.3 4.8,4.8 12.5,4.8 17.3,0 l 41.8,-41.8 v 114.7 h -63.9 c -6.8,0 -12.3,5.5 -12.3,12.3 v 63.9 H 41.8 l 41.8,-41.8 c 4.8,-4.8 4.8,-12.5 0,-17.3 -4.8,-4.8 -12.5,-4.8 -17.3,0 l -62.7,62.7 c -4.8,4.8 -4.8,12.5 0,17.3 l 62.7,62.7 c 2.4,2.4 5.5,3.6 8.7,3.6 3.2,0 6.3,-1.2 8.7,-3.6 4.8,-4.8 4.8,-12.5 0,-17.3 l -41.8,-41.8 h 114.7 v 63.9 c 0,6.8 5.5,12.3 12.3,12.3 h 63.9 v 114.7 l -41.9,-41.9 c -4.8,-4.8 -12.5,-4.8 -17.3,0 -4.8,4.8 -4.8,12.5 0,17.3 l 62.7,62.7 c 2.3,2.3 5.4,3.6 8.7,3.6 3.3,0 6.4,-1.3 8.7,-3.6 l 62.7,-62.7 c 4.8,-4.8 4.8,-12.5 0,-17.3 -4.8,-4.8 -12.5,-4.8 -17.3,0 l -41.8,41.8 v -114.7 h 63.9 c 6.8,0 12.3,-5.5 12.3,-12.3 v -63.9 h 114.7 l -42,41.8 c -4.8,4.8 -4.8,12.5 0,17.3 2.4,2.4 5.5,3.6 8.7,3.6 3.2,0 6.3,-1.2 8.7,-3.6 l 62.7,-62.7 c 2.3,-2.3 3.6,-5.4 3.6,-8.7 0,-3.3 -1.3,-6.4 -3.6,-8.7 l -62.7,-62.7 c -4.9,-4.7 -12.6,-4.7 -17.4,0.1 z m -97.4,135.3 H 181 v -127.8 h 127.8 z"
   id="path13"
   style="fill:#2e3436;fill-opacity:1" />
	</g>
</g>
</svg>
