<?xml version="1.0" encoding="UTF-8" standalone="no"?>
<!-- Uploaded to: SVG Repo, www.svgrepo.com, Generator: SVG Repo Mixer Tools -->

<svg
   fill="#000000"
   width="700"
   height="800.00354"
   viewBox="-32 0 448 512.00227"
   version="1.1"
   id="svg41"
   sodipodi:docname="not-equal.svg"
   inkscape:version="1.2.1 (9c6d41e410, 2022-07-14)"
   xmlns:inkscape="http://www.inkscape.org/namespaces/inkscape"
   xmlns:sodipodi="http://sodipodi.sourceforge.net/DTD/sodipodi-0.dtd"
   xmlns="http://www.w3.org/2000/svg"
   xmlns:svg="http://www.w3.org/2000/svg">
  <defs
     id="defs45" />
  <sodipodi:namedview
     id="namedview43"
     pagecolor="#ffffff"
     bordercolor="#000000"
     borderopacity="0.25"
     inkscape:showpageshadow="2"
     inkscape:pageopacity="0.0"
     inkscape:pagecheckerboard="0"
     inkscape:deskcolor="#d1d1d1"
     showgrid="false"
     inkscape:zoom="0.295"
     inkscape:cx="-6.779661"
     inkscape:cy="400"
     inkscape:window-width="1920"
     inkscape:window-height="1137"
     inkscape:window-x="-8"
     inkscape:window-y="-8"
     inkscape:window-maximized="1"
     inkscape:current-layer="svg41" />
  <path
     d="m 384,208.00112 c 17.67,0 32,-14.33 32,-32 v -32 c 0,-17.67 -14.33,-32 -32,-32 h -23.88 l 51.87,-66.809995 c 5.37,-7.02 4.04,-17.06 -2.97,-22.43 L 383.61,3.3011246 c -7.02,-5.38 -17.06,-4.04000002 -22.44,2.97 L 279.09,112.00112 H 0 c -17.67,0 -32,14.33 -32,32 v 32 c 0,17.67 14.33,32 32,32 h 204.56 l -74.53,96 H 0 c -17.67,0 -32,14.33 -32,32 v 32 c 0,17.67 14.33,32 32,32 h 55.49 l -51.87,66.81 c -5.37,7.01 -4.04,17.05 2.97,22.43 l 25.41,19.46 c 7.02,5.38 17.06,4.04 22.43,-2.97 l 82.09,-105.73 H 384 c 17.67,0 32,-14.33 32,-32 v -32 c 0,-17.67 -14.33,-32 -32,-32 H 211.05 l 74.53,-96 z"
     id="path39" />
</svg>
