<?xml version="1.0" encoding="UTF-8" standalone="no"?>
<svg
   width="16"
   height="16"
   fill="currentColor"
   class="bi bi-dice-2"
   viewBox="0 0 16 16"
   version="1.1"
   id="svg423"
   sodipodi:docname="paste in place.svg"
   inkscape:version="1.2.1 (9c6d41e410, 2022-07-14)"
   xmlns:inkscape="http://www.inkscape.org/namespaces/inkscape"
   xmlns:sodipodi="http://sodipodi.sourceforge.net/DTD/sodipodi-0.dtd"
   xmlns="http://www.w3.org/2000/svg"
   xmlns:svg="http://www.w3.org/2000/svg">
  <defs
     id="defs427">
    <marker
       style="overflow:visible"
       id="Arrow1L"
       refX="0"
       refY="0"
       orient="auto-start-reverse"
       inkscape:stockid="Arrow1L"
       markerWidth="8.75"
       markerHeight="5"
       viewBox="0 0 8.75 5"
       inkscape:isstock="true"
       inkscape:collect="always"
       preserveAspectRatio="xMidYMid">
      <path
         style="fill:context-stroke;fill-rule:evenodd;stroke:none"
         d="M 0,0 5,-5 -12.5,0 5,5 Z"
         id="arrow1L"
         transform="scale(-0.5)" />
    </marker>
    <linearGradient
       id="linearGradient5848"
       inkscape:swatch="solid">
      <stop
         style="stop-color:#000000;stop-opacity:1;"
         offset="0"
         id="stop5846" />
    </linearGradient>
  </defs>
  <sodipodi:namedview
     id="namedview425"
     pagecolor="#ffffff"
     bordercolor="#000000"
     borderopacity="0.25"
     inkscape:showpageshadow="2"
     inkscape:pageopacity="0.0"
     inkscape:pagecheckerboard="0"
     inkscape:deskcolor="#d1d1d1"
     showgrid="false"
     inkscape:zoom="52.3125"
     inkscape:cx="5.2759857"
     inkscape:cy="7.474313"
     inkscape:window-width="1920"
     inkscape:window-height="1017"
     inkscape:window-x="-8"
     inkscape:window-y="-8"
     inkscape:window-maximized="1"
     inkscape:current-layer="svg423" />
  <rect
     style="fill:#ffffff;fill-opacity:1;stroke:#2d3436;stroke-width:0.234235;stroke-dasharray:none;stroke-opacity:1"
     id="rect5264"
     width="9.9787302"
     height="12.452402"
     x="0.11711755"
     y="0.11711755" />
  <rect
     style="fill:#ffffff;fill-opacity:1;stroke:#2d3436;stroke-width:0.234235;stroke-dasharray:none;stroke-opacity:1"
     id="rect5264-7"
     width="9.9787302"
     height="12.452402"
     x="5.9041524"
     y="2.9111943" />
  <path
     d="m 8.6921502,15.23846 c -1.3522949,0 -2.7168123,-0.330542 -2.7168123,-1.068947 0,-0.576427 0.9345315,-0.933957 1.8030434,-1.022124 l 0.047543,-0.005 -1.2003215,-1.731778 C 6.5868998,11.348191 6.5503778,11.281915 6.5181742,11.21485 l -0.031663,-0.05769 -0.00497,-0.02308 C 6.3760207,10.887904 6.322592,10.630218 6.322592,10.368381 c 0,-1.1771232 1.0631887,-2.1348347 2.3698963,-2.1348347 1.3066649,0 2.3696677,0.9577115 2.3696677,2.1348347 0,0.262092 -0.05354,0.519663 -0.159353,0.765714 l -0.01586,0.03701 h 0.0015 l -0.01222,0.02266 c -0.03457,0.07344 -0.07281,0.143983 -0.114341,0.210827 l -2.0707051,3.096245 -0.490462,-0.721722 -0.018524,0.0014 C 7.387738,13.841865 6.8810773,14.039437 6.748206,14.149439 l -0.024001,0.0199 0.024001,0.02001 c 0.1733245,0.145069 0.8397876,0.374517 1.8963329,0.381284 h 0.094332 v 0 c 1.0545942,-0.0067 1.7224021,-0.235587 1.8971721,-0.380361 l 0.02462,-0.02038 -0.02503,-0.0199 c -0.09697,-0.07735 -0.45029,-0.23007 -0.9937172,-0.319729 l 0.4173512,-0.602111 c 0.870829,0.176804 1.350094,0.510668 1.350094,0.941359 0,0.738446 -1.364516,1.068946 -2.7169861,1.068946 v 0 z m 0,-6.0217318 c -0.5570494,0 -1.0101609,0.4085372 -1.0101609,0.9106218 0,0.501674 0.4530727,0.909809 1.0101609,0.909809 0.5574341,0 1.0108839,-0.408135 1.0108839,-0.909809 0,-0.5020846 -0.4534498,-0.9106218 -1.0108839,-0.9106218 z m 0,0"
     id="path13341-0-8"
     style="overflow:hidden;fill:#2d3436;stroke-width:0.00723505;stroke:#2d3436;stroke-opacity:1;fill-opacity:1" />
  <path
     style="fill:none;fill-opacity:1;stroke:#526f5d;stroke-width:0.20717;stroke-linejoin:round;stroke-dasharray:none;stroke-opacity:1;marker-end:url(#Arrow1L)"
     d="M 3.8879517,5.0581637 3.8813389,1.3733228 9.5162934,1.3535888 9.4750164,6.9387692"
     id="path6028"
     sodipodi:nodetypes="cccc" />
  <path
     d="m 2.9079712,12.495478 c -1.3522949,0 -2.71681225,-0.330542 -2.71681225,-1.068947 0,-0.576427 0.93453145,-0.933957 1.80304335,-1.022124 l 0.047543,-0.005 -1.20032146,-1.7317777 c -0.038703,-0.06242 -0.075225,-0.128696 -0.1074286,-0.195761 l -0.031663,-0.05769 -0.00497,-0.02308 c -0.1055205,-0.246176 -0.1589492,-0.503862 -0.1589492,-0.765699 0,-1.1771232 1.06318866,-2.1348347 2.36989626,-2.1348347 1.3066649,0 2.3696677,0.9577115 2.3696677,2.1348347 0,0.262092 -0.05354,0.519663 -0.159353,0.765714 l -0.01586,0.03701 h 0.0015 l -0.01222,0.02266 c -0.03457,0.07344 -0.07281,0.143983 -0.114341,0.210827 l -2.0707051,3.0962447 -0.490462,-0.721722 -0.018524,0.0014 c -0.7944529,0.06135 -1.3011136,0.258922 -1.43398486,0.368924 l -0.024001,0.0199 0.024001,0.02001 c 0.17332446,0.145069 0.83978756,0.374517 1.89633286,0.381284 h 0.094332 v 0 C 4.0092861,11.820951 4.677094,11.592064 4.851864,11.44729 l 0.02462,-0.02038 -0.02503,-0.0199 C 4.754484,11.32966 4.401164,11.17694 3.8577368,11.087281 L 4.275088,10.48517 c 0.870829,0.176804 1.350094,0.510668 1.350094,0.941359 0,0.738446 -1.364516,1.068946 -2.7169861,1.068946 v 0 z m 0,-6.0217315 c -0.5570494,0 -1.0101609,0.4085372 -1.0101609,0.9106218 0,0.501674 0.4530727,0.909809 1.0101609,0.909809 0.5574341,0 1.0108839,-0.408135 1.0108839,-0.909809 0,-0.5020846 -0.4534498,-0.9106218 -1.0108839,-0.9106218 z m 0,0"
     id="path13341-0-8-6"
     style="overflow:hidden;fill:#2e3436;stroke-width:0.00723505;stroke:#2d3436;stroke-opacity:1;fill-opacity:1" />
</svg>
