<?xml version="1.0" encoding="UTF-8" standalone="no"?>
<!-- Uploaded to: SVG Repo, www.svgrepo.com, Generator: SVG Repo Mixer Tools -->

<svg
   fill="#000000"
   width="480"
   height="480.0076"
   viewBox="0 0 60 60.00095"
   version="1.1"
   id="svg3019"
   sodipodi:docname="preferences.svg"
   inkscape:version="1.2.1 (9c6d41e410, 2022-07-14)"
   xmlns:inkscape="http://www.inkscape.org/namespaces/inkscape"
   xmlns:sodipodi="http://sodipodi.sourceforge.net/DTD/sodipodi-0.dtd"
   xmlns="http://www.w3.org/2000/svg"
   xmlns:svg="http://www.w3.org/2000/svg">
  <defs
     id="defs3023" />
  <sodipodi:namedview
     id="namedview3021"
     pagecolor="#ffffff"
     bordercolor="#000000"
     borderopacity="0.25"
     inkscape:showpageshadow="2"
     inkscape:pageopacity="0.0"
     inkscape:pagecheckerboard="0"
     inkscape:deskcolor="#d1d1d1"
     showgrid="false"
     inkscape:zoom="1.04625"
     inkscape:cx="205.01792"
     inkscape:cy="277.18041"
     inkscape:window-width="1920"
     inkscape:window-height="1017"
     inkscape:window-x="-8"
     inkscape:window-y="-8"
     inkscape:window-maximized="1"
     inkscape:current-layer="svg3019" />
  <path
     d="M 30.2199,9.5103691e-4 A 25.4,25.4 0 1 0 55.3999,25.500951 c 0,-13.79 -11.24,-25.49999996309 -25.18,-25.49999996309 z M 19.5499,35.910951 a 2.82,2.82 0 0 1 -3,2.55 h -1.9 a 1.08,1.08 0 0 1 -1.13,-1 v -14.63 a 1.08,1.08 0 0 1 1.13,-1 h 3.77 a 1.08,1.08 0 0 1 1.13,1 z m 27.15,-2.91 c 0,5.55 -5.2,6.06 -10.86,6.06 -5.35,0 -7.09,-1.72 -12.22,-1.91 a 1,1 0 0 1 -1.06,-1 v -12.68 a 1.08,1.08 0 0 1 1.13,-1 6.71,6.71 0 0 0 6.41,-6.7 v -3.77 a 1.08,1.08 0 0 1 1.13,-1 h 1.89 a 2.82,2.82 0 0 1 3,2.55 v 6.45 a 2.82,2.82 0 0 0 3,2.55 h 4.52 a 2.82,2.82 0 0 1 3,2.55 z"
     fill-rule="evenodd"
     id="path3015"
     style="fill:#2e3436;fill-opacity:1" />
  <path
     d="m 5.9999999,44.210951 h -1.27 A 4.75,4.75 0 0 0 0,48.950951 v 6.31 a 4.74,4.74 0 0 0 4.7299999,4.74 H 55.27 a 4.75,4.75 0 0 0 4.73,-4.74 v -6.31 a 4.74,4.74 0 0 0 -4.73,-4.74 h -1.54 a 30.15,30.15 0 0 1 -47.7200001,0 z"
     fill-rule="evenodd"
     id="path3017"
     style="fill:#2e3436;fill-opacity:1" />
</svg>
