<?xml version="1.0" encoding="UTF-8" standalone="no"?>
<!-- Uploaded to: SVG Repo, www.svgrepo.com, Generator: SVG Repo Mixer Tools -->

<svg
   fill="#000000"
   width="700.09155"
   height="700.09155"
   viewBox="0 0 28.003662 28.003662"
   version="1.1"
   id="svg18"
   sodipodi:docname="release.svg"
   inkscape:version="1.2.1 (9c6d41e410, 2022-07-14)"
   xmlns:inkscape="http://www.inkscape.org/namespaces/inkscape"
   xmlns:sodipodi="http://sodipodi.sourceforge.net/DTD/sodipodi-0.dtd"
   xmlns="http://www.w3.org/2000/svg"
   xmlns:svg="http://www.w3.org/2000/svg">
  <defs
     id="defs22" />
  <sodipodi:namedview
     id="namedview20"
     pagecolor="#ffffff"
     bordercolor="#000000"
     borderopacity="0.25"
     inkscape:showpageshadow="2"
     inkscape:pageopacity="0.0"
     inkscape:pagecheckerboard="0"
     inkscape:deskcolor="#d1d1d1"
     showgrid="false"
     inkscape:zoom="1.04625"
     inkscape:cx="247.55078"
     inkscape:cy="350.77658"
     inkscape:window-width="1920"
     inkscape:window-height="1017"
     inkscape:window-x="-8"
     inkscape:window-y="-8"
     inkscape:window-maximized="1"
     inkscape:current-layer="svg18" />
  <title
     id="title13" />
  <path
     d="M 24.491831,28.001831 H 3.5018306 a 3.35,3.35 0 0 1 -2.5,-1 3.35,3.35 0 0 1 -1.00000001,-2.48 V 3.5018306 a 3.35,3.35 0 0 1 1.00000001,-2.5 3.35,3.35 0 0 1 2.5,-1.00000001 H 24.501831 a 3.35,3.35 0 0 1 2.5,1.00000001 3.35,3.35 0 0 1 1,2.5 V 24.501831 a 3.52,3.52 0 0 1 -3.51,3.5 z m -10.49,-22.7900004 a 8.36,8.36 0 0 0 -3.35,0.68 8.6,8.6 0 0 0 -2.7500004,1.85 8.79,8.79 0 0 0 -1.9,2.7500004 8.71,8.71 0 0 0 0,6.7 8.68,8.68 0 0 0 1.9,2.75 8.79,8.79 0 0 0 2.7500004,1.86 8.71,8.71 0 0 0 6.7,0 8.79,8.79 0 0 0 2.75,-1.86 8.68,8.68 0 0 0 1.9,-2.75 8.71,8.71 0 0 0 0,-6.7 8.79,8.79 0 0 0 -1.9,-2.7500004 8.6,8.6 0 0 0 -2.75,-1.85 8.36,8.36 0 0 0 -3.35,-0.68 z M 7.5018306,10.211831 h 2.6900004 a 10.57,10.57 0 0 0 -0.4900004,1.79 h -2.89 a 8,8 0 0 1 0.69,-1.79 z m 0,7.26 a 7.7,7.7 0 0 1 -0.69,-1.74 h 2.89 a 11.33,11.33 0 0 0 0.4900004,1.74 z m 3.8100004,-4.86 -0.82,2.48 -0.5000004,0.21 -0.52,-1.69 -0.47,1.69 -0.51,-0.21 -0.8,-2.48 0.51,-0.22 0.57,1.91 0.45,-1.23 h 0.57 l 0.4400004,1.23 0.6,-1.91 z M 8.7418306,8.6118306 a 7.3,7.3 0 0 1 3.8000004,-2.05 9.68,9.68 0 0 0 -2,3 H 8.0018306 a 6.62,6.62 0 0 1 0.74,-0.97 z m 0,10.5100004 a 6.3,6.3 0 0 1 -0.78,-0.93 h 2.5100004 a 9.81,9.81 0 0 0 2.07,3 7.21,7.21 0 0 1 -3.8000004,-2.09 z m 1.7200004,-7.12 a 9.71,9.71 0 0 1 0.5,-1.75 h 2.67 v 1.75 z m 3.17,5.51 h -2.63 a 9.38,9.38 0 0 1 -0.5,-1.74 h 3.17 z m 0,3.67 a 9.21,9.21 0 0 1 -2.36,-3 h 2.36 z m 0,-14.6000004 v 3 h -2.33 a 9.09,9.09 0 0 1 2.33,-3.04 z m 0.37,7.0300004 -0.51,1.69 -0.5,-0.21 -0.83,-2.48 0.51,-0.22 0.6,1.91 0.44,-1.23 h 0.58 l 0.44,1.23 0.57,-1.91 0.53,0.22 -0.83,2.48 -0.51,0.21 z m 0.37,-7.1000004 a 9.35,9.35 0 0 1 2.36,3 h -2.36 z m 0,3.7000004 h 2.63 a 8.4,8.4 0 0 1 0.57,1.79 h -3.2 z m 3.2,5.52 a 8.13,8.13 0 0 1 -0.57,1.74 h -2.63 v -1.74 z m -3.2,5.44 v -3 h 2.36 a 9.36,9.36 0 0 1 -2.36,3 z m 4.89,-12.5800004 a 6.62,6.62 0 0 1 0.78,0.9 h -2.51 a 10.11,10.11 0 0 0 -2.07,-3 7.3,7.3 0 0 1 3.8,2.1 z m 0,10.5100004 a 7.21,7.21 0 0 1 -3.8,2 9.81,9.81 0 0 0 2.07,-3 h 2.47 a 6.3,6.3 0 0 1 -0.74,1 z m -1.75,-4 -0.82,-2.48 0.51,-0.22 0.6,1.91 0.44,-1.23 h 0.57 l 0.45,1.23 0.57,-1.91 0.51,0.22 -0.8,2.48 -0.54,0.2 -0.5,-1.69 -0.5,1.69 z m 3,-4.88 a 8,8 0 0 1 0.68,1.78 h -2.89 a 10.51,10.51 0 0 0 -0.47,-1.75 z m 0,7.26 h -2.68 a 11.23,11.23 0 0 0 0.47,-1.74 h 2.89 a 7.7,7.7 0 0 1 -0.69,1.73 z"
     id="path15"
     style="fill:#2e3436;fill-opacity:1" />
</svg>
