<?xml version="1.0" encoding="UTF-8" standalone="no"?>
<!-- Generator: Adobe Illustrator 27.7.0, SVG Export Plug-In . SVG Version: 6.00 Build 0)  -->

<svg
   version="1.1"
   id="Layer_1"
   x="0px"
   y="0px"
   viewBox="0 0 512 512"
   style="enable-background:new 0 0 512 512;"
   xml:space="preserve"
   sodipodi:docname="release2.svg"
   inkscape:version="1.2.1 (9c6d41e410, 2022-07-14)"
   xmlns:inkscape="http://www.inkscape.org/namespaces/inkscape"
   xmlns:sodipodi="http://sodipodi.sourceforge.net/DTD/sodipodi-0.dtd"
   xmlns="http://www.w3.org/2000/svg"
   xmlns:svg="http://www.w3.org/2000/svg"><defs
   id="defs50" /><sodipodi:namedview
   id="namedview48"
   pagecolor="#ffffff"
   bordercolor="#000000"
   borderopacity="0.25"
   inkscape:showpageshadow="2"
   inkscape:pageopacity="0.0"
   inkscape:pagecheckerboard="0"
   inkscape:deskcolor="#d1d1d1"
   showgrid="false"
   inkscape:zoom="1.6347656"
   inkscape:cx="190.85305"
   inkscape:cy="256.30585"
   inkscape:window-width="1920"
   inkscape:window-height="1017"
   inkscape:window-x="-8"
   inkscape:window-y="-8"
   inkscape:window-maximized="1"
   inkscape:current-layer="Layer_1" />
<g
   id="g45"
   style="fill:#2e3436;fill-opacity:1">
	<path
   d="M449.89,126.71C406.7,62.07,334.11,23.28,256.39,23.28l-0.47,0l0.1,0l-0.15,0c-77.7,0-150.26,38.81-193.4,103.44   c-7.13,10.69-4.25,25.14,6.44,32.28c10.69,7.13,25.14,4.25,32.28-6.44c34.5-51.69,92.54-82.74,154.68-82.74l0.1,0l0.1,0l0.31,0   c62.17,0,120.25,31.04,154.8,82.75c7.14,10.69,21.59,13.56,32.28,6.42C454.16,151.85,457.03,137.4,449.89,126.71L449.89,126.71z"
   id="path27"
   style="fill:#2e3436;fill-opacity:1" />
	<path
   d="M224.62,34.23c-19.21,30.77-34.33,63.9-45,98.57c-3.78,12.28,3.12,25.31,15.4,29.09c12.28,3.78,25.31-3.12,29.09-15.4   c9.48-30.81,22.92-60.26,39.99-87.61c6.81-10.9,3.48-25.26-7.42-32.06C245.78,20,231.43,23.32,224.62,34.23L224.62,34.23z"
   id="path29"
   style="fill:#2e3436;fill-opacity:1" />
	<path
   d="M247.9,58.88c17.09,27.35,30.54,56.79,40.04,87.61c3.78,12.28,16.81,19.17,29.09,15.39c12.28-3.78,19.17-16.81,15.39-29.09   c-10.68-34.67-25.82-67.8-45.05-98.57c-6.81-10.9-21.17-14.22-32.07-7.41C244.4,33.62,241.09,47.98,247.9,58.88L247.9,58.88z"
   id="path31"
   style="fill:#2e3436;fill-opacity:1" />
	<path
   d="M411.19,359.43c-34.55,51.71-92.63,82.75-154.8,82.75l-0.35,0l-0.05,0l-0.12,0c-62.14,0-120.19-31.04-154.68-82.74   c-7.13-10.69-21.59-13.57-32.28-6.44c-10.69,7.13-13.57,21.59-6.44,32.28c43.13,64.63,115.7,103.44,193.4,103.44l0.14,0l-0.05,0   l0.43,0c77.72,0,150.32-38.8,193.5-103.43c7.14-10.69,4.27-25.14-6.42-32.28C432.78,345.87,418.33,348.75,411.19,359.43   L411.19,359.43z"
   id="path33"
   style="fill:#2e3436;fill-opacity:1" />
	<path
   d="M264.11,453.13c-17.07-27.35-30.51-56.8-39.99-87.61c-3.78-12.28-16.8-19.18-29.09-15.4s-19.18,16.8-15.4,29.09   c10.67,34.67,25.79,67.8,45,98.57c6.81,10.9,21.16,14.22,32.06,7.42C267.59,478.39,270.91,464.03,264.11,453.13L264.11,453.13z"
   id="path35"
   style="fill:#2e3436;fill-opacity:1" />
	<path
   d="M287.37,477.78c19.22-30.77,34.36-63.9,45.05-98.57c3.78-12.28-3.11-25.31-15.39-29.09c-12.28-3.78-25.31,3.11-29.09,15.39   c-9.49,30.81-22.95,60.26-40.04,87.61c-6.81,10.9-3.5,25.26,7.41,32.07C266.2,492,280.56,488.68,287.37,477.78L287.37,477.78z"
   id="path37"
   style="fill:#2e3436;fill-opacity:1" />
	<path
   d="M0.7,215.1l23.27,93.09c2.47,9.89,11.08,17.01,21.25,17.59c10.18,0.58,19.54-5.52,23.11-15.06l13.12-34.98l13.12,34.98   c3.58,9.54,12.94,15.64,23.11,15.06c10.18-0.58,18.78-7.7,21.25-17.59l23.27-93.09c3.12-12.47-4.46-25.1-16.93-28.22   c-12.47-3.12-25.1,4.46-28.22,16.93l-5.15,20.58l-8.67-23.11c-3.4-9.08-12.09-15.1-21.79-15.1c-9.7,0-18.39,6.02-21.79,15.1   L51,224.4l-5.15-20.58c-3.12-12.47-15.75-20.05-28.22-16.93C5.16,190-2.42,202.63,0.7,215.1L0.7,215.1z"
   id="path39"
   style="fill:#2e3436;fill-opacity:1" />
	<path
   d="M349.78,215.1l23.27,93.09c2.47,9.89,11.08,17.01,21.25,17.59c10.18,0.58,19.54-5.52,23.11-15.06l13.12-34.98l13.12,34.98   c3.58,9.54,12.94,15.64,23.11,15.06c10.18-0.58,18.78-7.7,21.25-17.59l23.27-93.09c3.12-12.47-4.46-25.1-16.93-28.22   c-12.47-3.12-25.1,4.46-28.22,16.93L461,224.4l-8.67-23.11c-3.4-9.08-12.09-15.1-21.79-15.1c-9.7,0-18.39,6.02-21.79,15.1   l-8.67,23.11l-5.15-20.58c-3.12-12.47-15.75-20.05-28.22-16.93C354.25,190,346.67,202.63,349.78,215.1L349.78,215.1z"
   id="path41"
   style="fill:#2e3436;fill-opacity:1" />
	<path
   d="M175.24,215.1l23.27,93.09c2.47,9.89,11.08,17.01,21.25,17.59c10.18,0.58,19.54-5.52,23.11-15.06L256,275.73l13.12,34.98   c3.58,9.54,12.94,15.64,23.11,15.06c10.18-0.58,18.78-7.7,21.25-17.59l23.27-93.09c3.12-12.47-4.46-25.1-16.93-28.22   c-12.47-3.12-25.1,4.46-28.22,16.93l-5.15,20.58l-8.67-23.11c-3.4-9.08-12.09-15.1-21.79-15.1c-9.7,0-18.39,6.02-21.79,15.1   l-8.67,23.11l-5.15-20.58c-3.12-12.47-15.75-20.05-28.22-16.93C179.71,190,172.12,202.63,175.24,215.1L175.24,215.1z"
   id="path43"
   style="fill:#2e3436;fill-opacity:1" />
</g>
</svg>
