<?xml version="1.0" encoding="UTF-8" standalone="no"?>
<svg
   height="44"
   viewBox="0 -960 720 880"
   width="36"
   version="1.1"
   id="svg12"
   sodipodi:docname="resetId.svg"
   inkscape:version="1.2.1 (9c6d41e410, 2022-07-14)"
   xmlns:inkscape="http://www.inkscape.org/namespaces/inkscape"
   xmlns:sodipodi="http://sodipodi.sourceforge.net/DTD/sodipodi-0.dtd"
   xmlns="http://www.w3.org/2000/svg"
   xmlns:svg="http://www.w3.org/2000/svg">
  <defs
     id="defs16" />
  <sodipodi:namedview
     id="namedview14"
     pagecolor="#ffffff"
     bordercolor="#000000"
     borderopacity="0.25"
     inkscape:showpageshadow="2"
     inkscape:pageopacity="0.0"
     inkscape:pagecheckerboard="0"
     inkscape:deskcolor="#d1d1d1"
     showgrid="false"
     inkscape:zoom="17.4375"
     inkscape:cx="4.874552"
     inkscape:cy="22.021505"
     inkscape:window-width="1920"
     inkscape:window-height="1017"
     inkscape:window-x="-8"
     inkscape:window-y="-8"
     inkscape:window-maximized="1"
     inkscape:current-layer="svg12" />
  <path
     d="M 118,-251 Q 61,-304 30.5,-373.5 0,-443 0,-520 0,-670 105,-775 210,-880 360,-880 v -80 l 183,140 -183,140 v -80 q -100,0 -170,70 -70,70 -70,170 0,57 25,107.5 25,50.5 67,88.5 z M 360,-80 177,-220 360,-360 v 80 q 100,0 170,-70 70,-70 70,-170 0,-57 -25,-108 -25,-51 -70,-88 l 95,-71 q 58,51 89,120.5 31,69.5 31,146.5 0,150 -105,255 -105,105 -255,105 z"
     id="path10"
     style="stroke:#000000;stroke-opacity:1;fill:#000000;fill-opacity:1" />
  <text
     xml:space="preserve"
     style="font-style:normal;font-variant:normal;font-weight:bold;font-stretch:normal;font-size:400px;font-family:sans-serif;-inkscape-font-specification:'sans-serif, Bold';font-variant-ligatures:normal;font-variant-caps:normal;font-variant-numeric:normal;font-variant-east-asian:normal;fill:#000000;stroke-width:3.72;stroke-linejoin:round;fill-opacity:1"
     x="162.85156"
     y="-374.58984"
     id="text299"><tspan
       sodipodi:role="line"
       id="tspan297"
       style="font-style:normal;font-variant:normal;font-weight:bold;font-stretch:normal;font-size:400px;font-family:sans-serif;-inkscape-font-specification:'sans-serif, Bold';font-variant-ligatures:normal;font-variant-caps:normal;font-variant-numeric:normal;font-variant-east-asian:normal;fill:#000000;fill-opacity:1;stroke-width:3.72"
       x="162.85156"
       y="-374.58984">ID</tspan></text>
</svg>
