<?xml version="1.0" encoding="UTF-8" standalone="no"?>
<!-- Svg Vector Icons : http://www.onlinewebfonts.com/icon -->

<svg
   version="1.1"
   x="0px"
   y="0px"
   viewBox="0 0 124.20152 123.90492"
   enable-background="new 0 0 256 256"
   xml:space="preserve"
   id="svg36"
   sodipodi:docname="select-all.svg"
   width="124.20152"
   height="123.90492"
   inkscape:version="1.2.1 (9c6d41e410, 2022-07-14)"
   xmlns:inkscape="http://www.inkscape.org/namespaces/inkscape"
   xmlns:sodipodi="http://sodipodi.sourceforge.net/DTD/sodipodi-0.dtd"
   xmlns="http://www.w3.org/2000/svg"
   xmlns:svg="http://www.w3.org/2000/svg"><defs
   id="defs40" /><sodipodi:namedview
   id="namedview38"
   pagecolor="#ffffff"
   bordercolor="#000000"
   borderopacity="0.25"
   inkscape:showpageshadow="2"
   inkscape:pageopacity="0.0"
   inkscape:pagecheckerboard="0"
   inkscape:deskcolor="#d1d1d1"
   showgrid="false"
   inkscape:zoom="6.5695532"
   inkscape:cx="59.745311"
   inkscape:cy="61.952463"
   inkscape:window-width="1920"
   inkscape:window-height="1017"
   inkscape:window-x="-8"
   inkscape:window-y="-8"
   inkscape:window-maximized="1"
   inkscape:current-layer="g30" />
<metadata
   id="metadata22"> Svg Vector Icons : http://www.onlinewebfonts.com/icon </metadata>
<g
   id="g30"
   transform="translate(-64.799243,-66.097796)"><path
     fill="#000000"
     d="m 65.6,67.3 c -0.6,0.9 -0.8,2.8 -0.8,10.7 0,12.1 -0.2,11.8 5.9,11.8 h 4.4 v 4.9 4.9 h -4.4 c -6.1,0 -5.9,-0.4 -5.9,11.8 0,12.1 -0.2,11.8 5.9,11.8 h 4.4 v 4.9 4.9 h -4.4 c -6.1,0 -5.9,-0.4 -5.9,11.8 0,12.2 -0.2,11.8 5.9,11.8 h 4.4 v 4.9 4.9 h -4.4 c -6.1,0 -5.9,-0.4 -5.9,11.8 0,7.9 0.1,9.7 0.8,10.7 0.7,1.1 1,1.1 10.9,1.1 12.2,0 11.8,0.2 11.8,-5.5 v -3.8 h 5.1 5.1 v 3.9 c 0,5.7 -0.5,5.4 11.6,5.4 12.2,0 11.9,0.1 11.9,-5.6 v -3.7 h 4.9 4.9 v 3.7 c 0,5.7 -0.2,5.6 11.9,5.6 12,0 11.6,0.2 11.6,-5.5 v -3.8 h 5.1 5.1 v 3.8 c 0,5.7 -0.4,5.5 11.9,5.5 9.8,0 10.1,0 10.8,-1.1 0.6,-0.9 0.8,-2.8 0.8,-10.7 0,-12.1 0.2,-11.8 -5.9,-11.8 h -4.4 v -4.9 -4.9 h 4.4 c 6.1,0 5.9,0.4 5.9,-11.8 0,-12.2 0.2,-11.8 -5.9,-11.8 h -4.4 v -5 -4.9 h 4.4 c 6.1,0 5.9,0.4 5.9,-11.8 0,-12.1 0.2,-11.8 -5.9,-11.8 h -4.4 v -4.9 -4.9 h 4.4 c 6.1,0 5.9,0.4 5.9,-11.8 0,-7.9 -0.1,-9.7 -0.8,-10.7 -0.7,-1.1 -1,-1.1 -10.9,-1.1 -12.3,0 -11.8,-0.3 -11.8,6.1 v 4.3 l -5,-0.1 -5,-0.1 -0.2,-4.6 c -0.2,-3.3 -0.4,-4.7 -1,-5 -0.4,-0.2 -5.2,-0.5 -10.6,-0.5 -12.2,0 -11.9,-0.2 -11.9,6.1 v 4.2 h -4.8 -4.9 v -4.2 c 0,-6.3 0.3,-6.1 -11.9,-6.1 -5.5,0 -10.3,0.2 -10.7,0.5 -0.5,0.3 -0.8,1.7 -1,5 l -0.2,4.6 -5,0.1 -5,0.1 v -4.4 c 0,-6.2 0.5,-6 -11.9,-6 -9.8,0.2 -10.1,0.2 -10.8,1.2 z M 84.9,78 v 8.3 H 76.6 68.3 V 78 69.7 h 8.3 8.3 z m 33.8,0 v 8.3 H 110.4 102 V 78 69.7 h 8.3 8.3 V 78 Z m 33.3,0 v 8.3 h -8.3 -8.3 V 78 69.7 h 8.3 8.3 z m 33.8,0 v 8.3 h -8.3 -8.3 V 78 69.7 h 8.3 8.3 z m -87.3,5.9 c 0.2,6.1 -0.3,5.9 11.7,5.9 12.2,0 11.9,0.2 11.9,-6.1 v -4.2 h 4.9 4.9 v 4.2 c 0,6.3 -0.3,6.1 11.9,6.1 12,0 11.5,0.2 11.7,-5.9 l 0.1,-4.2 5,-0.1 5,-0.1 v 4.3 c 0,5.7 0.3,6.1 5.7,6.1 h 4.1 v 4.9 4.9 h -4 c -6,0 -5.8,-0.4 -5.8,11.7 0,12.3 -0.2,11.9 5.7,11.9 h 4.1 v 4.9 4.9 h -4 c -6,0 -5.8,-0.4 -5.8,11.7 0,12.3 -0.2,11.9 5.7,11.9 h 4.1 v 4.9 4.9 h -4 c -5.5,0 -5.8,0.3 -5.8,6.2 v 4.6 h -5.1 -5.1 v -4.5 c 0,-6.6 0.5,-6.3 -11.6,-6.3 -12.3,0 -11.9,-0.2 -11.9,6.4 v 4.4 h -4.9 -4.9 v -4.4 c 0,-6.6 0.4,-6.4 -11.9,-6.4 -8.5,0 -10.1,0.1 -10.8,0.8 -0.6,0.6 -0.8,1.8 -0.8,5.4 v 4.6 h -5.1 -5.1 v -4.5 c 0,-6 -0.2,-6.3 -5.7,-6.3 h -4.1 v -4.9 -4.9 h 4 c 6,0 5.8,0.4 5.8,-11.7 0,-12.3 0.2,-11.9 -5.7,-11.9 h -4.1 v -5.1 -4.9 h 4 c 6,0 5.8,0.4 5.8,-11.7 0,-12.3 0.2,-11.9 -5.7,-11.9 h -4.1 v -4.9 -4.9 h 4 c 5.5,0 5.8,-0.3 5.8,-6 v -4.4 l 5,0.1 5,0.1 z m -13.6,27.4 v 8.3 h -8.3 -8.3 v -8.3 -8.3 h 8.3 8.3 z m 100.9,0 v 8.3 h -8.3 -8.3 v -8.3 -8.3 h 8.3 8.3 z M 84.9,144.6 v 8.3 h -8.3 -8.3 v -8.3 -8.3 h 8.3 8.3 z m 100.9,0 v 8.3 h -8.3 -8.3 v -8.3 -8.3 h 8.3 8.3 z M 84.9,177.9 v 8.3 h -8.3 -8.3 v -8.3 -8.3 h 8.3 8.3 z m 33.8,0 v 8.3 h -8.3 -8.4 v -8.3 -8.3 h 8.3 8.3 v 8.3 z m 33.3,0 v 8.3 h -8.3 -8.3 v -8.3 -8.3 h 8.3 8.3 z m 33.8,0 v 8.3 h -8.3 -8.3 v -8.3 -8.3 h 8.3 8.3 z"
     id="path26" /><g
     id="g2528"
     transform="matrix(0.80048666,0,0,0.80048665,31.938596,41.842673)"><path
       style="fill:#030104;stroke-width:2.63796"
       d="m 118.62959,65.48653 c -23.309059,0 -42.20744,18.898381 -42.20744,42.20744 0,23.30906 18.898381,42.20744 42.20744,42.20744 23.30906,0 42.20744,-18.89838 42.20744,-42.20744 0,-23.309059 -18.89838,-42.20744 -42.20744,-42.20744 z m -6.54215,61.68354 -19.420702,-19.42334 7.460162,-7.46017 11.9579,11.96318 25.36931,-25.369314 7.46016,7.460165 z"
       id="path1959" /></g></g>
</svg>
