<?xml version="1.0" encoding="UTF-8" standalone="no"?>
<svg
   version="1.1"
   id="mdi-rotate-orbit"
   width="22"
   height="22"
   viewBox="0 0 22 22"
   sodipodi:docname="spin.svg"
   inkscape:version="1.2.1 (9c6d41e410, 2022-07-14)"
   xmlns:inkscape="http://www.inkscape.org/namespaces/inkscape"
   xmlns:sodipodi="http://sodipodi.sourceforge.net/DTD/sodipodi-0.dtd"
   xmlns="http://www.w3.org/2000/svg"
   xmlns:svg="http://www.w3.org/2000/svg">
  <defs
     id="defs14" />
  <sodipodi:namedview
     id="namedview12"
     pagecolor="#ffffff"
     bordercolor="#000000"
     borderopacity="0.25"
     inkscape:showpageshadow="2"
     inkscape:pageopacity="0.0"
     inkscape:pagecheckerboard="0"
     inkscape:deskcolor="#d1d1d1"
     showgrid="false"
     inkscape:zoom="8.71875"
     inkscape:cx="-2.5232975"
     inkscape:cy="27.412186"
     inkscape:window-width="1920"
     inkscape:window-height="1017"
     inkscape:window-x="-8"
     inkscape:window-y="-8"
     inkscape:window-maximized="1"
     inkscape:current-layer="mdi-rotate-orbit" />
  <path
     d="M 7,13.25 3.75,10 H 6 C 6.25,4.39 8.39,0 11,0 13,0 14.77,2.64 15.55,6.45 19.36,7.23 22,9 22,11 c 0,1.83 -2.17,3.43 -5.4,4.3 l 0.29,-2.03 C 18.8,12.72 20,11.91 20,11 20,9.94 18.35,9 15.87,8.5 15.95,9.29 16,10.13 16,11 16,17.08 13.76,22 11,22 9.17,22 7.57,19.83 6.7,16.6 l 2.03,0.29 C 9.28,18.8 10.09,20 11,20 12.66,20 14,15.97 14,11 14,10 13.95,9.05 13.85,8.15 12.95,8.05 12,8 11,8 L 9.14,8.06 9.43,6.05 11,6 c 0.87,0 1.71,0.05 2.5,0.13 C 13,3.65 12.06,2 11,2 9.46,2 8.18,5.5 8,10 h 2.25 L 7,13.25 M 13.25,15 10,18.25 V 16 C 4.39,15.75 0,13.61 0,11 0,9.17 2.17,7.57 5.4,6.7 L 5.11,8.73 C 3.2,9.28 2,10.09 2,11 c 0,1.54 3.5,2.82 8,3 v -2.25 z"
     id="path9"
     style="fill:#2e3436;fill-opacity:1" />
  <polygon
     fill="#231f20"
     points="1085.4374,1005.6964 1191.2842,899.8454 1283.1857,1127.3097 1406.1421,1077.6322 1314.2406,850.1678 1463.913,852.7823 1093.4828,480.8547 "
     id="polygon28390"
     transform="matrix(0.01851473,0,0,0.0114967,-4.3784273,9.0396586)"
     style="stroke:#ffffff;stroke-width:30.7428;stroke-dasharray:none;stroke-opacity:1;fill:#2e3436;fill-opacity:1" />
</svg>
