<?xml version="1.0" encoding="UTF-8" standalone="no"?>
<svg
   version="1.1"
   id="Layer_1"
   x="0px"
   y="0px"
   viewBox="0 0 122.858 122.85801"
   xml:space="preserve"
   sodipodi:docname="style.svg"
   inkscape:version="1.2.1 (9c6d41e410, 2022-07-14)"
   width="122.858"
   height="122.858"
   xmlns:inkscape="http://www.inkscape.org/namespaces/inkscape"
   xmlns:sodipodi="http://sodipodi.sourceforge.net/DTD/sodipodi-0.dtd"
   xmlns="http://www.w3.org/2000/svg"
   xmlns:svg="http://www.w3.org/2000/svg"><defs
     id="defs11036" /><sodipodi:namedview
     id="namedview11034"
     pagecolor="#ffffff"
     bordercolor="#000000"
     borderopacity="0.25"
     inkscape:showpageshadow="2"
     inkscape:pageopacity="0.0"
     inkscape:pagecheckerboard="0"
     inkscape:deskcolor="#d1d1d1"
     showgrid="false"
     inkscape:zoom="3.4057618"
     inkscape:cx="48.300501"
     inkscape:cy="69.294335"
     inkscape:window-width="1920"
     inkscape:window-height="1017"
     inkscape:window-x="-8"
     inkscape:window-y="-8"
     inkscape:window-maximized="1"
     inkscape:current-layer="Layer_1" /><style
     type="text/css"
     id="style11027"><![CDATA[
	.st0{fill-rule:evenodd;clip-rule:evenodd;}
]]></style><g
     id="g11031"
     style="fill:#2e3436;fill-opacity:1"
     transform="translate(8.0935757,1.8447068e-4)"><path
       class="st0"
       d="m 87.73,0 c 1.3,-0.01 2.42,0.43 3.39,1.35 l 14.16,13.55 c 0.92,0.88 1.37,2.04 1.39,3.32 0.02,1.3 -0.36,2.49 -1.26,3.39 L 97.87,29.45 76.95,9.25 84.41,1.48 C 85.32,0.53 86.43,0.02 87.73,0 Z M 21.44,72.88 c 2.56,-0.79 5.26,0.65 6.05,3.2 0.79,2.56 -0.65,5.26 -3.2,6.05 -7.45,2.28 -12.44,6.7 -14.1,10.85 -0.44,1.11 -0.59,2.12 -0.42,2.96 0.13,0.63 0.51,1.21 1.14,1.66 2.72,1.99 8.58,2.5 18.42,0.11 4.76,-1.16 2.81,-0.68 5.99,-1.27 6.32,-1.17 12.63,-1.97 17.72,-1.72 6.68,0.33 11.7,2.48 13.41,7.61 1.11,3.32 0.8,6.2 0.52,8.78 -0.1,0.93 -0.19,1.79 -0.15,2.36 0,0.02 1.01,-0.05 5.9,-0.44 5.66,-0.45 11.52,-2.68 17.3,-4.89 2.97,-1.13 5.91,-2.25 9.25,-3.28 2.56,-0.78 5.26,0.67 6.03,3.22 0.78,2.56 -0.67,5.26 -3.22,6.03 -2.59,0.79 -5.59,1.94 -8.6,3.08 -6.45,2.46 -12.96,4.94 -20,5.5 -12.88,1.01 -15.87,-2.63 -16.33,-8.48 -0.11,-1.38 0.03,-2.71 0.18,-4.14 0.17,-1.6 0.36,-3.39 -0.07,-4.69 -0.19,-0.58 -2.02,-0.88 -4.68,-1 -4.26,-0.21 -9.84,0.51 -15.52,1.57 -2.83,0.52 -0.8,0.02 -5.45,1.15 -12.96,3.15 -21.57,1.81 -26.39,-1.71 C 2.51,103.42 0.9,100.83 0.28,97.92 -0.3,95.21 0.03,92.29 1.19,89.38 3.81,82.85 11.04,76.06 21.44,72.88 Z M 44.06,51.71 56.9,64.06 41.2,68.28 c -0.57,0.11 -0.79,-0.12 -0.69,-0.64 z M 70.31,16.13 91.22,36.27 62.66,66.41 37.07,73.27 c -0.92,0.18 -1.28,-0.18 -1.13,-1.05 l 5.8,-25.94 z"
       id="path11029"
       style="fill:#2e3436;fill-opacity:1" /></g></svg>
