<?xml version="1.0" encoding="UTF-8" standalone="no"?>
<!-- Generator: Adobe Illustrator 27.2.0, SVG Export Plug-In . SVG Version: 6.00 Build 0)  -->

<svg
   version="1.1"
   id="Layer_1"
   x="0px"
   y="0px"
   viewBox="0 0 498.94897 511.98074"
   xml:space="preserve"
   sodipodi:docname="Tag-reset.svg"
   width="498.94897"
   height="511.98074"
   inkscape:version="1.2.1 (9c6d41e410, 2022-07-14)"
   xmlns:inkscape="http://www.inkscape.org/namespaces/inkscape"
   xmlns:sodipodi="http://sodipodi.sourceforge.net/DTD/sodipodi-0.dtd"
   xmlns="http://www.w3.org/2000/svg"
   xmlns:svg="http://www.w3.org/2000/svg"><defs
   id="defs22" /><sodipodi:namedview
   id="namedview20"
   pagecolor="#ffffff"
   bordercolor="#000000"
   borderopacity="0.25"
   inkscape:showpageshadow="2"
   inkscape:pageopacity="0.0"
   inkscape:pagecheckerboard="0"
   inkscape:deskcolor="#d1d1d1"
   showgrid="false"
   inkscape:zoom="1.6347656"
   inkscape:cx="185.04182"
   inkscape:cy="256.30585"
   inkscape:window-width="1920"
   inkscape:window-height="1017"
   inkscape:window-x="-8"
   inkscape:window-y="-8"
   inkscape:window-maximized="1"
   inkscape:current-layer="Layer_1" />
<style
   type="text/css"
   id="style13">
	.st0{fill:#212121;}
</style>
<g
   id="g17"
   transform="translate(-6.5262244)">
	<path
   class="st0"
   d="M 481.09,54.86 C 481.09,24.56 456.53,0 426.23,0 H 292.98 c -21.03,0 -41.2,8.36 -56.06,23.24 L 29.69,230.72 c -30.92,30.97 -30.88,81.14 0.09,112.06 L 138.56,451.4 c 30.99,30.88 81.11,30.85 112.06,-0.03 l 0.07,-0.07 c -8.8,-19.11 -13.41,-39.98 -13.41,-61.19 0,-13.49 6.26,-25.52 16.04,-33.34 l -40.11,-40.11 c -16.66,-16.66 -16.66,-43.68 0,-60.34 l 48.76,-48.76 c 16.66,-16.66 43.68,-16.66 60.34,0 9.89,9.88 13.91,23.42 12.06,36.26 h 49.2 c 21.2,0 42.06,4.61 61.16,13.4 l 13.16,-13.16 c 14.85,-14.86 23.2,-35.01 23.2,-56.02 V 54.86 Z m -158.48,67.1 c 0,-20.2 16.37,-36.57 36.57,-36.57 20.2,0 36.57,16.37 36.57,36.57 0,20.2 -16.37,36.57 -36.57,36.57 -20.19,0 -36.57,-16.38 -36.57,-36.57 z m -17.54,128.68 c 7.14,-7.14 7.14,-18.72 0,-25.86 -7.14,-7.14 -18.72,-7.14 -25.86,0 l -48.76,48.76 c -7.14,7.14 -7.14,18.72 0,25.86 l 48.76,48.76 c 7.14,7.14 18.72,7.14 25.86,0 7.14,-7.14 7.14,-18.72 0,-25.86 l -17.54,-17.55 h 96.04 c 16.88,0 33.37,5.01 47.41,14.38 14.03,9.37 24.97,22.7 31.43,38.29 6.46,15.59 8.15,32.75 4.85,49.3 -3.29,16.55 -11.42,31.76 -23.35,43.69 -11.93,11.93 -27.14,20.06 -43.69,23.35 -16.55,3.29 -33.71,1.6 -49.3,-4.85 -15.59,-6.46 -28.92,-17.4 -38.3,-31.43 -9.38,-14.03 -14.38,-30.53 -14.38,-47.41 0,-10.1 -8.19,-18.29 -18.29,-18.29 -10.1,0 -18.29,8.19 -18.29,18.29 0,24.11 7.15,47.68 20.55,67.73 13.39,20.05 32.43,35.67 54.71,44.9 22.27,9.23 46.78,11.64 70.43,6.94 23.65,-4.7 45.37,-16.31 62.42,-33.36 17.05,-17.05 28.66,-38.77 33.36,-62.42 4.71,-23.65 2.29,-48.16 -6.94,-70.43 -9.23,-22.27 -24.85,-41.31 -44.9,-54.71 -20.05,-13.4 -43.62,-20.55 -67.73,-20.55 h -96.04 z"
   id="path15" />
</g>
</svg>
