<?xml version="1.0" encoding="UTF-8" standalone="no"?>
<!-- Generator: Adobe Illustrator 24.1.1, SVG Export Plug-In . SVG Version: 6.00 Build 0)  -->

<svg
   version="1.1"
   id="Layer_1"
   x="0px"
   y="0px"
   viewBox="0 0 512 512"
   style="enable-background:new 0 0 512 512;"
   xml:space="preserve"
   sodipodi:docname="tag.svg"
   inkscape:version="1.2.1 (9c6d41e410, 2022-07-14)"
   xmlns:inkscape="http://www.inkscape.org/namespaces/inkscape"
   xmlns:sodipodi="http://sodipodi.sourceforge.net/DTD/sodipodi-0.dtd"
   xmlns="http://www.w3.org/2000/svg"
   xmlns:svg="http://www.w3.org/2000/svg"><defs
   id="defs10166" /><sodipodi:namedview
   id="namedview10164"
   pagecolor="#ffffff"
   bordercolor="#000000"
   borderopacity="0.25"
   inkscape:showpageshadow="2"
   inkscape:pageopacity="0.0"
   inkscape:pagecheckerboard="0"
   inkscape:deskcolor="#d1d1d1"
   showgrid="false"
   inkscape:zoom="1.6347656"
   inkscape:cx="190.85305"
   inkscape:cy="256.30585"
   inkscape:window-width="1920"
   inkscape:window-height="1017"
   inkscape:window-x="-8"
   inkscape:window-y="-8"
   inkscape:window-maximized="1"
   inkscape:current-layer="Layer_1" />
<g
   id="XMLID_1_"
   style="fill:#2e3436;fill-opacity:1">
	<path
   id="XMLID_5_"
   d="M486.9,0.5H291.6c-13,0-32.6,7.4-41.9,17.7L7,260c-9.3,9.3-9.3,25.1,0,34.4l210.2,210.2   c9.3,9.3,25.1,9.3,34.4,0l242.7-242.7c9.3-9.3,17.7-27.9,17.7-41.9V24.6C511.1,11.6,499.9,0.5,486.9,0.5z M364.1,195.8   c-27,0-49.3-22.3-49.3-49.3s22.3-49.3,49.3-49.3c27,0,49.3,22.3,49.3,49.3S391.1,195.8,364.1,195.8z"
   style="fill:#2e3436;fill-opacity:1" />
</g>
</svg>
