<?xml version="1.0" encoding="UTF-8" standalone="no"?>
<!-- Created with Inkscape (http://www.inkscape.org/) -->

<svg
   id="svg1"
   sodipodi:docname="transform.svg"
   viewBox="0 0 54.096001 35.638"
   sodipodi:version="0.32"
   version="1.0"
   y="0"
   x="0"
   inkscape:version="1.2.1 (9c6d41e410, 2022-07-14)"
   width="54.096001"
   height="35.638"
   xmlns:inkscape="http://www.inkscape.org/namespaces/inkscape"
   xmlns:sodipodi="http://sodipodi.sourceforge.net/DTD/sodipodi-0.dtd"
   xmlns="http://www.w3.org/2000/svg"
   xmlns:svg="http://www.w3.org/2000/svg"
   xmlns:rdf="http://www.w3.org/1999/02/22-rdf-syntax-ns#"
   xmlns:cc="http://creativecommons.org/ns#"
   xmlns:dc="http://purl.org/dc/elements/1.1/">
  <defs
     id="defs4424" />
  <sodipodi:namedview
     id="base"
     bordercolor="#666666"
     inkscape:pageshadow="2"
     inkscape:window-width="1920"
     pagecolor="#ffffff"
     inkscape:zoom="6.9465337"
     inkscape:window-x="-8"
     borderopacity="1.0"
     inkscape:cx="15.547323"
     inkscape:cy="2.8791338"
     inkscape:window-y="-8"
     inkscape:window-height="1017"
     inkscape:pageopacity="0.0"
     inkscape:showpageshadow="2"
     inkscape:pagecheckerboard="0"
     inkscape:deskcolor="#d1d1d1"
     showgrid="false"
     inkscape:window-maximized="1"
     inkscape:current-layer="svg1" />
  <path
     id="path838"
     style="fill:#2e3436;stroke-width:1pt;fill-opacity:1"
     d="m 54.096,20.458 c 0,2.301 -0.189,4.482 -0.565,6.543 -0.377,2.05 -0.863,3.812 -1.459,5.287 -0.377,0.921 -0.748,1.606 -1.114,2.055 -0.366,0.45 -0.853,0.675 -1.459,0.675 -0.638,0 -1.172,-0.188 -1.601,-0.565 -0.418,-0.376 -0.627,-0.873 -0.627,-1.49 0,-0.136 0.157,-0.701 0.47,-1.695 0.314,-0.983 0.602,-1.95 0.863,-2.902 0.262,-0.952 0.502,-2.113 0.722,-3.483 0.22,-1.371 0.33,-2.845 0.33,-4.425 0,-1.893 -0.168,-3.682 -0.503,-5.366 -0.334,-1.694 -0.732,-3.273 -1.192,-4.738 -0.46,-1.464 -0.69,-2.259 -0.69,-2.385 0,-0.617 0.209,-1.108 0.627,-1.474 0.419,-0.366 0.952,-0.55 1.601,-0.55 0.617,0 1.108,0.225 1.474,0.675 0.367,0.439 0.733,1.125 1.099,2.055 0.596,1.454 1.082,3.212 1.459,5.272 0.376,2.061 0.565,4.231 0.565,6.511 z M 31.691,25.055 35.959,20.458 33.37,17.665 C 32.742,16.996 32.319,16.541 32.099,16.301 31.89,16.049 31.728,15.804 31.613,15.563 31.498,15.312 31.44,15.03 31.44,14.716 c 0,-0.753 0.246,-1.376 0.738,-1.867 0.491,-0.492 1.045,-0.738 1.663,-0.738 0.596,0 1.066,0.084 1.412,0.251 0.345,0.168 0.7,0.492 1.067,0.973 l 2.667,3.342 2.667,-3.342 c 0.387,-0.481 0.748,-0.805 1.083,-0.973 0.334,-0.167 0.8,-0.251 1.396,-0.251 0.617,0 1.171,0.241 1.663,0.722 0.492,0.481 0.737,1.109 0.737,1.883 0,0.314 -0.057,0.596 -0.172,0.847 -0.115,0.241 -0.283,0.486 -0.502,0.738 -0.209,0.24 -0.628,0.695 -1.255,1.364 l -2.589,2.793 4.267,4.597 c 0.272,0.293 0.502,0.612 0.691,0.957 0.198,0.335 0.298,0.732 0.298,1.193 0,0.763 -0.246,1.38 -0.738,1.851 -0.491,0.46 -1.098,0.69 -1.82,0.69 -0.47,0 -0.857,-0.099 -1.161,-0.298 C 43.26,29.25 42.904,28.92 42.485,28.46 l -3.498,-4.142 -3.499,4.142 c -0.366,0.418 -0.711,0.737 -1.036,0.957 -0.324,0.22 -0.721,0.329 -1.192,0.329 -0.722,0 -1.328,-0.23 -1.82,-0.69 -0.491,-0.471 -0.737,-1.088 -0.737,-1.851 0,-0.45 0.083,-0.832 0.251,-1.146 0.178,-0.313 0.423,-0.648 0.737,-1.004 z m -7.797,-4.597 c 0,-1.475 0.088,-2.96 0.266,-4.456 0.178,-1.495 0.419,-2.855 0.722,-4.079 0.314,-1.224 0.659,-2.306 1.035,-3.248 0.408,-0.972 0.785,-1.668 1.13,-2.086 0.345,-0.429 0.826,-0.644 1.444,-0.644 0.658,0 1.192,0.184 1.6,0.55 0.408,0.366 0.612,0.857 0.612,1.474 0,0.126 -0.23,0.921 -0.691,2.385 -0.46,1.465 -0.857,3.044 -1.192,4.738 -0.335,1.684 -0.502,3.473 -0.502,5.366 0,1.475 0.11,2.924 0.329,4.346 0.22,1.423 0.461,2.61 0.722,3.562 0.262,0.952 0.549,1.909 0.863,2.871 0.314,0.962 0.471,1.537 0.471,1.726 0,0.617 -0.209,1.114 -0.628,1.49 -0.418,0.377 -0.946,0.565 -1.584,0.565 -0.607,0 -1.083,-0.214 -1.428,-0.643 -0.345,-0.419 -0.727,-1.114 -1.146,-2.087 -0.292,-0.763 -0.559,-1.564 -0.8,-2.4 -0.23,-0.827 -0.444,-1.768 -0.643,-2.825 -0.188,-1.066 -0.335,-2.159 -0.439,-3.279 -0.094,-1.129 -0.141,-2.238 -0.141,-3.326 z" />
  <path
     id="path836"
     sodipodi:nodetypes="cc"
     style="fill:#2e3436;stroke:#333333;stroke-width:5;stroke-linecap:round;stroke-linejoin:round;fill-opacity:1"
     d="M 18.524,2.5 C 6.881,5.8 13.485,29.913 2.5,33.138"
     sodipodi:stroke-cmyk="(0.0000000 0.0000000 0.0000000 0.80000001)" />
  <path
     id="path837"
     style="fill:#2e3436;stroke:#333333;stroke-width:5;stroke-linecap:round;stroke-linejoin:round;fill-opacity:1"
     d="m 3.5165,14.753 h 16.404"
     sodipodi:stroke-cmyk="(0.0000000 0.0000000 0.0000000 0.80000001)" />
  <metadata
     id="metadata4421">
    <rdf:RDF>
      <cc:Work>
        <dc:format>image/svg+xml</dc:format>
        <dc:type
           rdf:resource="http://purl.org/dc/dcmitype/StillImage" />
        <cc:license
           rdf:resource="http://creativecommons.org/publicdomain/zero/1.0/" />
        <dc:publisher>
          <cc:Agent
             rdf:about="http://openclipart.org/">
            <dc:title>Openclipart</dc:title>
          </cc:Agent>
        </dc:publisher>
        <dc:title>ftfunct</dc:title>
        <dc:date>2011-01-31T02:01:33</dc:date>
        <dc:description>Originally uploaded by Danny Allen for OCAL 0.18 this icon is part of the flat theme</dc:description>
        <dc:source>https://openclipart.org/detail/112681/ftfunct-by-anonymous</dc:source>
        <dc:creator>
          <cc:Agent>
            <dc:title>Anonymous</dc:title>
          </cc:Agent>
        </dc:creator>
        <dc:subject>
          <rdf:Bag>
            <rdf:li>flat</rdf:li>
            <rdf:li>icon</rdf:li>
            <rdf:li>theme</rdf:li>
          </rdf:Bag>
        </dc:subject>
      </cc:Work>
      <cc:License
         rdf:about="http://creativecommons.org/publicdomain/zero/1.0/">
        <cc:permits
           rdf:resource="http://creativecommons.org/ns#Reproduction" />
        <cc:permits
           rdf:resource="http://creativecommons.org/ns#Distribution" />
        <cc:permits
           rdf:resource="http://creativecommons.org/ns#DerivativeWorks" />
      </cc:License>
    </rdf:RDF>
  </metadata>
</svg>
